<svg xmlns="http://www.w3.org/2000/svg" width="1200" height="420" viewBox="0 0 1200 420">
  <defs>
    <linearGradient id="g" x1="0" x2="1" y1="0" y2="1">
      <stop offset="0%" stop-color="#0b0f1a"/>
      <stop offset="50%" stop-color="#0f172a"/>
      <stop offset="100%" stop-color="#111827"/>
    </linearGradient>
    <linearGradient id="o" x1="0" x2="1">
      <stop offset="0%" stop-color="#f59e0b"/>
      <stop offset="100%" stop-color="#fb923c"/>
    </linearGradient>
  </defs>
  <rect width="1200" height="420" fill="url(#g)"/>
  <g transform="translate(80,100)">
    <text x="0" y="0" fill="#f59e0b" font-size="18" font-family="'Inter', system-ui, -apple-system, Segoe UI, Roboto, Arial" opacity="0.9">Portfolio Project</text>
    <text x="0" y="70" fill="#e5e7eb" font-size="56" font-weight="700" font-family="'Inter', system-ui, -apple-system, Segoe UI, Roboto, Arial">Memória Coder — Naruto</text>
    <text x="0" y="120" fill="#9ca3af" font-size="22" font-family="'Inter', system-ui, -apple-system, Segoe UI, Roboto, Arial">Jogo da Memória em React + Vite com animação 3D e tema Naruto</text>
    <g transform="translate(0,165)">
      <rect x="0" y="0" rx="10" width="300" height="46" fill="#1f2937" stroke="#374151"/>
      <text x="18" y="30" fill="#d1d5db" font-size="18" font-family="'Inter', system-ui">Hooks modernos • Componentização • CSS 3D</text>
    </g>
  </g>
  <g transform="translate(980,70)">
    <circle cx="60" cy="60" r="60" fill="url(#o)" opacity="0.12"/>
    <circle cx="60" cy="60" r="44" fill="none" stroke="#f59e0b" stroke-width="2" opacity="0.6"/>
    <path d="M60 35c-12 0-22 10-22 22 0 9 6 17 15 21-2-3-3-6-3-10 0-10 8-18 18-18 4 0 7 1 10 3-4-9-12-15-22-15z" fill="#f59e0b" opacity="0.85"/>
  </g>
</svg>
