<?xml version="1.0" encoding="utf-8"?>
<!-- Generator: Adobe Illustrator 17.0.0, SVG Export Plug-In . SVG Version: 6.00 Build 0)  -->
<!DOCTYPE svg PUBLIC "-//W3C//DTD SVG 1.1//EN" "http://www.w3.org/Graphics/SVG/1.1/DTD/svg11.dtd">
<svg version="1.1" id="Layer_1" xmlns="http://www.w3.org/2000/svg" xmlns:xlink="http://www.w3.org/1999/xlink" x="0px" y="0px"
	 width="600px" height="600px" viewBox="0 0 600 600" enable-background="new 0 0 600 600" xml:space="preserve">
<g>
	<g>
		<path fill="#020202" d="M451.64,142.055c-0.227-2.412-1.024-4.671-1.985-6.858c-2.307-5.251-5.831-9.501-10.632-12.691
			c-3.593-2.387-7.253-4.649-11.189-6.428c-2.986-1.349-6.063-2.442-9.26-3.205c-3.461-0.826-6.945-1.478-10.51-1.515
			c-4-0.042-8.001-0.044-12.001,0.009c-6.935,0.092-13.875,0.399-20.769-0.661c-1.122-0.173-2.425-0.256-3.282-0.878
			c-5.592-4.06-9.238-9.522-11.035-16.188c-0.494-1.831-0.719-3.734-1.188-5.574c-0.618-2.429-0.682-4.923-0.914-7.388
			c-0.358-3.803-0.391-7.636-0.692-11.446c-0.209-2.651-0.646-5.284-0.961-7.927c-0.105-0.879-0.062-1.783-0.238-2.645
			c-0.246-1.212-0.643-2.392-0.958-3.591c-0.83-3.154-2.181-6.083-3.823-8.885c-2.914-4.971-6.695-9.185-11.218-12.738
			c-3.26-2.561-6.793-4.66-10.639-6.234c-2.177-0.891-4.368-1.715-6.686-2.163c-1.651-0.319-3.286-0.855-4.948-0.951
			c-4.345-0.253-8.708-0.443-13.006,0.57c-1.549,0.365-3.122,0.656-4.638,1.128c-1.558,0.486-3.069,1.13-4.585,1.745
			c-6.871,2.787-13.591,5.874-19.966,9.696c-9.007,5.4-17.323,11.654-24.558,19.306c-5.6,5.922-10.292,12.461-13.778,19.846
			c-0.196,0.415-0.269,0.789,0.13,1.06c0.452,0.306,0.852,0.142,1.116-0.318c0.22-0.384,0.363-0.822,0.629-1.167
			c2.475-3.209,5.171-6.224,8.101-9.025c0.189-0.18,0.448-0.286,0.675-0.427c-0.552,1.201-1.274,2.213-1.86,3.298
			c-2.32,4.296-4.169,8.809-6.056,13.303c-0.172,0.41-0.204,0.809,0.22,1.054c0.469,0.271,0.854,0.088,1.115-0.365
			c0.089-0.154,0.176-0.311,0.238-0.476c0.928-2.482,2.633-4.509,3.958-6.758c0.029-0.049,0.134-0.052,0.289-0.107
			c-0.038,0.212-0.036,0.388-0.102,0.534c-0.875,1.93-1.76,3.855-2.643,5.781c-0.198,0.431-0.321,0.905,0.15,1.187
			c0.517,0.309,0.66-0.223,0.875-0.534c0.933-1.352,1.863-2.707,2.802-4.055c0.122-0.175,0.292-0.316,0.44-0.473
			c-0.415,1.068-0.693,2.173-1.641,2.871c-0.387,0.285-0.455,0.692-0.155,1.048c0.284,0.337,0.67,0.381,1.072,0.101
			c0.252-0.175,0.574-0.252,0.818-0.436c1.02-0.766,1.808-0.423,2.681,0.35c3.296,2.918,6.645,5.776,9.969,8.663
			c0.259,0.225,0.475,0.499,0.685,0.721c-0.794,1.981-3.888,7.427-5.114,9.119c-0.379,0.523-0.821,0.716-1.453,0.753
			c-2.928,0.172-5.852,0.472-8.788,0.191c-2.784-0.267-5.567-0.535-8.346-0.844c-1.451-0.161-2.893-0.402-4.335-0.628
			c-1.575-0.246-3.155-0.474-4.718-0.784c-2.214-0.439-4.414-0.947-6.62-1.425c-2.379-0.515-4.757-1.035-7.139-1.541
			c-1.214-0.258-2.43-0.511-3.652-0.729c-1.436-0.256-2.876-0.495-4.32-0.7c-2.368-0.335-4.74-0.642-7.112-0.946
			c-0.484-0.062-0.976-0.051-1.463-0.088c-1.726-0.13-3.453-0.392-5.176-0.369c-2.125,0.029-4.249,0.27-6.369,0.465
			c-1.809,0.167-3.635,0.28-5.41,0.632c-2.209,0.438-4.401,1.012-6.554,1.679c-6.188,1.917-11.982,4.69-17.331,8.349
			c-1.091,0.746-2.018,1.736-2.997,2.639c-0.144,0.133-0.156,0.408-0.23,0.617c0.08,0.09,0.16,0.181,0.24,0.271
			c3.088-2.522,6.589-4.258,10.258-5.67c3.644-1.403,7.356-2.621,11.184-3.368c3.842-0.75,7.724-1.352,11.701-0.961
			c-8.602,0.763-16.338,3.843-23.374,8.691c-7.056,4.862-12.324,11.338-16.72,18.869c1.841-0.266,3.428-0.402,4.971-0.739
			c2.294-0.502,4.612-0.475,6.901-0.275c1.495,0.131,3.134,0.446,3.397,2.528c0.11,0.869,0.754,1.039,1.622,0.639
			c2.571-1.185,5.113-2.44,7.725-3.526c2.443-1.015,4.948-1.881,7.537-2.484c1.895-0.441,3.768-0.979,5.666-1.41
			c1.426-0.323,2.876-0.544,4.316-0.81c-1.203,0.721-2.498,1.146-3.735,1.7c-4.658,2.089-9.183,4.441-13.539,7.105
			c-2.316,1.416-4.605,2.885-6.229,5.145c-0.185,0.257-0.323,0.548-0.582,0.994c2.875-1.298,5.469-2.606,8.164-3.65
			c2.731-1.058,5.484-2.102,8.351-2.789c-1.447,1.051-2.976,1.947-4.402,2.984c-1.792,1.305-3.506,2.718-5.236,4.107
			c-0.242,0.194-0.378,0.52-0.772,1.083c0.749-0.039,1.161-0.021,1.56-0.087c2.291-0.375,4.603-0.344,6.628,0.801
			c2.147,1.214,4.1,2.77,6.238,4.246c-0.535,0.749-0.961,1.416-1.458,2.026c-2.023,2.481-4.151,4.882-6.08,7.434
			c-1.63,2.156-3.142,4.418-4.518,6.745c-1.74,2.943-2.513,6.241-2.965,9.605c-0.167,1.248-0.119,2.505,0.75,3.541
			c0.656,0.781,1.368,1.514,2.053,2.271c1.013,1.121,2.073,2.204,3.023,3.375c1.847,2.279,3.589,4.643,5.769,6.637
			c2.64,2.414,5.551,4.463,8.653,6.209c3.709,2.088,7.514,4.006,11.273,6.006c0.569,0.303,1.109,0.252,1.65-0.042
			c0.897-0.489,1.793-0.978,2.685-1.476c6.84-3.818,13.945-7.161,20.433-11.354c0.807,0.291,1.529,0.696,2.291,0.8
			c2.592,0.352,5.193,0.653,7.799,0.869c3.851,0.319,7.709,0.547,11.564,0.82c0.113,0.008,0.22,0.083,0.374,0.145
			c-0.096,0.154-0.136,0.29-0.227,0.355c-2.537,1.815-5.243,3.317-8.165,4.429c-3.235,1.231-6.521,2.256-9.938,2.887
			c-2.578,0.476-5.137,0.999-7.774,0.955c-1.097-0.019-2.194-0.003-3.297-0.003c0.062,0.946,0.05,0.971,0.608,1.249
			c0.794,0.396,1.59,0.801,2.419,1.115c3.43,1.299,6.874,2.561,10.31,3.845c0.868,0.324,1.723,0.682,2.704,1.073
			c-0.915,0.563-1.607,1.044-2.35,1.428c-0.747,0.386-1.542,0.684-2.322,1.003c-0.573,0.234-1.176,0.403-1.725,0.681
			c-0.2,0.101-0.282,0.434-0.419,0.661c0.069,0.085,0.137,0.17,0.206,0.255c10.248-1.555,19.444-5.752,28.106-11.374
			c-0.099,0.301-0.237,0.554-0.415,0.775c-2.526,3.15-5.511,5.773-8.913,7.959c-2.69,1.729-5.295,3.589-7.91,5.431
			c-0.262,0.184-0.468,0.659-0.438,0.973c0.021,0.22,0.464,0.464,0.764,0.576c0.323,0.12,0.718,0.038,1.048,0.148
			c2.714,0.906,5.419,1.835,8.252,2.8c-0.259,0.301-0.443,0.533-0.646,0.747c-2.811,2.973-5.645,5.925-8.421,8.931
			c-0.585,0.634-1.193,1.166-1.95,1.564c-8.846,4.645-17.644,9.377-26.188,14.565c-5.628,3.417-11.108,7.054-16.197,11.244
			c-1.395,1.149-2.656,2.461-4.029,3.746c-0.113-0.076-0.288-0.203-0.473-0.317c-0.866-0.536-1.716-1.1-2.606-1.593
			c-1.488-0.824-3.725-0.144-3.604,2.151c0.052,0.997,0.157,1.992,0.245,3.078c-0.302-0.142-0.598-0.301-0.907-0.425
			c-3.352-1.345-5.857-3.61-7.562-6.805c-0.41-0.768-1.04-1.431-1.627-2.089c-0.526-0.589-1.24-0.641-1.971-0.445
			c-2.315,0.623-4.58,1.382-6.6,2.714c-0.49,0.323-0.859,0.276-1.439,0.146c-1.044-0.234-2.204-0.281-3.251-0.075
			c-0.923,0.181-1.751,0.826-2.63,1.246c-2.402,1.148-4.823,2.242-7.501,2.608c-0.34,0.046-0.667,0.24-0.981,0.403
			c-0.446,0.231-0.629,0.614-0.515,1.112c0.4,1.752,1.495,2.966,3.155,3.495c2.535,0.808,5.104,0.431,7.619-0.211
			c1.078-0.275,1.555-0.155,2.188,1.039c-1.835,0-3.606-0.024-5.376,0.01c-0.887,0.017-1.786,0.06-2.654,0.228
			c-2.23,0.43-3.804,1.654-4.372,3.942c-0.399,1.604-0.675,2.06-1.986,3.128c-1.096,0.892-1.624,1.994-1.113,3.4
			c0.36,0.99,0.734,1.982,1.197,2.926c0.802,1.633,1.707,3.214,2.503,4.85c0.219,0.449,0.334,1.032,0.263,1.52
			c-0.114,0.785,0.341,1.071,0.888,1.277c1.825,0.685,3.818-0.33,4.335-2.214c0.243-0.885,0.391-1.795,0.615-2.849
			c1.317,0.326,2.65,0.603,3.949,0.996c1.01,0.305,2.049,0.632,2.949,1.163c2.186,1.289,4.137,2.9,5.963,4.674
			c1.449,1.408,3.197,2.311,5.135,2.962c1.229,0.413,2.449,0.465,3.673,0.491c1.949,0.04,3.915,0.02,5.85-0.195
			c1.795-0.2,3.569-0.643,5.329-1.075c0.557-0.137,0.926-0.003,1.355,0.258c1.136,0.692,2.254,1.424,3.438,2.025
			c2.54,1.29,5.251,2.131,8.007,2.819c0.848,0.212,1.735,0.456,2.588,0.405c0.859-0.052,1.752-0.341,2.534-0.723
			c1.912-0.932,3.785-1.947,5.643-2.983c2.596-1.447,5.28-2.774,7.719-4.455c4.481-3.089,9.251-5.611,14.182-7.86
			c3.985-1.817,7.994-3.581,11.992-5.371c3.351-1.501,6.662-3.1,10.06-4.484c5.047-2.056,10.043-4.204,14.845-6.791
			c4.355-2.346,8.215-5.268,11.242-9.245c0.991-1.302,2.263-2.388,3.318-3.646c1.069-1.275,2.526-1.648,4.017-2.071
			c1.525-0.433,3.069-0.882,4.499-1.549c1.717-0.801,3.331-1.828,4.977-2.779c2.296-1.327,4.581-2.675,6.919-4.042
			c0.968,0.803,1.916,1.59,2.909,2.414c-0.365,0.642-0.628,1.21-0.985,1.709c-0.664,0.927-0.827,1.923-0.673,3.033
			c0.121,0.878,0.153,1.77,0.186,2.657c0.081,2.17-0.063,4.355,0.47,6.493c0.264,1.059,0.505,2.124,0.768,3.237
			c-2.854,1.324-4.977,3.31-5.849,6.472c-0.127,0.461-0.709,0.892-1.184,1.143c-1.53,0.807-3.116,1.506-4.665,2.276
			c-7.742,3.852-15.107,8.297-21.759,13.862c-4.121,3.448-7.819,7.257-10.4,12.035c-0.167,0.31-0.363,0.622-0.61,0.869
			c-1.696,1.7-3.361,3.434-5.129,5.056c-1.889,1.734-3.487,3.68-4.694,5.93c-0.641,1.195-1.327,2.406-1.04,3.883
			c0.047,0.244-0.186,0.583-0.364,0.824c-0.974,1.324-1.948,2.649-2.964,3.94c-1.572,1.998-3.122,3.994-3.68,6.566
			c-0.11,0.505-0.412,0.976-0.665,1.441c-1.527,2.809-3.137,5.575-4.578,8.426c-1.299,2.571-2.539,5.185-3.586,7.866
			c-1.371,3.509-2.499,7.101-3.062,10.86c-0.406,2.707-0.64,5.388-0.037,8.078c0.356,1.589,0.766,3.167,1.198,4.738
			c0.952,3.456,1.896,6.916,2.915,10.353c1.066,3.597,3.022,6.652,6.142,8.78c3.705,2.527,7.512,4.906,11.297,7.315
			c2.081,1.325,4.38,2.219,6.802,2.549c3.25,0.443,6.457-0.05,9.535-1.194c3.455-1.285,6.713-2.983,9.859-4.895
			c2.617-1.59,5.178-3.277,7.837-4.793c4.06-2.314,7.782-5.007,10.512-8.869c1.152-1.631,2.139-3.379,3.293-5.008
			c1.025-1.447,1.993-3.031,3.335-4.126c1.033-0.843,1.621-1.794,2.157-2.896c0.329-0.678,0.636-1.375,1.046-2.002
			c0.276-0.422,0.653-0.861,1.091-1.081c2.943-1.476,4.442-3.965,5.044-7.078c0.259-1.337,0.611-2.548,1.737-3.477
			c0.92-0.759,1.763-1.64,2.505-2.574c0.587-0.739,0.865-1.729,1.47-2.447c0.646-0.768,1.589-1.28,2.268-2.026
			c0.926-1.016,1.715-2.155,2.581-3.228c0.534-0.661,1.101-1.295,1.831-2.148c0.15,1.138,0.232,1.964,0.372,2.78
			c0.24,1.394,0.528,2.78,0.768,4.174c0.043,0.248-0.011,0.527-0.077,0.777c-0.521,1.971-1.023,3.948-1.595,5.904
			c-0.982,3.358-2.006,6.704-3.019,10.053c-0.859,2.84-1.719,5.679-2.592,8.514c-0.991,3.217-2.015,6.424-2.991,9.645
			c-0.847,2.795-1.652,5.602-2.466,8.407c-0.865,2.979-1.738,5.955-2.571,8.943c-0.714,2.559-1.366,5.135-2.072,7.696
			c-0.101,0.367-0.307,0.736-0.553,1.028c-0.801,0.947-1.655,1.848-2.46,2.791c-0.191,0.223-0.309,0.53-0.392,0.819
			c-1.443,4.984-3.171,9.861-5.135,14.667c-2.717,6.647-7.221,12.107-11.465,17.745c-1.2,1.594-2.666,2.986-3.876,4.572
			c-2.501,3.277-4.395,6.877-5.272,10.942c-0.28,1.297-0.435,2.622-0.646,3.935c-0.384,2.384-0.387,4.774-0.033,7.159
			c0.292,1.965,0.237,3.749-0.902,5.588c-2.548,4.114-4.825,8.395-7.243,12.591c-3.216,5.581-6.419,11.17-9.714,16.705
			c-1.156,1.943-2.564,3.736-3.859,5.596c-0.381,0.548-0.838,0.841-1.573,0.724c-0.997-0.159-1.971,0.064-2.788,0.662
			c-0.926,0.678-1.945,1.317-2.643,2.196c-1.377,1.735-2.747,3.524-3.779,5.472c-1.468,2.772-3.482,5.033-5.751,7.111
			c-2.721,2.493-5.522,4.9-8.218,7.419c-2.524,2.358-4.656,5.053-5.834,8.336c-0.473,1.318-1.26,2.308-2.148,3.301
			c-1.333,1.49-2.68,2.97-3.93,4.528c-0.671,0.837-1.33,1.62-2.235,2.239c-1.765,1.206-3.098,2.777-3.651,4.921
			c-0.15,0.583-0.36,1.197-0.708,1.676c-1.462,2.015-2.991,3.98-4.484,5.973c-0.178,0.238-0.422,0.537-0.404,0.792
			c0.06,0.874,0.105,1.778,0.369,2.602c0.666,2.077,2.02,3.75,3.521,5.272c4.42,4.477,9.556,7.93,15.33,10.42
			c2.135,0.921,4.362,1.532,6.727,1.299c0.557-0.055,1.134-0.189,1.64-0.422c1.536-0.704,2.599-1.972,3.698-3.204
			c0.974-1.093,1.95-2.199,3.043-3.166c2.106-1.862,3.134-4.259,3.558-6.934c0.174-1.099,0.488-2.027,1.232-2.859
			c0.618-0.69,1.173-1.45,1.667-2.236c1.422-2.262,2.261-4.792,3.267-7.246c0.907-2.212,1.815-4.427,2.839-6.585
			c1.098-2.316,2.914-4.128,4.553-6.057c1.739-2.046,3.206-4.258,3.886-6.897c0.286-1.11,0.514-2.237,0.706-3.367
			c0.106-0.621,0.43-0.909,1.007-1.076c0.8-0.232,1.584-0.519,2.364-0.813c0.612-0.231,1.288-0.399,1.796-0.781
			c3.025-2.275,5.489-5.068,7.278-8.405c1.141-2.128,1.977-4.379,1.609-6.876c-0.091-0.615,0.187-1.002,0.575-1.403
			c2.441-2.526,4.865-5.069,7.305-7.596c3.862-3.998,7.734-7.987,11.6-11.98c1.794-1.853,3.586-3.708,5.378-5.564
			c0.376-0.389,0.769-0.651,1.363-0.719c2.963-0.34,5.931-0.495,8.913-0.47c2.619,0.022,4.895-0.899,6.619-2.863
			c1.55-1.765,3.066-3.588,4.363-5.541c2.899-4.364,5.297-9.021,7.551-13.746c2.232-4.677,4.431-9.371,6.62-14.069
			c0.993-2.132,2.006-4.225,3.723-5.918c0.749-0.739,1.334-1.668,1.891-2.574c1.359-2.21,2.392-4.564,2.559-7.19
			c0.051-0.805,0.194-1.468,0.815-2.003c0.199-0.171,0.344-0.407,0.507-0.618c8.183-10.59,16.389-21.163,24.54-31.777
			c5.416-7.052,10.586-14.284,15.532-21.674c5.04-7.531,9.779-15.241,13.936-23.3c2.742-5.316,5.278-10.727,7.404-16.317
			c2.124-5.584,3.747-11.33,5.017-17.163c0.555-2.551,0.892-5.16,1.167-7.76c0.271-2.56,0.37-5.141,0.474-7.715
			c0.028-0.682,0.254-1.133,0.703-1.629c0.644-0.712,1.253-1.502,1.677-2.357c0.985-1.983,0.581-4.08,0.282-6.148
			c-0.107-0.743-0.288-1.478-0.364-2.224c-0.171-1.677-0.361-3.357-0.428-5.04c-0.093-2.331-0.86-4.326-2.625-5.864
			c0.106-0.479,0.248-0.903,0.289-1.336c0.216-2.301,0.417-4.603,0.6-6.907c0.081-1.019,0.053-2.048,0.162-3.064
			c0.648-6.024,0.579-12.078,0.736-18.119c0.088-3.417-0.062-6.844-0.219-10.261c-0.224-4.883-0.441-9.772-0.873-14.64
			c-0.361-4.065-1.01-8.106-1.568-12.153c-0.175-1.27-0.458-2.527-0.715-3.785c-0.266-1.302-0.539-2.602-0.844-3.895
			c-0.661-2.801-1.36-5.593-2.012-8.396c-0.386-1.659-1.289-3.181-0.236-5.064c0.908-1.625,1.273-3.565,1.801-5.389
			c0.605-2.088,1.051-4.212,1.019-6.407c-0.003-0.221,0.017-0.445,0.049-0.665c0.337-2.251,0.351-4.497,0.158-6.77
			c-0.27-3.184-0.475-6.368-1.311-9.471c-0.02-0.072,0.062-0.172,0.161-0.422c0.439,1.157,0.872,2.125,1.175,3.132
			c0.689,2.287,1.345,4.586,1.955,6.895c0.373,1.409,0.757,2.833,0.924,4.275c0.31,2.687,0.724,5.365,0.667,8.093
			c-0.07,3.377,0.059,6.758-0.52,10.111c-0.123,0.711-0.287,1.465,0.119,2.378c0.43-0.317,0.812-0.52,1.091-0.818
			c0.727-0.779,1.395-1.612,2.111-2.401c3.036-3.35,4.918-7.245,5.478-11.738c0.304-2.438,0.219-4.88-0.199-7.309
			c-0.263-1.529-0.612-3.058-0.697-4.6c-0.12-2.197-0.761-4.283-1.336-6.35c-0.949-3.407-2.187-6.735-3.782-9.919
			c-2.369-4.73-5.383-8.99-9.066-12.777c-4.622-4.753-9.984-8.55-15.647-11.938c-4.493-2.689-9.154-5.064-13.905-7.266
			c-1.339-0.62-2.657-1.286-4.285-2.077c0.573-0.128,0.815-0.194,1.061-0.236c3.374-0.569,6.778-0.906,10.189-1.112
			c2.479-0.15,4.977-0.277,7.452-0.142c2.786,0.152,5.567,0.538,8.329,0.959c2.051,0.313,4.116,0.694,6.09,1.313
			c2.824,0.884,5.583,1.983,8.349,3.045c3.961,1.521,7.134,4.117,9.784,7.379c4.284,5.275,6.547,11.447,7.572,18.055
			c0.432,2.786,0.885,5.63,0.618,8.497c-0.037,0.397,0.078,0.808,0.122,1.213c0.158,0.005,0.316,0.01,0.475,0.015
			c2.047-6.628,3.221-13.387,2.938-20.488c1.37,2.189,2.739,4.379,4.112,6.573C451.9,142.943,451.68,142.474,451.64,142.055z"/>
	</g>
	<path fill="#5B6290" d="M354.858,424.361c0.327-1.355,0.655-2.709,0.995-4.115c-0.628-0.167-0.905,0.069-1.055,0.472
		c-0.714,1.918-1.378,3.857-1.555,5.909c-0.429,4.972-2.263,9.273-5.917,12.75c-0.404,0.385-0.701,0.919-0.943,1.432
		c-1.833,3.893-3.615,7.809-5.46,11.696c-2.705,5.696-5.429,11.386-8.652,16.813c-1.634,2.752-3.397,5.417-5.727,7.669
		c-1.308,1.264-2.75,2.01-4.602,2.08c-3.373,0.127-6.745,0.323-10.113,0.555c-3.057,0.211-6.105,0.579-9.164,0.747
		c-3.105,0.17-6.218,0.181-9.328,0.26c-0.089,0.002-0.178-0.007-0.266-0.014c-2.239-0.183-2.701-0.56-3.13-2.752
		c-0.468-2.393-0.898-4.794-1.316-7.196c-0.509-2.925-1.057-5.846-1.454-8.786c-0.213-1.578-0.148-3.193-0.207-4.792
		c-0.104-2.809,0.072-5.611,0.74-8.333c0.634-2.585,1.694-5.036,3.079-7.322c1.549-2.556,3.381-4.894,5.5-7.012
		c0.589-0.588,0.996-1.356,1.503-2.029c1.659-2.201,3.372-4.363,4.981-6.6c2.735-3.802,4.779-7.986,6.492-12.325
		c1.168-2.96,2.19-5.978,3.247-8.981c0.293-0.831,0.513-1.693,0.696-2.556c0.121-0.571,0.398-0.957,1.047-1.337
		c-0.092,0.605-0.135,1.065-0.235,1.511c-0.448,1.987-1.014,3.954-1.338,5.961c-0.246,1.522-0.198,3.093-0.259,4.643
		c-0.006,0.142,0.142,0.289,0.32,0.627c0.239-0.363,0.461-0.568,0.519-0.812c0.357-1.506,0.675-3.021,1.011-4.531
		c0.326-1.462,0.658-2.923,0.987-4.385c0.204-0.907,0.383-1.82,0.611-2.721c0.747-2.959,1.51-5.913,2.269-8.869
		c0.593-2.307,1.14-4.628,1.796-6.917c0.815-2.847,1.735-5.663,2.583-8.501c0.822-2.754,1.585-5.526,2.421-8.276
		c0.797-2.621,1.672-5.219,2.484-7.836c0.654-2.107,1.257-4.229,1.896-6.341c0.666-2.203,1.364-4.397,2.017-6.605
		c0.475-1.606,0.896-3.229,1.349-4.841c0.453-1.614,0.927-3.221,1.371-4.838c0.457-1.663,0.911-3.328,1.327-5.002
		c0.554-2.233,1.101-4.469,1.59-6.717c0.31-1.426,0.511-2.876,0.76-4.316c0.271-1.57,0.534-3.142,0.813-4.71
		c0.459-2.575,0.433-5.103-0.722-7.787c-0.162,0.464-0.296,0.716-0.33,0.98c-0.051,0.395-0.045,0.799-0.038,1.199
		c0.047,2.855-0.387,5.661-0.858,8.463c-0.249,1.485-0.469,2.975-0.741,4.456c-0.143,0.783-0.37,1.55-0.557,2.325
		c-0.464,1.923-0.926,3.847-1.623,5.793c-0.134-0.803-0.276-1.604-0.396-2.409c-0.046-0.307,0.014-0.637-0.07-0.929
		c-0.287-0.988-0.101-1.805,0.67-2.525c0.25-0.233,0.329-0.649,0.522-1.057c-0.822-0.226-1.195,0.243-1.519,0.599
		c-1.611,1.775-3.176,3.592-4.762,5.389c-0.94,1.065-1.881,2.128-2.84,3.175c-0.164,0.179-0.419,0.274-0.78,0.5
		c-0.081-0.828-0.081-1.526-0.225-2.192c-0.498-2.291-1.03-4.576-1.579-6.855c-0.761-3.155-1.921-6.168-3.251-9.126
		c-2.581-5.741-6.08-10.827-10.614-15.205c-3.587-3.464-7.671-6.162-12.251-8.117c-3.024-1.29-6.153-2.21-9.411-2.687
		c-0.332-0.049-0.655-0.259-0.95-0.446c-2.05-1.303-4.356-1.769-6.711-1.82c-2.883-0.062-5.772,0.099-8.658,0.159
		c-0.264,0.005-0.528-0.022-0.772-0.034c-0.333-0.506,0.089-0.766,0.296-1.071c2.337-3.451,5.212-6.406,8.402-9.07
		c6.031-5.036,12.663-9.149,19.621-12.755c2.152-1.115,4.354-2.132,6.647-3.25c-0.259,4.467,1.9,7.535,5.237,9.942
		c3.15,2.272,6.68,3.855,10.172,5.504c3.169,1.496,6.39,2.895,9.236,4.988c0.465,0.342,0.949,0.679,1.336,1.1
		c0.712,0.775,1.44,1.167,2.596,1.254c1.154,0.087,2.478,0.433,2.957,2.027c0.258,0.859,1.033,1.682,1.781,2.254
		c3.709,2.836,7.588,5.425,11.738,7.589c4.175,2.177,8.496,3.998,13.015,5.33c2.502,0.737,5.012,1.451,7.537,2.099
		c1.153,0.296,2.349,0.443,3.533,0.598c1.889,0.247,3.783,0.461,5.677,0.656c1.765,0.182,3.534,0.446,5.302,0.457
		c3.689,0.023,7.384,0.008,11.066-0.192c2.739-0.149,5.474-0.531,8.186-0.964c2.22-0.354,4.412-0.899,6.6-1.425
		c2.233-0.537,4.467-1.088,6.661-1.761c1.251-0.384,2.422-1.026,3.63-1.548c0.193-0.083,0.395-0.146,0.802-0.293
		c0,0.647-0.005,1.154,0.001,1.66c0.025,2.181-0.065,4.348-0.453,6.506c-0.306,1.697-0.378,3.437-0.688,5.134
		c-0.406,2.222-0.892,4.433-1.439,6.625c-0.536,2.147-1.162,4.274-1.804,6.393c-1.311,4.33-2.998,8.518-4.805,12.662
		c-2.699,6.194-5.753,12.212-9.222,18.003c-3.104,5.182-6.303,10.314-9.642,15.348c-5.58,8.412-11.587,16.524-17.74,24.524
		c-6.885,8.95-13.839,17.847-20.767,26.764c-0.127,0.163-0.302,0.289-0.455,0.432C355.009,424.448,354.934,424.405,354.858,424.361z
		 M308.692,352.284c-0.394-2.345-1.255-4.531-2.307-6.632c-2.723-5.437-6.531-10.034-11.078-14.039
		c-5.104-4.495-10.746-8.157-16.98-10.885c-4.684-2.049-9.514-3.617-14.636-4.11c-1.591-0.153-3.197-0.39-4.783-0.312
		c-2.253,0.111-4.508,0.363-6.701,0.987c-1.262,0.359-2.272,0.874-2.914,2.176c-1.529,3.098-3.308,6.073-4.816,9.18
		c-2.318,4.774-4.367,9.65-5.374,14.918c-0.411,2.151-0.644,4.304-0.7,6.471c-0.036,1.41,0.108,2.855,0.401,4.236
		c0.439,2.073,1.063,4.109,1.639,6.152c0.686,2.43,1.417,4.847,2.108,7.276c0.989,3.473,2.657,6.53,5.712,8.579
		c3.797,2.547,7.658,5,11.545,7.408c2.135,1.323,4.564,2.009,7.034,2.24c2.536,0.237,5.057-0.305,7.457-1.117
		c4.137-1.4,7.931-3.524,11.63-5.826c2.218-1.381,4.35-2.884,6.674-4.113c4.764-2.52,8.611-6.062,11.426-10.721
		c1.26-2.085,2.697-4.074,4.195-5.997c0.7-0.898,1.251-1.707,1.119-2.905C309.123,354.262,308.86,353.28,308.692,352.284z"/>
	<path fill="#2F3350" d="M447.913,135.598c-0.787-1.262-1.586-2.518-2.357-3.79c-0.391-0.645-0.368-0.659-1.242-0.847
		c1.656,5.727,1.492,11.46,0.302,17.246c-0.065-0.262-0.175-0.522-0.187-0.787c-0.121-2.743-1.026-5.308-1.866-7.87
		c-0.957-2.914-2.326-5.655-4.01-8.23c-2.7-4.131-6.147-7.455-10.506-9.809c-2.86-1.545-5.93-2.558-9.014-3.521
		c-1.772-0.553-3.563-1.065-5.374-1.466c-1.55-0.343-3.14-0.512-4.715-0.737c-1.273-0.183-2.549-0.452-3.827-0.479
		c-3.468-0.072-6.945-0.161-10.406-0.002c-2.516,0.116-5.017,0.603-7.52,0.951c-1.316,0.183-2.633,0.381-3.935,0.646
		c-2.386,0.487-4.77,0.993-7.138,1.558c-3.228,0.771-6.447,1.582-9.659,2.42c-2.311,0.603-4.592,1.317-6.906,1.906
		c-2.099,0.534-4.214,1.015-6.34,1.426c-1.828,0.354-3.679,0.595-5.525,0.85c-1.817,0.251-3.622,0.219-5.443-0.11
		c-1.577-0.285-3.104-0.638-4.579-1.296c-1.839-0.821-3.279-2.105-4.563-3.595c-0.733-0.85-0.7-0.94-0.099-1.851
		c1.272-1.928,2.505-3.884,3.831-5.774c0.418-0.596,1.036-1.085,1.642-1.509c2.375-1.661,4.364-3.652,5.533-6.345
		c0.797-1.835,1.223-3.758,0.412-5.682c-0.562-1.334-0.29-2.563,0.079-3.827c0.746-2.556,1.236-5.153,1.548-7.803
		c0.32-2.717,0.087-5.408-0.023-8.11c-0.035-0.856-0.381-1.576-1.145-2.402c-0.05,0.565-0.103,0.889-0.105,1.213
		c-0.02,3.021,0.024,6.044-0.074,9.063c-0.041,1.276-0.307,2.559-0.598,3.81c-0.451,1.938-0.985,3.857-1.528,5.772
		c-1.18,4.16-2.954,8.074-5.039,11.85c-3.49,6.321-7.767,12.101-12.265,17.725c-4.444,5.555-8.956,11.056-13.373,16.632
		c-4.143,5.231-7.938,10.713-11.449,16.389c-0.372,0.601-0.719,1.218-1.083,1.825c-0.018,0.03-0.079,0.034-0.229,0.092
		c0.041-0.321,0.047-0.598,0.116-0.859c0.712-2.692,1.393-5.394,2.164-8.069c0.771-2.679,1.513-5.376,2.486-7.983
		c1.205-3.229,2.577-6.4,3.984-9.548c1.721-3.851,3.719-7.564,5.97-11.137c0.233-0.369,0.759-0.732,0.076-1.386
		c-0.329,0.306-0.704,0.579-0.98,0.93c-0.384,0.486-0.7,1.026-1.034,1.55c-0.779,1.223-1.809,2.128-3.078,2.864
		c-1.181,0.685-2.212,1.631-3.306,2.465c-0.332,0.253-0.659,0.514-1.165,0.593c0.285-0.365,0.56-0.737,0.855-1.093
		c6.475-7.82,12.45-15.99,17.252-24.96c2.238-4.18,4.297-8.454,5.752-12.985c0.811-2.526,1.748-5.031,2.298-7.616
		c0.523-2.459,1.282-4.918,1.081-7.492c-0.035-0.45-0.143-0.894-0.218-1.34c-0.091,0.004-0.182,0.008-0.272,0.012
		c-0.626,2.762-1.179,5.543-1.898,8.28c-0.73,2.778-1.511,5.552-2.476,8.255c-0.965,2.7-2.185,5.309-3.526,7.938
		c-0.036-0.263-0.13-0.532-0.1-0.787c0.382-3.219-0.411-6.255-1.422-9.257c-0.198-0.587-0.422-1.165-0.645-1.743
		c-0.284-0.735-0.293-1.484-0.056-2.22c0.84-2.612,1.716-5.213,2.549-7.827c0.672-2.107,1.254-4.243,1.969-6.335
		c0.414-1.211,0.989-2.369,1.531-3.533c0.411-0.883,0.876-1.739,0.826-2.781c-0.515-0.165-0.735,0.068-0.953,0.465
		c-2.806,5.095-5.624,10.184-8.45,15.268c-0.669,1.203-1.359,2.395-2.075,3.57c-0.618,1.015-0.756,1.051-1.828,0.719
		c-1.141-0.354-2.279-0.719-3.415-1.088c-0.073-0.024-0.121-0.124-0.232-0.244c0.216-1.13,1.28-2.054,1.136-3.569
		c-0.349,0.259-0.585,0.361-0.709,0.541c-0.404,0.584-0.783,1.186-1.142,1.799c-0.478,0.816-1.114,1.124-2.096,0.996
		c-2.14-0.279-4.295-0.445-6.534-0.666c0.406-1.195,0.817-2.433,1.247-3.664c1.064-3.049,2.157-6.089,3.201-9.146
		c1.192-3.489,2.71-6.82,4.68-9.941c0.326-0.517,0.317-0.523,0.023-1.269c-1.135,0.978-1.693,2.297-2.489,3.425
		c-0.845,1.198-1.652,2.422-2.474,3.637c-0.796,1.177-1.612,2.341-2.378,3.538c-0.762,1.19-1.473,2.412-2.226,3.652
		c-0.107-0.134-0.205-0.218-0.191-0.247c1.218-2.542,1.941-5.336,3.823-7.545c0.186-0.218,0.255-0.534,0.405-0.861
		c-0.563-0.251-0.833,0.086-1.062,0.376c-1.319,1.674-2.748,3.279-3.899,5.063c-2.408,3.733-4.665,7.563-6.988,11.351
		c-0.441,0.719-0.921,1.416-1.344,2.146c-0.348,0.6-0.741,0.686-1.433,0.513c-1.579-0.394-3.186-0.733-4.802-0.91
		c-2.603-0.285-5.222-0.416-7.833-0.63c-0.343-0.028-0.679-0.156-1.207-0.283c0.959-2,1.805-3.947,2.803-5.811
		c3.086-5.762,6.559-11.287,10.322-16.631c0.236-0.335,0.403-0.718,0.669-1.198c-0.764-0.059-0.971,0.357-1.258,0.669
		c-1.29,1.403-2.616,2.774-3.88,4.201c-1.533,1.73-3.05,3.477-4.516,5.262c-3.023,3.681-5.704,7.607-8.249,11.63
		c-0.859,1.358-1.309,1.485-2.873,0.935c-3.589-1.262-7.178-2.523-10.759-3.806c-0.695-0.249-1.355-0.594-2.163-0.953
		c0.643-1.032,1.212-1.971,1.807-2.894c2.996-4.646,6.414-8.962,10.17-13.015c0.371-0.4,0.65-0.885,1.034-1.417
		c-0.732-0.287-0.963,0.163-1.283,0.424c-4.298,3.503-7.495,7.934-10.527,12.501c-1.229,1.851-2.436,3.717-3.609,5.603
		c-0.471,0.758-1.094,1.265-1.905,1.585c-1.184,0.466-2.364,0.943-3.734,1.491c0.742-1.379,1.385-2.602,2.052-3.81
		c1.177-2.13,2.37-4.251,3.551-6.379c0.085-0.152,0.21-0.347,0.175-0.486c-0.057-0.228-0.192-0.48-0.374-0.612
		c-0.084-0.061-0.431,0.087-0.533,0.23c-1.778,2.495-3.536,5.004-5.299,7.51c-0.277,0.393-0.558,0.782-1.011,1.089
		c0.088-0.257,0.158-0.521,0.266-0.77c0.723-1.662,1.468-3.315,2.172-4.985c0.168-0.4,0.261-0.852,0.281-1.284
		c0.009-0.207-0.197-0.55-0.373-0.602c-0.17-0.049-0.51,0.141-0.631,0.322c-0.836,1.257-1.633,2.541-2.445,3.814
		c-0.138,0.216-0.294,0.422-0.617,0.535c0.094-0.269,0.156-0.554,0.285-0.805c3.021-5.872,6.479-11.444,11.124-16.204
		c0.306-0.313,0.471-0.764,0.702-1.151c-0.079-0.089-0.159-0.177-0.238-0.266c-0.287,0.122-0.621,0.187-0.852,0.377
		c-0.478,0.394-0.936,0.824-1.342,1.292c-2.375,2.739-5.264,4.9-8.012,7.223c-0.948,0.801-1.788,1.729-2.679,2.598
		c-0.298,0.291-0.602,0.575-1.093,0.706c0.25-0.394,0.483-0.8,0.753-1.18c4.316-6.078,9.214-11.629,14.828-16.553
		c6.208-5.444,12.958-10.108,20.128-14.175c5.675-3.218,11.588-5.942,17.682-8.262c2.227-0.848,4.491-1.62,6.781-2.275
		c1.436-0.411,2.968-0.476,4.43-0.813c1.841-0.424,3.696-0.395,5.562-0.445c2.957-0.08,5.831,0.397,8.705,0.977
		c5.608,1.131,10.72,3.432,15.385,6.692c6.776,4.735,12.049,10.761,15.243,18.456c0.794,1.912,1.414,3.913,1.922,5.921
		c0.388,1.533,0.495,3.14,0.686,4.72c0.297,2.468,0.574,4.938,0.831,7.411c0.124,1.191,0.19,2.389,0.269,3.584
		c0.158,2.395,0.31,4.79,0.457,7.186c0.07,1.153,0.046,2.318,0.197,3.46c0.309,2.328,0.605,4.667,1.089,6.963
		c1.314,6.231,3.874,11.871,8.233,16.604c0.361,0.392,0.748,0.762,1.134,1.129c0.344,0.327,0.705,0.638,1.008,1.055
		c-2.769-0.65-5.517-1.292-8.126-2.429c-0.054,0.078-0.109,0.157-0.163,0.235c0.356,0.341,0.687,0.713,1.072,1.018
		c1.355,1.073,2.991,1.562,4.607,2.013c2.304,0.642,4.628,1.271,6.984,1.647c2.755,0.44,5.551,0.67,8.337,0.864
		c2.613,0.182,5.238,0.286,7.856,0.264c2.885-0.025,5.767-0.26,8.652-0.355c4.001-0.131,8.001-0.201,11.987,0.322
		c1.888,0.248,3.801,0.347,5.668,0.695c1.777,0.331,3.524,0.848,5.258,1.37c6.051,1.823,11.466,4.892,16.728,8.339
		c4.297,2.815,7.485,6.498,9.818,11.003c0.17,0.328,0.284,0.686,0.425,1.03C448.11,135.497,448.012,135.548,447.913,135.598z
		 M214.409,101.966c-0.47-0.126-0.933-0.301-1.411-0.367c-2.109-0.291-4.236-0.472-6.331-0.839
		c-3.653-0.64-7.351-0.701-11.027-0.758c-4.389-0.068-8.759,0.359-13.078,1.337c-3.212,0.727-6.333,1.659-9.351,2.954
		c-4.192,1.798-8.042,4.167-11.498,7.14c-3.829,3.294-7.177,7.027-9.91,11.293c-0.349,0.545-0.738,1.063-1.108,1.594
		c0.65,0.086,1.144-0.161,1.633-0.152c2.48,0.048,4.918-0.629,7.442-0.182c2.048,0.363,3.71,1.06,4.78,3.03
		c0.924-0.401,1.841-0.821,2.775-1.202c3.159-1.287,6.272-2.712,9.499-3.796c3.349-1.125,6.795-1.961,10.301-2.536
		c2.866-0.47,5.721-0.726,8.61-0.38c0.702,0.084,1.397,0.261,2.082,0.446c0.201,0.054,0.355,0.283,0.806,0.666
		c-0.779,0.072-1.235,0.12-1.692,0.156c-0.749,0.06-1.548-0.036-2.24,0.193c-2.605,0.864-5.251,1.668-7.743,2.799
		c-3.954,1.794-7.799,3.83-11.684,5.776c-0.258,0.129-0.467,0.357-0.7,0.539c0.538,0.054,0.986-0.081,1.414-0.264
		c4.521-1.937,9.308-2.832,14.124-3.602c0.238-0.038,0.508,0.122,0.764,0.189c-2.562,1.596-5.148,2.929-7.723,4.282
		c-2.571,1.35-4.862,3.12-7.464,4.851c0.885,0.11,1.503,0.125,2.089,0.27c2.279,0.564,4.271,1.683,6.096,3.154
		c0.931,0.75,1.962,1.377,2.963,2.037c0.482,0.318,0.98,0.358,1.483-0.025c1.497-1.14,3.164-0.994,4.83-0.539
		c1.742,0.475,3.462,1.028,5.251,1.564c0.539-0.44,1.08-0.984,1.716-1.372c0.706-0.43,1.471-0.824,2.262-1.041
		c1.541-0.423,2.982,0.045,4.35,0.768c1.411,0.746,2.797,1.543,4.237,2.226c1.458,0.692,1.787,0.529,2.456-0.902
		c0.019-0.04,0.037-0.081,0.054-0.122c1.708-4.091,3.483-8.156,5.091-12.286c0.648-1.665,1.754-2.944,2.845-4.255
		c0.762-0.915,1.643-0.814,2.297,0.208c0.297,0.465,0.438,1.046,0.571,1.594c0.119,0.487,0.13,1,0.189,1.501
		c0.1,0.007,0.201,0.014,0.301,0.02c0.208-0.519,0.397-1.048,0.628-1.557c1.14-2.504,2.32-4.99,3.424-7.51
		c0.363-0.829,0.766-1.594,1.456-2.183c1.269-1.083,2.548-0.732,3.12,0.847c0.121,0.334,0.254,0.664,0.388,1.013
		c0.937-1.612,1.752-3.135,2.691-4.576c0.451-0.693,1.108-1.264,1.725-1.832c0.455-0.42,1.001-0.394,1.42,0.084
		c0.283,0.323,0.541,0.697,0.701,1.093c0.643,1.594,0.367,3.235,0.186,4.87c-0.083,0.749-0.089,1.508-0.2,2.252
		c-0.108,0.72-0.308,1.427-0.467,2.14c0.122,0.096,0.244,0.193,0.367,0.289c0.111-0.244,0.179-0.523,0.34-0.727
		c0.47-0.591,0.967-1.162,1.473-1.723c0.853-0.945,1.613-1.031,2.675-0.323c0.242,0.161,0.475,0.336,0.792,0.561
		c2.536-6.041,6.092-11.392,9.514-16.902c-0.972,0-1.756,0.003-2.539-0.001c-4.043-0.02-8.09,0.192-12.11-0.518
		c-1.965-0.347-3.964-0.495-5.942-0.772c-1.317-0.185-2.633-0.402-3.936-0.669c-2.212-0.453-4.414-0.96-6.621-1.439
		c-0.906-0.197-1.815-0.386-2.724-0.57c-1.3-0.264-2.602-0.519-3.902-0.78c-1.473-0.296-2.944-0.602-4.419-0.889
		c-1.305-0.254-2.614-0.487-3.921-0.73c-1.569-0.292-3.127-0.679-4.708-0.854c-2.646-0.292-5.305-0.517-7.964-0.646
		c-6.066-0.295-12.07,0.189-17.974,1.679c-0.229,0.058-0.452,0.139-0.678,0.21c0.016,0.089,0.033,0.177,0.049,0.266
		c0.367-0.032,0.742-0.025,1.1-0.102c3.596-0.775,7.239-0.795,10.875-0.526c1.531,0.113,3.035,0.595,4.553,0.9
		c0.475,0.095,0.955,0.225,1.433,0.228c5.385,0.032,10.742,0.343,15.997,1.62c1.448,0.352,2.864,0.834,4.543,1.33
		C215.438,102.182,214.93,102.106,214.409,101.966z M360.905,124.607c6.244,3.119,12.363,6.465,17.922,10.712
		c3.352,2.561,6.668,5.197,9.77,8.048c2.775,2.551,5.303,5.383,7.817,8.201c3.711,4.157,6.856,8.742,9.68,13.538
		c1.463,2.485,2.77,5.06,4.173,7.581c0.201,0.362,0.483,0.801,0.832,0.939c1.931,0.765,2.798,2.23,2.192,4.169
		c-0.238,0.764-0.095,1.361,0.166,2.025c0.519,1.317,1.024,2.641,1.517,3.968c0.642,1.727,1.266,3.459,1.927,5.267
		c0.156-0.23,0.326-0.393,0.392-0.591c0.474-1.428,1.016-2.841,1.367-4.3c0.749-3.113,1.163-6.276,1.242-9.488
		c0.092-3.748-0.211-7.472-0.752-11.165c-0.371-2.533-1.038-5.027-1.655-7.518c-0.307-1.237-0.679-2.473-1.488-3.522
		c-0.569-0.737-1.083-1.518-1.596-2.296c-0.266-0.403-0.697-0.776-0.451-1.484c0.981,0.664,1.684,1.449,2.303,2.319
		c0.516,0.724,1.011,1.463,1.533,2.182c2.16,2.976,3.629,6.317,4.815,9.751c1.025,2.966,1.758,6.038,2.5,9.093
		c0.555,2.283,0.976,4.604,0.976,6.975c0,0.531,0.076,1.063,0.13,1.593c0.24,2.391,0.348,4.778,0.043,7.178
		c-0.169,1.329-0.203,2.675-0.298,4.014c0.798-0.6,1.387-1.292,1.916-2.028c1.915-2.665,3.339-5.536,3.708-8.855
		c0.386-3.472,0.123-6.911-0.47-10.335c-0.211-1.22-0.475-2.43-0.698-3.648c-0.247-1.343-0.342-2.729-0.739-4.025
		c-0.751-2.449-1.615-4.868-2.531-7.261c-2.092-5.464-5.27-10.259-9.271-14.499c-6.02-6.38-13.227-11.169-20.948-15.194
		c-4.639-2.419-9.428-4.549-14.114-6.882c-0.891-0.444-1.668-0.427-2.547-0.186c-1.15,0.316-2.309,0.604-3.469,0.882
		c-1.847,0.442-3.706,0.832-5.545,1.305c-2.655,0.684-5.297,1.42-7.943,2.14c-0.969,0.263-1.933,0.543-3.22,0.906
		C360.549,124.394,360.72,124.515,360.905,124.607z M251.82,157.168c-0.205-1.704-0.351-3.418-0.628-5.11
		c-0.47-2.877-0.451-5.757-0.223-8.646c0.277-3.497,0.568-6.993,0.87-10.488c0.027-0.307,0.173-0.604,0.263-0.906
		c0.314,0.303,0.451,0.583,0.479,0.874c0.14,1.46,0.212,2.928,0.389,4.383c0.089,0.735,0.283,1.475,0.544,2.169
		c0.406,1.076,0.907,2.117,1.373,3.171c0.332,0.752,0.672,1.502,1.008,2.252c0.136-0.453,0.094-0.845,0.042-1.236
		c-0.059-0.44-0.173-0.877-0.185-1.317c-0.144-5.212,0.198-10.355,1.574-15.434c1.196-4.416,2.763-8.689,4.358-12.962
		c1.207-3.234,2.405-6.474,3.501-9.747c1.241-3.706,1.932-7.55,2.6-11.394c0.044-0.253-0.003-0.527-0.038-0.787
		c-0.374-2.812-0.986-5.602-0.725-8.47c0.044-0.486-0.028-0.983-0.047-1.474c-0.099-0.006-0.197-0.011-0.296-0.017
		c-0.075,0.271-0.168,0.538-0.223,0.813c-0.215,1.085-0.255,2.237-0.655,3.247c-1.106,2.796-2.16,5.643-3.601,8.269
		c-2.24,4.082-4.751,8.018-7.207,11.978c-2.76,4.45-5.691,8.805-7.664,13.69c-0.623,1.542-1.352,3.044-1.525,4.765
		c-0.15,1.488-0.659,2.937-0.889,4.422c-0.268,1.736-0.85,3.431-0.632,5.238c0.223,1.849,0.244,3.727,0.545,5.561
		c0.301,1.827,0.739,3.647,1.296,5.414c1.137,3.606,2.732,7.021,4.646,10.285c0.303,0.517,0.572,1.053,0.856,1.581
		C251.69,157.25,251.755,157.209,251.82,157.168z M274.133,187.551c-0.133-0.007-0.265-0.033-0.397-0.046
		c-3.181-0.316-6.357-0.69-9.544-0.931c-3.63-0.275-7.272-0.405-10.904-0.658c-0.948-0.066-1.683,0.146-2.452,0.721
		c-1.348,1.007-2.757,1.954-4.224,2.779c-2.974,1.672-6.105,2.993-9.421,3.849c-1.964,0.507-3.902,1.135-5.887,1.536
		c-1.905,0.384-3.855,0.543-5.784,0.811c-0.041,0.006-0.067,0.125-0.149,0.29c0.632,0.213,1.256,0.406,1.868,0.633
		c3.318,1.234,6.627,2.496,9.955,3.702c0.857,0.311,1.676,0.559,1.637,1.782c8.215-3.003,15.867-6.729,22.625-12.491
		c0.027,0.45,0.096,0.642,0.038,0.779c-0.486,1.139-0.878,2.34-1.52,3.385c-2.243,3.651-5.25,6.587-8.775,9.004
		c-2.6,1.783-5.206,3.56-7.802,5.35c-0.225,0.155-0.395,0.389-0.6,0.596c0.154,0.144,0.208,0.232,0.283,0.258
		c2.427,0.827,4.861,1.63,7.28,2.479c0.819,0.287,1.463,0.146,2.028-0.494c0.175-0.199,0.39-0.364,0.582-0.549
		c5.432-5.256,10.984-10.379,16.755-15.263c2.337-1.978,4.667-3.965,7.065-6.002C275.687,187.633,275.687,187.634,274.133,187.551z
		 M269.621,112.43c0.089-0.476,0.109-0.973,0.091-1.458c-0.089-2.343-0.134-4.674-0.61-7.003c-0.386-1.888-0.328-3.866-0.478-5.804
		c-0.01-0.127-0.121-0.245-0.289-0.568c-0.127,0.485-0.196,0.732-0.255,0.981c-0.394,1.636-0.693,3.302-1.199,4.902
		c-0.813,2.568-1.738,5.102-2.662,7.634c-1.182,3.242-2.456,6.451-3.599,9.707c-0.716,2.04-1.307,4.127-1.875,6.214
		c-0.593,2.178-1.051,4.388-1.211,6.648c-0.02,0.282-0.04,0.563-0.069,0.967c3.417-1.339,6.318-3.542,10.077-4.02
		c-1.384-5.6-0.224-10.766,2.434-15.794C269.363,113.713,269.382,113.716,269.621,112.43z M262.791,89.954
		c0.397-0.935,0.837-1.861,1.124-2.831c0.488-1.651,0.882-3.33,1.296-5.002c0.151-0.61-0.097-0.99-0.71-1.217
		c-2.847-1.056-5.684-2.141-8.616-3.251c-0.43,0.677-0.826,1.307-1.231,1.932c-0.27,0.416-0.573,0.698-1.139,0.789
		c-0.739,0.119-1.443,0.46-2.396,0.785c3.826,3.317,7.429,6.442,11.119,9.642C262.477,90.442,262.679,90.217,262.791,89.954z"/>
	<path fill="#48454E" d="M255.367,523.008c4.33,3.639,9.378,3.963,14.739,2.966c0.222,0.811,0.121,1.563-0.045,2.343
		c-0.689,3.236-2.426,5.878-4.59,8.292c-0.861,0.96-1.795,1.867-2.552,2.904c-0.673,0.92-1.234,1.948-1.692,2.994
		c-1.296,2.966-2.52,5.963-3.76,8.952c-0.783,1.887-1.534,3.789-2.81,5.419c-0.262,0.334-0.561,0.639-0.952,1.081
		c-1.507-3.422-3.598-6.213-6.218-8.577c-2.577-2.325-5.501-4.169-8.702-5.793c0.27-0.284,0.456-0.507,0.669-0.701
		c1.595-1.461,2.754-3.246,3.788-5.119c1.349-2.445,2.615-4.938,4.025-7.348c1.521-2.6,3.464-4.844,6.122-6.372
		C253.961,523.72,254.558,523.432,255.367,523.008z M314.621,350.489c0.161-0.068,0.32-0.152,0.458-0.258
		c1.281-0.987,2.035-2.33,2.529-3.832c0.798-2.426,0.624-4.939,0.331-7.386c-0.271-2.265-0.934-4.49-1.501-6.712
		c-1.118-4.375-3.011-8.418-5.452-12.203c-3.787-5.871-8.653-10.679-14.435-14.587c-4.141-2.799-8.602-4.958-13.33-6.516
		c-3.066-1.01-6.234-1.698-9.474-1.961c-1.059-0.086-2.111-0.257-3.169-0.358c-2.377-0.227-4.692,0.34-7.013,0.678
		c-0.845,0.123-1.818,0.267-2.505,1.05c-1.392,1.589-2.492,3.347-3.266,5.302c-0.183,0.464-0.172,1.005-0.281,1.711
		c0.625-0.101,1.043-0.169,1.461-0.236c1.751-0.28,3.495-0.717,5.256-0.809c4.306-0.224,8.592-0.089,12.833,0.916
		c3.192,0.757,6.327,1.618,9.369,2.873c6.88,2.839,12.884,6.886,17.828,12.48c3.825,4.327,6.6,9.26,8.273,14.759
		c1.085,3.566,1.696,7.254,1.728,11.009c0.011,1.326,0.002,2.653,0.002,4.049C314.455,350.479,314.552,350.518,314.621,350.489z
		 M266.994,146.908c1.628,0.993,3.261,1.981,4.85,3.035c3.834,2.544,7.909,4.523,12.416,5.57c0.608,0.141,0.986,0.006,1.436-0.362
		c1.582-1.294,3.226-2.513,4.795-3.823c1.465-1.223,2.872-2.517,4.29-3.795c0.77-0.694,1.194-1.605,1.617-2.639
		c-0.687-0.139-1.286-0.225-1.866-0.383c-2.683-0.732-4.941-2.193-6.856-4.172c-2.296-2.373-1.392-1.949-4.64-0.807
		c-2.666,0.938-5.222,2.196-7.811,3.345c-3.576,1.586-7.273,2.713-11.183,3.084c-0.647,0.061-0.828,0.316-0.706,0.996
		c0.132,0.742,0.313,1.476,0.469,2.214c0.148,0.7,0.563,1.184,1.175,1.535c2.814,1.615,5.72,3.046,8.827,3.983
		c3.179,0.959,6.394,1.802,9.611,2.626c1.415,0.362,2.874,0.759,4.314,0.766c1.861,0.009,2.739,0.98,3.32,2.505
		c0.655,1.719,0.896,3.516,0.983,5.341c0.089,1.875-0.041,3.737-0.506,5.553c-0.294,1.146-0.676,2.282-1.157,3.361
		c-0.193,0.433-0.704,0.86-1.162,1.012c-0.915,0.304-1.903,0.61-2.846,0.569c-1.853-0.081-3.732-0.241-5.533-0.658
		c-2.233-0.516-4.424-1.255-6.588-2.025c-3.59-1.277-7.151-2.637-10.286-4.884c-0.146-0.105-0.37-0.102-0.779-0.205
		c0.242,1.006,0.703,1.622,1.347,2.09c2.158,1.57,4.403,3.021,6.893,3.995c2.013,0.787,4.076,1.48,6.164,2.031
		c1.444,0.381,2.965,0.551,4.461,0.636c2.93,0.165,5.864,0.104,8.751-0.513c1.554-0.332,3.1-0.714,4.426-1.685
		c1.218-0.892,2.476-1.731,3.702-2.614c0.709-0.511,1.389-1.063,2.102-1.612c-0.395-0.732-0.757-1.339-1.057-1.976
		c-0.283-0.601-0.549-1.218-0.733-1.854c-0.185-0.636-0.26-1.304-0.402-2.058c-0.877,0.631-0.532,1.991-1.901,2.226
		c-0.052-3.376,0.826-6.521,1.384-9.849c-6.127,1.174-11.849,0.189-17.527-1.482c-5.148-1.515-13.2-6.849-14.73-9.315
		C266.444,146.765,266.762,146.766,266.994,146.908z M261.9,502.491c-0.291,0.051-0.595,0.063-0.87,0.16
		c-1.472,0.519-2.598,1.503-3.563,2.699c-2.045,2.535-3.672,5.334-5.127,8.234c-0.743,1.481-0.699,2.994,0.106,4.467
		c1.033,1.891,2.627,3.232,4.384,4.387c2.605,1.712,5.4,2.905,8.605,2.64c1.766-0.146,3.542-0.324,5.276-0.672
		c1.906-0.382,3.753-0.974,5.471-1.979c1.339-0.784,2.355-1.869,3.395-2.955c1.894-1.977,3.415-4.195,4.269-6.824
		c0.335-1.031,0.47-2.094,0.615-3.402c-0.372,0.252-0.53,0.325-0.642,0.441c-1.018,1.055-2.072,2.081-3.031,3.188
		c-1.173,1.354-2.73,2.034-4.384,2.308c-3.138,0.518-6.294,0.476-9.349-0.59c-3.056-1.067-5.594-2.709-6.487-6.098
		c-0.511-1.941-0.566-3.773,1.078-5.27c0.154-0.14,0.267-0.325,0.398-0.49C261.997,502.652,261.948,502.571,261.9,502.491z
		 M249.758,516.097c-1.733,1.592-3.459,3.192-5.189,4.787c-1.797,1.656-3.689,3.221-5.373,4.985
		c-2.015,2.11-3.998,4.299-4.491,7.369c-0.032,0.197-0.22,0.38-0.362,0.547c-1.348,1.591-2.695,3.181-4.054,4.762
		c-0.706,0.821-1.493,1.578-2.074,2.599c1.088,0.102,2.061,0.105,2.995,0.299c1.896,0.394,3.833,0.659,5.628,1.439
		c0.62,0.27,1.062,0.124,1.557-0.293c1.624-1.368,2.866-3.026,3.862-4.884c1.132-2.112,2.243-4.236,3.407-6.33
		c1.767-3.181,3.91-6.042,7.046-8.03c0.508-0.322,0.987-0.69,1.54-1.079c-1.933-1.81-3.503-3.755-4.053-6.361
		C249.988,515.994,249.846,516.016,249.758,516.097z M225.153,546.214c2.938-1.055,5.882-0.732,8.734,0.252
		c5.536,1.91,10.001,5.316,13.298,10.158c1.649,2.422,3.115,4.968,3.316,8.015c0.011,0.172,0.178,0.333,0.35,0.635
		c0.833-1.56,1.397-3.048,1.603-4.623c0.106-0.812,0.078-1.757-0.245-2.484c-0.644-1.449-1.398-2.89-2.347-4.155
		c-3.191-4.255-7.398-7.227-12.252-9.329c-3.101-1.343-6.328-1.988-9.71-1.762c-2.178,0.145-4.192,1.83-4.962,4.293
		C223.808,546.818,224.461,546.463,225.153,546.214z M230.012,554.178c-0.475,1.041-0.896,2.111-1.437,3.116
		c-0.823,1.527-2.217,2.356-4.132,1.667c-0.048-0.017-0.133,0.066-0.332,0.173c0.742,0.902,1.432,1.815,2.2,2.659
		c2.454,2.696,5.087,5.212,7.938,7.485c2.044,1.63,4.087,3.269,6.471,4.42c0.581,0.28,1.061,0.302,1.642,0.107
		c1.741-0.585,2.693-2.031,4.025-3.434c-4.338,1.171-4.738,0.263-6.027-1.991c-1.85,0.206-2.864-0.782-3.37-2.553
		c-2.446,0.288-4.176-0.632-4.908-3.039c-0.439,0.063-0.784,0.136-1.131,0.157c-1.509,0.094-2.203-0.34-2.783-1.726
		c-0.312-0.745-0.242-1.481,0.112-2.185c0.499-0.99,1.021-1.969,1.537-2.95c0.321-0.611,0.513-1.232,0.192-1.906L230.012,554.178z
		 M221.617,549.951c-1.128,1.528-2.242,3.066-3.387,4.581c-1.119,1.481-1.218,3.068-0.272,4.595c0.789,1.274,1.721,2.489,2.75,3.579
		c4.18,4.432,9.267,7.555,14.795,10.009c0.298,0.132,0.641,0.16,1.209,0.295c-0.285-0.327-0.373-0.487-0.508-0.575
		c-3.001-1.951-5.55-4.441-8.132-6.884c-1.971-1.865-3.84-3.83-5.377-6.089c-0.567-0.834-1.246-1.591-1.875-2.382
		c-1.251-1.572-1.354-2.445-0.548-4c0.265-0.511,0.603-0.984,0.886-1.487c0.271-0.484,0.514-0.984,0.769-1.477
		C221.822,550.062,221.72,550.007,221.617,549.951z"/>
	<path fill="#BDBBBE" d="M287.656,159.538c0.3,0.821,0.565,1.471,0.776,2.138c1.181,3.729,0.543,7.452-0.057,11.174
		c-0.014,0.087-0.038,0.174-0.064,0.258c-0.496,1.648-0.867,1.864-2.763,1.568c0.295-0.393,0.577-0.768,0.848-1.129
		c-0.14-0.779-0.593-1.326-1.284-1.387c-0.374-0.033-0.879,0.359-1.172,0.693c-0.667,0.759,0.224,1.227,0.647,1.946
		c-0.803-0.045-1.428,0.004-2.013-0.127c-4.758-1.066-9.391-2.499-13.749-4.732c-0.903-0.463-1.868-0.821-2.722-1.359
		c-0.816-0.515-1.545-1.178-2.264-1.829c-0.195-0.177-0.242-0.542-0.31-0.831c-0.629-2.671-0.419-5.382-0.392-8.087
		c0.019-1.916,0.262-3.793,0.789-5.823c0.469,0.139,0.944,0.193,1.33,0.408c2.793,1.556,5.69,2.877,8.726,3.873
		c1.552,0.509,3.127,0.954,4.71,1.36c2.135,0.548,4.283,1.051,6.435,1.528C285.942,159.362,286.785,159.419,287.656,159.538z
		 M273.395,159.685c-0.177,1.505-1.651,2.564-1.427,4.237c0.451-0.168,0.857-0.371,1.079-0.698c0.87-1.279,1.712-2.579,2.502-3.909
		c0.321-0.54,0.019-1.082-0.702-1.286c-0.591-0.167-1.222-0.271-1.835-0.269c-1.57,0.006-3.086-0.211-4.556-0.783
		c-0.279-0.108-0.625-0.043-1.073-0.063c0.439,1.443,1.562,1.819,2.599,2.326c-0.167,1.253-1.005,2.15-1.547,3.179
		c0.801,0.334,0.85,0.383,1.306-0.073c0.686-0.686,1.35-1.41,1.923-2.191C272.142,159.503,272.648,159.344,273.395,159.685z
		 M266.763,162.466c-0.864,0.643-1.108,1.696-1.692,2.5c-0.13,0.179,0.007,0.552,0.022,0.836c0.318-0.044,0.72,0.015,0.936-0.158
		c0.321-0.256,0.512-0.677,0.891-1.216c0.22,0.655,0.319,1.168,0.558,1.605c0.265,0.484,0.583,0.996,1.011,1.319
		c0.767,0.579,1.638,1.021,2.459,1.529c0.762,0.471,1.239,0.348,1.534-0.481c0.123-0.347,0.095-0.748,0.162-1.368
		c-1.028,0.429-1.589,0.052-1.983-0.715c0.516-0.433,0.947-0.9,0.566-1.595c-0.347-0.634-0.954-1.038-1.637-0.939
		C268.386,163.956,267.738,163.13,266.763,162.466z M286.166,163.039c0.5-0.012,1.326-0.803,1.358-1.299
		c0.034-0.525-0.86-1.396-1.411-1.375c-0.525,0.02-1.292,0.843-1.267,1.36C284.873,162.25,285.676,163.051,286.166,163.039z
		 M288.462,167.836c0.007-0.7-0.575-1.333-1.207-1.312c-0.55,0.018-1.302,0.788-1.286,1.316c0.017,0.54,0.772,1.321,1.287,1.331
		C287.861,169.181,288.456,168.524,288.462,167.836z M289.697,162.408c0.425,3.182,0.442,6.368-0.151,9.539
		c-0.08,0.427-0.108,0.864-0.16,1.297c1.666-3.903,1.417-11.111-0.457-13.456C289.245,160.835,289.59,161.606,289.697,162.408z"/>
	<path fill="#E25C33" d="M295.529,131.453c-0.71-0.185-1.679-0.325-2.554-0.689c-1.697-0.707-2.134-1.913-1.62-3.65
		c0.241-0.816,0.685-1.393,1.313-1.919c0.429-0.359,0.873-0.444,1.358-0.292c2.601,0.818,4.368,2.23,4.784,5.249
		c0.103,0.749-0.035,0.983-0.772,1.088C297.296,131.345,296.542,131.371,295.529,131.453z"/>
	<path fill="#FFFFFF" d="M223.168,254.204c1.175-0.15,2.357-0.261,3.524-0.46c1.702-0.291,3.389-0.67,5.09-0.968
		c2.135-0.374,4.274-0.726,6.418-1.045c1.707-0.255,3.427-0.424,5.135-0.672c1.928-0.28,3.848-0.611,5.773-0.912
		c1.401-0.22,2.801-0.442,4.205-0.638c1.801-0.251,3.61-0.452,5.409-0.719c2.061-0.306,4.112-0.677,6.172-0.986
		c1.62-0.243,3.252-0.407,4.87-0.658c1.79-0.278,3.57-0.617,5.356-0.925c1.351-0.233,2.703-0.458,4.055-0.688
		c0.959-0.163,1.921-0.317,2.877-0.494c1.522-0.282,3.041-0.582,4.563-0.867c0.069-0.013,0.154,0.052,0.333,0.119
		c-0.515,0.584-1.009,1.138-1.497,1.697c-1.432,1.641-2.823,3.32-4.3,4.918c-2.109,2.283-4.741,3.881-7.432,5.36
		c-4.903,2.695-10.007,4.969-15.244,6.933c-2.659,0.997-5.14,2.37-7.73,3.511c-4.014,1.769-8.029,3.536-12.028,5.337
		c-5.752,2.59-11.385,5.389-16.589,9.009c-1.848,1.285-3.903,2.276-5.881,3.37c-2.366,1.308-4.75,2.581-7.126,3.87
		c-1.286,0.698-2.704,0.74-4.033,0.422c-4.143-0.992-8.192-2.258-11.692-4.842c-2.946-2.175-4.676-5.033-5.15-8.678
		c-0.192-1.475-0.007-2.902,0.157-4.36c0.239-2.133,0.774-4.188,1.434-6.203c0.673-2.053,1.549-4.04,2.34-6.054
		c0.178-0.453,0.379-0.896,0.554-1.35c0.886-2.298,2.407-4.118,4.26-5.693c5.129-4.362,10.722-8.061,16.46-11.555
		c8.115-4.942,16.456-9.483,24.861-13.903c8.595-4.52,17.248-8.929,25.823-13.486c5.445-2.894,10.794-5.968,16.185-8.963
		c0.738-0.41,1.475-0.822,2.21-1.24c0.192-0.109,0.421-0.205,0.543-0.372c0.112-0.154,0.203-0.506,0.125-0.578
		c-0.159-0.147-0.436-0.211-0.668-0.221c-0.155-0.006-0.319,0.137-0.475,0.22c-6.894,3.68-13.775,7.384-20.684,11.035
		c-5.455,2.882-10.945,5.697-16.42,8.541c-0.148,0.077-0.305,0.135-0.528,0.233c1.295-2.411,21.022-21.018,30.048-28.464
		c10.63-8.769,21.652-16.999,33.373-24.505c-0.033,0.872-1.423,1.149-0.804,2.241c0.306-0.185,0.588-0.301,0.802-0.493
		c1.026-0.921,2.03-1.865,3.047-2.794c2.82-2.578,5.212-5.554,7.784-8.362c2.887-3.152,5.832-6.232,9.346-8.714
		c1.793-1.266,3.702-2.311,5.81-2.886c1.442-0.394,2.952-0.664,4.443-0.732c3.294-0.151,6.548,0.342,9.785,0.922
		c1.306,0.234,2.619,0.434,3.928,0.652c3.214,0.538,6.301,1.494,9.178,3.024c2.9,1.541,5.218,3.727,6.579,6.755
		c0.627,1.395,1.028,2.896,1.463,4.369c0.387,1.31,0.7,2.642,1.009,3.973c0.22,0.949,0.385,1.91,0.565,2.868
		c0.426,2.262,0.782,4.54,1.283,6.786c0.685,3.071,1.468,6.122,3.026,8.9c0.295,0.526,0.422,1.027,0.301,1.647
		c-0.1,0.51-0.026,1.063,0.027,1.591c0.334,3.34-0.837,6.095-3.231,8.377c-1.862,1.775-4.08,2.983-6.425,3.973
		c-2.775,1.171-5.621,2.124-8.564,2.792c-2.373,0.539-4.73,1.144-7.097,1.712c-0.117,0.028-0.253-0.019-0.503-0.043
		c0.269-0.286,0.47-0.506,0.678-0.72c1.827-1.875,3.66-3.744,5.478-5.627c0.273-0.283,0.538-0.625,0.032-1.08
		c-0.199,0.119-0.437,0.214-0.614,0.376c-1.971,1.796-3.883,3.661-5.907,5.394c-6.216,5.322-12.594,10.444-19.266,15.189
		c-2.35,1.671-4.756,3.262-7.118,4.915c-1.269,0.889-2.482,1.859-3.756,2.741c-0.577,0.399-1.241,0.674-1.866,1.003
		c-0.155,0.082-0.347,0.123-0.466,0.239c-2.219,2.163-4.955,3.583-7.544,5.203c-3.049,1.908-6.158,3.723-9.253,5.557
		c-2.363,1.4-4.8,2.661-7.474,3.355c-1.839,0.477-3.706,0.841-5.562,1.251c-1.425,0.315-2.848,0.64-4.279,0.926
		c-1.13,0.226-2.269,0.414-3.408,0.592c-2.85,0.445-5.704,0.868-8.554,1.315c-1.664,0.261-3.32,0.572-4.985,0.828
		c-1.883,0.29-3.773,0.532-5.658,0.816c-1.929,0.291-3.852,0.616-5.78,0.909c-1.578,0.24-3.161,0.449-4.74,0.682
		c-2.279,0.336-4.555,0.691-6.835,1.02c-1.753,0.253-3.519,0.424-5.262,0.731c-2.095,0.37-4.17,0.852-6.257,1.273
		c-2.174,0.438-4.353,0.854-6.527,1.294c-0.619,0.125-1.327,0.132-1.631,0.818C223.083,253.96,223.125,254.082,223.168,254.204z
		 M344.24,153.932c0.49,0.305,0.847,0.528,1.205,0.749c1.507,0.931,3.095,1.754,4.509,2.811c5.555,4.152,9.298,9.703,11.978,16.01
		c1.001,2.355,1.804,4.793,2.721,7.184c0.094,0.244,0.35,0.425,0.531,0.635c0.131-0.292,0.401-0.604,0.362-0.871
		c-0.068-0.467-0.365-0.896-0.498-1.36c-0.936-3.247-2.317-6.304-3.871-9.296c-3.596-6.924-8.678-12.398-15.559-16.154
		C345.174,153.398,344.818,153.312,344.24,153.932z M200.607,192.497c-1.496-2.813-2.133-5.832-1.918-8.986
		c0.197-2.879,0.834-5.706,1.634-8.47c0.749-2.588,1.693-5.122,2.6-7.662c1.261-3.532,2.197-7.177,3.952-10.538
		c1.042-1.995,1.803-4.139,2.658-6.229c0.323-0.789,0.558-1.614,0.822-2.391c-1.8-0.156-3.432-0.288-5.062-0.442
		c-2.959-0.28-5.913-0.624-8.877-0.846c-2.89-0.217-5.768-0.161-8.493,1.06c-0.184,0.082-0.437,0.011-0.752,0.011
		c0.842-1.032,2.156-1.83,3.378-2.196c2.803-0.84,5.632-0.53,8.463-0.243c0.662,0.067,1.325,0.118,1.986,0.192
		c0.664,0.074,1.325,0.167,1.988,0.251c0.027-0.1,0.053-0.2,0.08-0.299c-1.441-0.745-2.873-1.508-4.326-2.229
		c-2.319-1.151-4.732-2.015-7.331-2.261c-1.008-0.096-1.967-0.043-2.586,0.947c-0.091,0.145-0.231,0.346-0.367,0.361
		c-0.937,0.105-1.263,0.895-1.757,1.501c-0.927,1.137-1.843,2.284-2.79,3.405c-2.525,2.989-5.066,5.961-7.163,9.283
		c-1.362,2.158-2.341,4.484-3.089,6.9c-0.579,1.87-0.686,3.833-0.727,5.783c-0.009,0.405,0.19,0.869,0.428,1.213
		c0.428,0.618,0.954,1.169,1.448,1.74c1.628,1.88,3.236,3.779,4.899,5.629c1.661,1.848,3.266,3.77,5.097,5.438
		c3.101,2.827,6.722,4.934,10.409,6.908c1.749,0.936,3.527,1.819,5.528,2.847C200.656,192.736,200.662,192.6,200.607,192.497z
		 M279.32,187.07c0.389-0.294,0.55-0.652,0.484-1.153c-0.273-2.069-0.521-4.141-0.781-6.212c-0.017-0.132-0.051-0.262-0.08-0.392
		c-0.144-0.641-0.541-0.96-1.195-1.069c-0.695-0.116-1.376-0.323-2.061-0.499c-4.358-1.118-8.28-3.15-11.894-5.783
		c-0.658-0.48-1.13-1.23-1.645-1.889c-0.419-0.536-0.473-1.227-0.166-1.77c0.397-0.701,0.434-1.297,0.058-1.987
		c-0.12-0.219-0.113-0.519-0.126-0.784c-0.121-2.479-0.518-4.948-0.256-7.442c0.213-2.027,0.036-4.118,0.796-6.053
		c0.43-1.095,0.084-2.078-0.105-3.103c-0.039-0.212-0.231-0.398-0.26-0.609c-0.092-0.655-0.229-1.323-0.183-1.975
		c0.074-1.05,0.895-1.951,1.731-1.897c2.033,0.133,3.943-0.475,5.873-0.92c0.878-0.202,1.694-0.673,2.487-1.001
		c-0.012-0.243,0.011-0.343-0.025-0.414c-1.468-2.931-2.839-5.903-3.871-9.02c-0.23-0.696-0.732-0.876-1.357-0.75
		c-0.777,0.157-1.583,0.292-2.297,0.613c-2.061,0.927-4.061,1.988-6.126,2.904c-0.969,0.429-1.287,1.048-1.251,2.064
		c0.165,4.626,0.577,9.208,2.078,13.63c0.232,0.684,0.357,1.405,0.611,2.428c-0.52-0.323-0.871-0.43-1.042-0.667
		c-0.62-0.861-1.291-1.713-1.74-2.664c-1.307-2.765-2.513-5.578-3.766-8.369c-0.128-0.285-0.305-0.548-0.459-0.821
		c-0.238,0.907-0.186,1.744-0.246,2.574c-0.387,5.273,0.082,10.453,1.598,15.529c0.24,0.805,0.462,1.617,0.65,2.436
		c0.05,0.217-0.053,0.47-0.114,0.913c-0.958-0.66-1.61-1.357-2.181-2.137c-0.577-0.788-1.147-1.583-1.699-2.389
		c-0.524-0.766-1.02-1.551-1.621-2.47c-0.654,2.898-1.178,4.112-2.546,5.707c-3.135,3.657-6.619,6.968-10.399,9.937
		c-1.516,1.191-2.639,2.599-3.593,4.21c-0.972,1.642-1.937,3.288-2.912,4.928c-0.194,0.326-0.424,0.632-0.649,0.965
		c0.637,0.692,1.401,0.74,2.135,0.828c0.705,0.085,1.42,0.09,2.126,0.165c2.999,0.321,5.991,0.723,8.996,0.968
		c3.805,0.31,7.621,0.485,11.431,0.744c1.062,0.072,2.116,0.278,3.178,0.348c3.635,0.241,7.272,0.444,10.908,0.675
		c0.575,0.036,1.144,0.157,1.719,0.206c1.328,0.113,2.659,0.207,4.048,0.313c-0.075-0.263-0.074-0.367-0.125-0.423
		c-2.052-2.219-4.034-4.509-6.186-6.626c-2.071-2.037-3.873-4.276-5.575-6.609c-0.132-0.18-0.178-0.423-0.273-0.659
		c0.209-0.042,0.337-0.103,0.37-0.07c5.354,5.502,10.701,11.012,16.144,16.619C278.484,187.721,278.897,187.389,279.32,187.07z
		 M230.4,174.973c-1.342,0.527-2.689,0.564-4.016,0.002c-0.973-0.412-1.919-0.888-2.865-1.361c-0.517-0.258-1.012-0.638-1.606-0.253
		c-1.921,1.243-4.127,1.658-6.31,1.911c-3.393,0.393-6.817,0.523-10.227,0.772c-1.273,0.093-2.544,0.208-3.805,0.312
		c-1.014,2.922-1.396,5.789-1.376,8.742c0.02,2.838,0.848,5.407,2.214,7.848c1.133,2.023,0.915,1.951,2.968,0.872
		c3.377-1.776,6.759-3.546,10.08-5.422c3.356-1.896,6.881-3.484,10.081-5.672c1.429-0.977,2.66-2.082,3.542-3.547
		c0.833-1.383,1.575-2.822,2.486-4.471C230.979,174.837,230.674,174.865,230.4,174.973z M310.983,354.539
		c0.845-1.597,1.935-3.109,1.703-5.076c-0.046-0.388,0.076-0.794,0.098-1.192c0.073-1.296,0.06-2.603-0.558-3.776
		c-3.908-7.42-8.889-14.012-15.177-19.592c-4.579-4.064-9.611-7.432-15.223-9.902c-3.492-1.537-7.091-2.677-10.864-3.383
		c-3.002-0.561-5.995-0.64-9.01-0.613c-1.282,0.011-2.576,0.124-3.839,0.339c-1.345,0.229-2.656,0.648-3.989,0.958
		c-1.612,0.375-2.967,1.974-3.052,3.719c0.309-0.045,0.609-0.075,0.903-0.134c1.519-0.3,3.023-0.743,4.556-0.886
		c4.322-0.403,8.604,0.067,12.796,1.117c3.084,0.773,6.102,1.8,9.014,3.107c9.464,4.244,17.734,10.084,24.299,18.194
		c4.085,5.046,7.047,10.624,7.996,17.205C310.826,354.58,310.958,354.587,310.983,354.539z M322.928,337.781
		c0.066-0.11,0.123-0.25,0.118-0.374c-0.055-1.281-0.1-2.564-0.199-3.842c-0.048-0.616-0.198-1.224-0.311-1.834
		c-0.339-1.822-0.665-3.635-1.635-5.277c-2.598-4.401-5.316-8.719-8.442-12.77c-2.041-2.646-4.078-5.287-7.173-6.825
		c-0.237-0.118-0.441-0.299-0.664-0.445c-5.451-3.578-10.919-7.126-16.831-9.921c-5.124-2.423-10.406-4.282-16.156-4.374
		c-1.419-0.023-2.917-0.16-4.232,0.24c-0.907,0.276-1.561,1.385-2.329,2.12c-0.193,0.184-0.41,0.346-0.586,0.545
		c-0.149,0.168-0.255,0.374-0.342,0.506c1.905-0.041,3.762-0.037,5.614-0.131c4.269-0.217,8.382,0.669,12.432,1.824
		c3.84,1.096,7.487,2.708,10.986,4.651c6.862,3.811,12.657,8.832,17.321,15.153c3.547,4.807,6.074,10.117,7.638,15.864
		c0.673,2.474,1.269,4.99,1.312,7.588c0.003,0.163,0.107,0.325,0.229,0.673C320.943,340.095,322.123,339.131,322.928,337.781z
		 M255.746,310.782c1.089-0.193,2.207-0.256,3.274-0.529c2.773-0.708,5.569-0.488,8.352-0.252c1.668,0.142,3.328,0.49,4.965,0.863
		c1.804,0.411,3.615,0.853,5.354,1.473c2.083,0.742,4.089,1.698,6.14,2.533c0.393,0.16,0.858,0.315,1.258,0.255
		c1.097-0.163,2.11,0.086,3.106,0.456c2.35,0.874,4.432,2.242,6.465,3.668c4.22,2.959,8.397,5.98,12.596,8.969
		c0.22,0.156,0.483,0.251,0.726,0.374c-0.184-0.683-0.522-1.187-0.833-1.708c-3.402-5.693-8.076-10.108-13.65-13.627
		c-3.167-2-6.546-3.567-10.069-4.795c-2.377-0.829-4.792-1.574-7.319-1.865c-1.76-0.203-3.506-0.539-5.268-0.698
		c-1.673-0.151-3.372-0.306-5.038-0.178c-2.337,0.179-4.662,0.573-6.975,0.974c-0.758,0.131-1.644,0.393-2.153,0.909
		c-1.015,1.031-1.81,2.28-2.866,3.66C254.647,311.053,255.19,310.88,255.746,310.782z M279.647,476.998
		c-0.607,0.922-0.451,1.577,0.187,2.375c1.399,1.75,2.976,3.309,4.783,4.619c4.158,3.014,8.725,4.882,13.954,4.802
		c1.187-0.018,2.521,0.272,3.521-0.175c1.064-0.475,1.828-1.642,2.692-2.536c0.719-0.744,1.393-1.531,2.236-2.464
		c-0.559,0-0.858-0.021-1.153,0.003c-1.983,0.167-3.904-0.241-5.774-0.782c-1.414-0.41-2.788-0.779-4.283-0.767
		c-1.462,0.012-2.933-0.129-4.388-0.3c-1.81-0.213-2.718-1.26-2.814-3.087c-0.028-0.538-0.052-1.048-0.571-1.411
		c-1.998-1.397-3.979-2.818-6.113-4.334C281.124,474.384,280.47,475.746,279.647,476.998z M267.897,498.658
		c2.19,2.26,4.778,3.954,7.626,5.247c2.495,1.133,5.081,1.954,7.792,2.48c1.207,0.234,1.918-0.038,2.665-0.837
		c1.514-1.621,3.063-3.209,4.585-4.822c0.094-0.1,0.084-0.299,0.112-0.412c-3.658-0.423-7.054-1.472-10.289-3.039
		c-3.241-1.57-5.995-3.83-8.531-6.407c-1.542,2.441-2.983,4.723-4.494,7.115C267.573,498.251,267.717,498.472,267.897,498.658z
		 M272.954,488.896c-0.542,0.943-0.534,0.972,0.158,1.864c1.386,1.787,3.195,3.076,5.082,4.254c2.416,1.508,5.025,2.604,7.782,3.308
		c1.585,0.405,3.208,0.653,4.801,1.029c0.7,0.165,1.185-0.03,1.658-0.529c1.437-1.516,2.903-3.003,4.349-4.511
		c0.165-0.172,0.272-0.398,0.425-0.626c-1.49,0.137-2.883,0.242-4.271,0.398c-2.694,0.302-5.191-0.455-7.608-1.477
		c-2.847-1.203-5.326-2.994-7.571-5.113c-0.832-0.785-1.685-1.547-2.62-2.403C274.358,486.45,273.656,487.673,272.954,488.896z
		 M264.658,501.931c-0.735,0.864-1.354,1.591-1.98,2.327c0.396,0.781,0.712,1.516,1.122,2.193c1.876,3.098,4.58,5.276,7.812,6.808
		c2.899,1.374,6.014,0.799,8.298-1.458c0.884-0.874,1.723-1.794,2.576-2.698c0.29-0.308,0.562-0.632,1.012-1.141
		C276.154,508.629,269.875,506.741,264.658,501.931z M320.152,323.069c-2.249-6.833-5.513-13.078-10.444-18.385
		c-4.974-5.354-10.958-9.052-18-11.049C303.832,300.897,312.684,311.302,320.152,323.069z M277.46,480.974
		c-0.621,1.077-0.64,1.086,0.18,2.052c2.036,2.397,4.514,4.266,7.193,5.871c2.818,1.689,5.918,2.738,9.004,3.804
		c0.445,0.154,0.974,0.198,1.44,0.129c1.134-0.171,2.26-0.41,3.376-0.678c0.623-0.149,1.833-1.583,2.04-2.246
		c-9.258,0.465-16.316-3.715-22.244-10.747C278.047,479.898,277.766,480.443,277.46,480.974z M286.861,316.419
		c11.069,6.209,19.059,15.407,25.542,26.115c-0.149-1.488-0.276-2.974-0.623-4.407c-0.423-1.753-0.953-3.49-1.586-5.178
		c-0.376-1.004-0.64-2.094-1.661-2.802c-4.446-3.085-8.826-6.264-13.284-9.332c-1.967-1.354-4.045-2.551-6.105-3.764
		c-0.656-0.387-1.418-0.595-2.132-0.884C286.963,316.25,286.912,316.334,286.861,316.419z M304.874,305.149
		c-0.187-0.215-0.353-0.452-0.563-0.642c-2.937-2.651-5.888-5.291-9.225-7.439c-1.677-1.079-3.426-2.048-5.148-3.058
		c-1.735-1.018-3.784-1.415-5.384-2.71c-0.16-0.129-0.423-0.123-0.625-0.21c-1.47-0.632-3.036-0.604-4.582-0.627
		c-2.755-0.042-5.51-0.017-8.265-0.026c-0.533-0.002-1.069-0.069-1.598-0.03c-0.226,0.016-0.438,0.226-0.714,0.38
		c0.181,0.136,0.217,0.188,0.251,0.186c3.351-0.172,6.668,0.167,9.885,1.056c3.195,0.883,6.296,2.081,9.278,3.556
		c5.378,2.66,10.551,5.667,15.491,9.074c0.345,0.238,0.712,0.445,1.068,0.666C304.787,305.266,304.83,305.207,304.874,305.149z
		 M203.881,144.739c1.885,1.559,3.962,1.995,6.29,1.741c0.174-0.019,0.367,0.049,0.527-0.001c0.195-0.061,0.444-0.161,0.531-0.32
		c0.371-0.677,0.844-1.336,0.754-2.044c-1.038-0.465-1.974-0.839-2.868-1.296c-1.023-0.524-1.989-1.16-3.014-1.679
		c-2.537-1.287-4.362-0.953-6.262,1.181C201.247,143.145,202.708,143.769,203.881,144.739z M243.362,141.599
		c-0.622,0.101-1.246,0.14-1.823,0.325c-0.266,0.085-0.568,0.426-0.635,0.703c-0.383,1.581-0.705,3.178-1.038,4.771
		c-0.099,0.473-0.239,0.944,0.179,1.372c1.311,1.34,2.941,2.124,4.723,2.521c0.636,0.142,1.164,0.327,1.648,0.724
		c0.255,0.209,0.522,0.402,0.864,0.663C245.95,148.919,244.669,145.296,243.362,141.599z M265.696,500.278
		c-0.458,0.506-0.372,0.878,0.089,1.356c2.157,2.23,4.864,3.503,7.761,4.36c1.552,0.46,3.202,0.592,4.81,0.86
		c0.635,0.106,1.276,0.178,1.914,0.266c0.033-0.108,0.066-0.215,0.099-0.323c-2.491-0.834-5.014-1.615-7.204-3.086
		c-2.191-1.471-4.323-3.03-6.565-4.609C266.332,499.455,266.044,499.893,265.696,500.278z M282.507,471.925
		c1.606,1.69,3.449,2.884,5.564,4.133c-0.657-3.581-1.266-6.893-1.917-10.441C284.875,467.829,283.7,469.861,282.507,471.925z
		 M276.197,484.735c2.6,2.624,5.37,5.034,8.774,6.577c1.796,0.814,3.663,1.421,5.703,1.419c-2.665-1.117-5.292-2.279-7.705-3.881
		c-2.445-1.623-4.573-3.604-6.695-5.805C275.713,484.203,275.691,484.224,276.197,484.735z M262.007,505.308
		c-0.449,2.095-0.004,4.001,1.135,5.291c1.879,2.127,4.455,2.683,7.062,3.128C266.685,511.717,264.022,508.928,262.007,505.308z
		 M274.762,101.265c-0.961-2.487-1.067-5.006-0.32-7.586c-1.779,0.469-2.785,2.349-2.159,3.962c0.397,1.023,0.91,2.004,1.424,2.976
		c0.162,0.306,0.494,0.523,0.748,0.781C274.557,101.353,274.659,101.309,274.762,101.265z M301.221,482.156
		c1.922,0.168,3.849,0.298,5.766,0.519c1.069,0.123,1.558-0.471,2.091-1.296c-2.713,0.176-5.294,0.342-7.875,0.509
		C301.209,481.978,301.215,482.067,301.221,482.156z M282.333,100.187c0.214-0.559,0.42-1.121,0.644-1.676
		c0.489-1.216,0.489-1.223-0.862-1.749c0,1.136,0,2.254,0,3.372C282.187,100.151,282.26,100.169,282.333,100.187z M242.653,137.161
		c-0.29,0.978-0.579,1.956-0.934,3.153c0.682-0.121,1.114-0.198,1.476-0.263c-0.103-1.075-0.189-1.976-0.275-2.878
		C242.831,137.169,242.742,137.165,242.653,137.161z M303.494,98.468c0.438,0.713,0.437,1.795,1.453,2.056
		c-0.107-1.138-0.283-2.211-0.287-3.284c-0.005-1.117,0.157-2.235,0.249-3.402c-1.069,0.39-1.823,1.25-2.748,2.05
		C302.642,96.834,303.013,97.685,303.494,98.468z M315.457,94.568c0,0.803,0.027,1.631-0.008,2.457
		c-0.035,0.831-0.13,1.659-0.202,2.533C316.511,98.071,316.578,95.891,315.457,94.568z M289.48,128.854
		c0.213,0.765,0.444,1.526,0.714,2.272c0.517,1.43,1.588,2.26,3.063,2.399c1.404,0.132,2.829,0.117,4.242,0.067
		c0.826-0.029,0.936-0.272,0.982-1.429c-1.705,0.766-3.373,0.426-5.027-0.079c-1.411-0.431-2.577-1.199-3.118-2.641
		c-0.191-0.51-0.213-1.083-0.329-1.726C289.46,128.016,289.356,128.408,289.48,128.854z"/>
	<path fill="#F8E0D4" d="M321.087,102.176c0.099,1.821-0.566,3.267-1.465,4.66c-1.01,1.566-1.95,3.177-2.93,4.763
		c-0.11,0.178-0.278,0.32-0.634,0.721c-0.142-1.358-0.221-2.395,0.466-3.377c0.507-0.724,0.99-1.468,1.435-2.231
		c0.605-1.036,0.51-2.133,0.096-3.198c-0.107-0.274-0.432-0.558-0.711-0.633c-0.15-0.04-0.497,0.315-0.613,0.559
		c-0.205,0.433-0.31,0.914-0.441,1.38c-0.238,0.849-0.551,1.655-1.328,2.509c-0.069-0.517-0.105-0.83-0.153-1.141
		c-0.06-0.391-0.058-0.816-0.223-1.159c-0.105-0.219-0.465-0.316-0.71-0.468c-0.128,0.245-0.368,0.493-0.362,0.735
		c0.013,0.482,0.147,0.964,0.255,1.441c0.207,0.91,0.455,1.791,1.809,1.526c-0.747,1.427-1.137,2.757-0.664,4.279
		c-0.581-0.708-1.163-1.417-1.81-2.206c1.093-0.381,0.847-1.253,0.672-2.043c-0.258-1.163-0.594-2.309-0.917-3.456
		c-0.041-0.145-0.207-0.255-0.316-0.383c-0.861,0.791-0.802,1.58,0.346,4.431c-0.374-0.116-0.678-0.132-0.875-0.285
		c-0.877-0.68-1.722-1.402-2.583-2.104c-0.361-0.294-0.733-0.575-1.148-0.9c-0.447,0.672-0.231,1.01,0.207,1.354
		c0.661,0.518,1.284,1.083,2.09,1.771c-1.694-0.15-2.139-1.859-3.784-2.287c0.304,0.613,0.403,1.068,0.683,1.329
		c0.741,0.692,1.534,1.337,2.358,1.93c0.57,0.411,1.208,0.741,1.848,1.039c1.373,0.642,2.064,1.917,2.89,3.06
		c0.149,0.206,0.212,0.662,0.086,0.85c-1.055,1.571-2.164,3.106-3.302,4.717c-0.764-0.64-0.823-1.295-0.836-2.028
		c-0.021-1.149-0.145-2.297-0.24-3.445c-0.018-0.217-0.059-0.465-0.18-0.633c-0.138-0.19-0.378-0.305-0.574-0.452
		c-0.14,0.24-0.399,0.482-0.397,0.721c0.004,0.663,0.116,1.325,0.187,1.988c0.033,0.309,0.136,0.626,0.093,0.924
		c-0.195,1.375,0.045,2.642,0.81,3.81c0.056,0.086-0.008,0.251-0.024,0.493c-0.696-0.29-0.983-0.876-1.359-1.374
		c-0.854-1.131-1.695-2.274-2.593-3.37c-0.281-0.344-0.726-0.554-1.099-0.827c-0.486,0.634-0.093,0.977,0.154,1.308
		c1.14,1.53,2.277,3.063,3.469,4.552c0.465,0.581,0.545,1.043,0.07,1.647c-1.784,2.272-3.58,4.536-5.296,6.859
		c-1.898,2.569-3.715,5.199-5.565,7.803c-0.401,0.564-0.795,1.134-1.213,1.731c0.579,0.432,0.873,0.108,1.197-0.205
		c1.917-1.853,3.812-3.731,5.776-5.534c1.439-1.322,2.971-2.543,4.467-3.801c0.122-0.102,0.294-0.144,0.625-0.3
		c-0.111,0.369-0.148,0.572-0.23,0.757c-1.669,3.766-3.327,7.537-5.036,11.284c-0.203,0.446-0.623,0.963-1.056,1.109
		c-4.566,1.535-8.944,1.443-12.74-1.941c-1.387-1.236-2.602-2.671-3.849-4.058c-2.051-2.279-3.969-4.685-6.118-6.866
		c-2.195-2.228-3.551-4.952-5.204-7.611c0.961-0.727,1.401-1.817,2.559-2.189c0.609-0.196,0.666-0.625,0.276-1.142
		c-0.127-0.169-0.321-0.289-0.376-0.337c0-0.878,0.077-1.633-0.021-2.365c-0.1-0.75-0.716-0.922-1.229-0.343
		c-0.434,0.49-0.733,1.099-1.091,1.657c-0.396,0.619-0.789,1.239-1.342,2.107c-0.692-1.461-1.201-2.671-1.386-3.946
		c-0.062-0.425,0.511-0.954,0.818-1.418c0.402-0.607,0.946-0.876,1.703-0.757c0.568,0.089,1.154,0.09,1.731,0.085
		c1.301-0.012,2.387-0.966,2.586-2.239c0.167-1.066-0.202-1.426-1.233-1.181c-0.344,0.082-0.684,0.197-1.011,0.331
		c-0.304,0.124-0.589,0.294-0.928,0.363c0.518-0.889,1.373-1.308,2.25-1.682c1.018-0.434,1.48-0.885,1.357-1.398
		c-0.116-0.486-1.097-1.087-1.845-1.106c-0.214-0.005-0.431,0.065-0.645,0.101c-0.107-0.127-0.175-0.248-0.278-0.322
		c-0.302-0.218-0.703-0.649-0.908-0.573c-0.352,0.131-0.763,0.545-0.839,0.906c-0.423,2.002-2.045,2.855-3.695,4.195
		c0-2.074,0-3.818,0-5.741c0.801,0,1.703,0,2.589,0c0.299-0.72,0.278-1.205-0.34-1.479c-0.509-0.226-0.707-0.529-0.71-1.12
		c-0.007-1.316-0.422-1.487-1.622-0.78c-0.102,0.06-0.246,0.049-0.395,0.075c-0.215-1.713-0.427-3.395-0.658-5.235
		c0.943,0.746,1.281,1.729,1.789,2.583c0.384,0.646,0.716,1.326,1.025,2.011c0.549,1.218,1.552,1.608,2.793,1.659
		c1.518,0.061,3.021,0.014,4.503-0.368c0.341-0.088,0.715-0.165,1.055-0.118c1,0.137,1.569-0.35,1.96-1.191
		c0.392-0.844,0.837-1.664,1.204-2.519c0.393-0.914,0.35-1.314-0.417-1.852c-1.922-1.35-3.85-2.705-5.876-3.887
		c-0.845-0.493-1.969-0.823-2.919-0.733c-1.037,0.099-2.025,0.759-3.02,1.205c-0.219,0.098-0.379,0.328-0.641,0.565
		c-0.152-0.258-0.222-0.478-0.372-0.605c-0.199-0.17-0.46-0.268-0.695-0.397c-0.074,0.314-0.255,0.651-0.193,0.937
		c0.069,0.324,0.387,0.587,0.536,0.906c0.105,0.226,0.108,0.499,0.182,0.878c-0.767-0.217-1.159-0.647-1.245-1.277
		c-0.381-2.759-1.089-5.485-0.935-8.359c2.667,0.703,5.227,1.536,7.492,3.07c2.133,1.445,4.239,2.93,6.347,4.411
		c0.548,0.385,1.056,0.83,1.883,0.464c-0.12-1.454,0.998-2.856,0.249-4.577c-0.977,0.854-0.785,1.984-1.301,2.956
		c-0.313-0.245-0.587-0.508-0.905-0.7c-2.503-1.515-4.968-3.102-7.542-4.488c-1.426-0.768-3.025-1.227-4.572-1.752
		c-0.478-0.162-1.038-0.082-1.638-0.117c0-0.778,0-1.648,0-2.683c0.837,0.17,1.617,0.271,2.361,0.493
		c1.288,0.385,1.25,0.395,2-0.763c2.052-3.168,4.129-6.32,6.205-9.473c0.265-0.403,0.586-0.769,1.069-1.063
		c-0.088,0.244-0.149,0.502-0.268,0.729c-1.321,2.51-2.65,5.016-3.978,7.523c-0.432,0.816-0.855,1.637-1.305,2.443
		c-0.417,0.748-0.043,1.393,0.874,1.445c1.95,0.11,3.906,0.157,5.851,0.324c2.387,0.205,4.772,0.458,7.143,0.793
		c0.809,0.114,1.599,0.487,2.352,0.841c0.959,0.451,1.346,0.344,1.672-0.628c0.042-0.126,0.048-0.27,0.113-0.381
		c1.307-2.207,2.619-4.41,3.931-6.613c0.08,0.037,0.16,0.073,0.241,0.11c-0.265,0.619-0.507,1.25-0.8,1.855
		c-0.407,0.839-0.868,1.651-1.272,2.491c-0.12,0.25-0.124,0.554,0.038,1.03c0.306-0.185,0.667-0.318,0.905-0.567
		c0.49-0.512,0.949-1.062,1.358-1.641c2.255-3.19,4.645-6.29,6.504-9.745c0.059-0.109,0.17-0.191,0.382-0.422
		c-0.016,0.333,0.017,0.525-0.04,0.685c-1.035,2.917-2.078,5.831-3.128,8.743c-0.285,0.791-0.594,1.573-0.904,2.354
		c-0.332,0.836-0.299,1.031,0.526,1.27c0.752,0.218,1.543,0.404,2.319,0.411c2.53,0.023,5.052,0.03,7.661,0.861
		c-1.133,0.621-2.134,1.248-3.198,1.737c-2.988,1.373-5.953,2.778-8.566,4.812c-0.418,0.325-0.783,0.32-1.215,0.056
		c-0.414-0.253-0.843-0.49-1.29-0.676c-0.333-0.139-0.704-0.184-1.058-0.272c-0.059,0.087-0.117,0.174-0.176,0.26
		c0.145,0.219,0.24,0.52,0.444,0.643c0.984,0.596,1.996,1.148,3.002,1.709c0.4,0.223,0.75,0.152,1.083-0.172
		c3.011-2.921,6.74-4.713,10.402-6.613c0.569-0.295,1.086-0.688,1.6-1.317c1.176,0.342,2.382,0.605,3.519,1.047
		c1.275,0.496,1.353,0.53,2.047-0.718c1.401-2.52,2.801-5.041,4.207-7.558c0.145-0.26,0.33-0.498,0.729-0.652
		c-0.273,0.846-0.542,1.693-0.819,2.537c-0.47,1.432-0.938,2.864-1.421,4.291c-0.14,0.415-0.374,0.802-0.477,1.223
		c-0.089,0.364-0.163,0.796-0.051,1.134c0.664,2.012,1.491,3.977,2.044,6.017c0.343,1.266,0.325,2.635,0.418,3.962
		c0.055,0.782,0.01,1.572,0.01,2.681c-0.93-0.735-1.642-1.297-2.299-1.816c-0.455,0.619-0.797,1.084-1.214,1.651
		c0.164,0.213,0.397,0.517,0.697,0.907c-0.889,0.772-0.003,1.478,0.157,2.244C319.849,103.159,320.32,102.187,321.087,102.176z
		 M300.599,96.09c0.449,0.488,0.904,0.851,1.186,1.318c0.479,0.794,0.897,1.634,1.251,2.491c0.365,0.883,0.924,1.444,1.852,1.754
		c2.324,0.777,4.662,1.422,7.136,1.46c0.515,0.008,1.038,0.135,1.539,0.271c0.629,0.171,1.014,0.069,1.046-0.568
		c0.036-0.721,0.447-1.123,0.853-1.588c0.796-0.912,1.464-1.923,1.676-3.121c0.102-0.578,0.323-0.99,0.728-1.356
		c0.297-0.268,0.629-0.51,0.87-0.822c0.138-0.178,0.23-0.521,0.147-0.699c-0.064-0.138-0.432-0.187-0.663-0.181
		c-0.236,0.006-0.47,0.126-0.715,0.199c-0.609-1.092-0.85-2.063,0.086-2.999c0.122-0.122,0.223-0.285,0.28-0.448
		c0.146-0.412-0.224-0.843-0.641-0.732c-0.203,0.054-0.399,0.195-0.56,0.339c-0.776,0.694-1.514,0.617-2.431,0.157
		c-1.098-0.551-2.296-1.003-3.575-0.862c-1.006,0.112-2.011,0.284-2.995,0.52C304.688,91.939,302.565,93.898,300.599,96.09z
		 M285.873,123.639c0.278,0.464,0.394,0.754,0.591,0.971c0.938,1.035,1.191,2.357,1.566,3.628c0.337,1.141,0.633,2.295,1.011,3.421
		c0.456,1.357,1.525,2.154,2.755,2.743c1.716,0.822,3.564,0.662,5.379,0.599c1.66-0.058,3.221-1.741,3.299-3.417
		c0.161-3.454-2.602-6.542-5.056-7.53C292.382,122.832,289.244,123.281,285.873,123.639z M286.598,118.085
		c-0.672-0.252-1.224-0.563-1.81-0.654c-0.756-0.118-1.196-0.544-1.513-1.153c-0.482-0.925-0.849-1.865-0.202-2.89
		c0.133-0.211,0.116-0.514,0.183-0.77c0.445-1.703,0.876-3.41,1.346-5.105c0.435-1.568,0.923-3.121,1.367-4.687
		c0.07-0.248,0.092-0.54,0.031-0.785c-0.042-0.168-0.258-0.392-0.411-0.405c-0.142-0.011-0.378,0.196-0.443,0.358
		c-0.198,0.49-0.349,1.001-0.489,1.511c-0.49,1.787-0.964,3.579-1.45,5.368c-0.475,1.749-0.985,3.49-1.415,5.25
		c-0.108,0.441-0.084,0.987,0.08,1.407c0.605,1.547,1.696,2.683,3.187,3.43C285.877,119.371,285.971,119.335,286.598,118.085z
		 M310.562,89.521c-0.011-0.119-0.022-0.237-0.033-0.356c-0.33-0.068-0.671-0.227-0.986-0.186c-0.784,0.102-1.58,0.22-2.328,0.464
		c-2.666,0.868-4.93,2.405-6.927,4.35c-0.305,0.297-0.641,0.621-0.344,1.276c1.714-1.201,3.269-2.535,5.038-3.46
		C306.729,90.698,308.693,90.201,310.562,89.521z M307.754,115.007c-0.915-0.54-1.279-1.663-2.541-1.578
		c0.075,0.302,0.062,0.554,0.182,0.687c0.99,1.102,2.005,2.181,3.2,3.471c0.436-1.81,0.018-3.384,0.19-4.921
		c0.014-0.125-0.251-0.282-0.455-0.495C307.595,113.047,308.063,114.051,307.754,115.007z M274.271,90.428
		c0.487,0.675,1.202,0.859,1.903,1.077c0.711,0.221,1.445,0.397,2.117,0.705c0.677,0.311,1.268,0.808,1.939,1.137
		c0.607,0.298,0.954,1.19,2.045,0.853c-1.155-1.697-2.807-2.495-4.459-3.258C276.722,90.436,275.567,90.056,274.271,90.428z
		 M291.041,89.925c-0.096,0.084-0.192,0.168-0.288,0.252c0.086,0.213,0.109,0.521,0.267,0.625c2.064,1.352,4.142,2.682,6.236,3.986
		c0.126,0.079,0.417-0.106,0.945-0.258C295.737,92.742,293.311,91.453,291.041,89.925z M284.694,94.701
		c-0.362,1.822,0.251,3.229,0.571,4.667c0.02,0.091,0.371,0.109,0.571,0.161c0.287-1.195,0.125-3.07-0.387-4.207
		C285.363,95.132,285.096,95.023,284.694,94.701z M288.316,116.841c-0.044,0.758,0.085,1.335,0.785,1.544
		c0.557,0.166,1.135,0.153,1.383-0.551C289.714,116.991,289.541,116.907,288.316,116.841z M238.988,113.685
		c0.156,1.974,0.315,3.943-0.057,5.929c-0.352,1.874-0.622,3.764-0.993,5.635c-0.506,2.553-1.041,5.095-1.836,7.588
		c-1.062,3.33-1.986,6.704-2.901,10.078c-0.205,0.756-0.222,1.598-0.151,2.384c0.089,0.995,0.524,1.843,1.73,2.239
		c0-0.409,0.064-0.708-0.01-0.968c-0.535-1.872-0.159-3.703,0.312-5.497c0.572-2.181,1.283-4.325,1.935-6.485
		c0.486-1.608,1.012-3.204,1.448-4.825c0.318-1.185,0.506-2.404,0.781-3.601c0.076-0.331,0.182-0.697,0.393-0.947
		c0.947-1.121,1.936-2.206,2.911-3.303c0.059-0.067,0.112-0.162,0.187-0.187c0.363-0.118,0.765-0.351,1.087-0.273
		c0.209,0.051,0.439,0.572,0.428,0.874c-0.06,1.64-0.013,3.313-0.332,4.91c-0.971,4.866-2.389,9.618-4.168,14.249
		c-0.692,1.802-0.598,3.741-1.219,5.538c-0.084,0.244-0.123,0.504-0.19,0.788c-0.265,0.035-0.476,0.076-0.689,0.088
		c-1.875,0.105-2.899,1.331-2.661,3.191c0.185,1.444,0.721,2.771,1.656,3.858c0.835,0.972,0.891,1.779,0.084,2.776
		c-0.668,0.826-1.218,1.751-1.793,2.65c-0.224,0.351-0.374,0.749-0.559,1.125c0.074,0.084,0.147,0.167,0.22,0.251
		c0.274-0.135,0.624-0.203,0.809-0.416c0.844-0.971,1.695-1.945,2.437-2.994c0.479-0.677,0.983-0.94,1.794-0.765
		c0.888,0.192,1.794,0.3,2.785,0.459c-0.118-0.753-0.473-1.043-1.046-1.197c-2.512-0.674-3.952-2.436-4.73-4.807
		c-0.175-0.534-0.243-1.138-0.204-1.7c0.061-0.882,0.657-1.243,1.507-0.943c0.581,0.205,1.255,0.403,1.65,0.826
		c1.217,1.303,2.91,1.649,4.403,2.389c0.626,0.31,1.363,0.43,1.938,0.806c1.542,1.008,2.036,2.572,1.286,4.576
		c-0.751,2.005-2.155,3.586-3.672,5.023c-2.903,2.751-5.832,5.48-8.873,8.074c-1.159,0.988-2.581,1.784-4.014,2.306
		c-2.117,0.772-4.26,0.698-6.139-0.872c-0.353-0.295-0.867-0.412-1.323-0.564c-1.806-0.602-3.686-0.417-5.538-0.45
		c-2.194-0.039-4.347-0.262-6.376-1.135c-0.768-0.33-1.467-0.819-2.195-1.241c-0.328-0.19-0.649-0.394-0.981-0.596
		c-0.099,0.197-0.187,0.302-0.164,0.337c0.956,1.493,2.237,2.586,3.899,3.249c1.478,0.589,3.035,0.586,4.577,0.723
		c0.485,0.043,0.97,0.086,1.528,0.348c-0.278,0.111-0.548,0.29-0.835,0.323c-2.16,0.252-4.322,0.487-6.486,0.703
		c-1.636,0.163-3.273,0.329-4.913,0.42c-1.189,0.066-2.384,0.013-3.685,0.013c0.188-0.697,0.343-1.405,0.57-2.088
		c0.948-2.853,1.914-5.7,2.881-8.547c0.497-1.462,0.958-2.94,1.533-4.372c0.526-1.311,1.224-2.552,1.775-3.854
		c2.172-5.136,4.319-10.282,6.469-15.427c1.571-3.759,3.115-7.529,4.717-11.275c0.249-0.583,0.752-1.057,1.124-1.59
		c0.175-0.25,0.314-0.525,0.477-0.784c0.227-0.359,0.462-0.714,0.693-1.071c0.102,0.009,0.204,0.019,0.305,0.028
		c0.12,0.438,0.339,0.874,0.344,1.313c0.023,1.856,0.264,3.716-0.333,5.557c-0.249,0.767,0.017,1.707-0.255,2.458
		c-0.979,2.705-2.09,5.362-3.14,8.042c-0.084,0.214-0.076,0.463-0.121,0.769c0.82-0.046,1.012-0.659,1.346-1.082
		c1.344-1.702,1.983-3.734,2.69-5.74c2.013-5.716,3.859-11.499,6.661-16.903c0.461-0.889,1.008-1.733,1.521-2.606
		c0.813,0.31,0.965,0.928,0.99,1.456c0.044,0.918-0.021,1.855-0.168,2.764c-0.183,1.134-0.457,2.258-0.761,3.367
		c-0.667,2.43-1.385,4.845-2.068,7.27c-0.828,2.939-1.573,5.903-2.488,8.814c-0.466,1.482-0.536,2.957-0.529,4.468
		c0.002,0.419-0.024,0.846,0.561,0.85c0.514,0.004,0.658-0.36,0.719-0.792c0.158-1.137,0.225-2.299,0.504-3.406
		c0.671-2.657,1.447-5.288,2.174-7.932c0.985-3.58,1.941-7.169,2.965-10.738c0.229-0.798,0.694-1.526,1.035-2.293
		c1.082-2.43,2.045-4.922,3.71-7.043c0.204-0.26,0.458-0.481,0.688-0.72C238.747,113.589,238.868,113.637,238.988,113.685z
		 M217.309,159.472c1.465-0.573,2.721-1.079,3.988-1.555c1.197-0.449,2.382-0.965,3.617-1.275c1.967-0.494,3.97-0.843,5.958-1.253
		c0.481-0.099,0.965-0.195,0.997-1.042c-0.45,0-0.869-0.044-1.275,0.009c-0.791,0.104-1.576,0.262-2.362,0.4
		c-1.223,0.216-2.493,0.292-3.657,0.684c-1.926,0.649-3.79,1.484-5.664,2.281c-0.482,0.205-0.934,0.521-1.333,0.863
		C217.411,158.729,217.419,159.076,217.309,159.472z M218.361,146.135c-0.699,0.24-1.292,0.399-1.841,0.653
		c-0.215,0.1-0.333,0.411-0.495,0.627c0.257,0.116,0.541,0.367,0.767,0.323c0.592-0.114,1.174-0.325,1.73-0.564
		c0.195-0.084,0.468-0.457,0.423-0.536C218.82,146.416,218.545,146.28,218.361,146.135z M229.825,147.646
		c0.264,0.77,0.732,0.724,1.155,0.621c0.426-0.104,0.823-0.319,1.239-0.469c0.34-0.123,0.756-0.229,0.614-0.695
		c-0.16-0.525-0.645-0.423-1.01-0.296C231.165,147.037,230.535,147.343,229.825,147.646z M189.43,259.339
		c-0.314-0.017-0.655,0.039-0.938-0.065c-0.953-0.349-1.883-0.761-2.826-1.138c-3.892-1.556-6.954-4.056-8.949-7.798
		c-0.288-0.54-0.691-1.04-1.131-1.466c-0.202-0.196-0.659-0.301-0.936-0.221c-1.485,0.428-2.96,0.899-4.416,1.417
		c-0.549,0.196-1.039,0.56-1.706,0.931c0.83,0.626,1.47,1.164,2.164,1.62c2.237,1.468,4.23,3.443,7.215,3.371
		c0.561-0.014,0.884,0.513,0.613,1.196c-0.206,0.025-0.38,0.079-0.547,0.061c-2.098-0.23-4.111-0.708-5.855-1.991
		c-0.823-0.606-1.636-1.236-2.513-1.755c-1.331-0.787-2.702-1.51-4.083-2.206c-0.333-0.168-0.803-0.24-1.158-0.149
		c-0.714,0.181-1.396,0.492-2.083,0.77c-2.861,1.159-5.543,2.798-8.691,3.194c-0.559,0.07-0.726,0.508-0.419,0.99
		c0.524,0.823,1.276,1.313,2.261,1.494c1.78,0.326,3.543,0.213,5.306-0.088c0.229-0.039,0.44-0.188,0.628-0.271
		c-0.047-0.611-1.053-0.831-0.424-1.593c0.21,0.084,0.427,0.137,0.606,0.25c1.389,0.877,2.816,1.703,4.139,2.673
		c0.97,0.711,1.835,1.006,2.886,0.23c0.377-0.279,0.751-0.179,0.978,0.417c-0.221,0.223-0.429,0.509-0.704,0.698
		c-1.048,0.721-2.21,1.117-3.495,1.117c-1.957-0.001-3.914,0.017-5.871-0.002c-1.119-0.011-2.199,0.114-3.283,0.433
		c-2.167,0.637-2.778,1.351-2.825,3.568c-0.018,0.871,0.065,1.025,0.923,1.131c1.234,0.153,2.478,0.342,3.715,0.322
		c1.721-0.028,3.44-0.221,5.157-0.377c0.451-0.041,1.039-0.552,1.292,0.055c0.31,0.743-0.507,0.826-0.948,0.968
		c-1.792,0.577-3.639,0.746-5.524,0.668c-1.998-0.083-4.001-0.118-6.001-0.097c-1.309,0.014-1.928,0.666-1.766,1.938
		c0.115,0.905,0.402,1.824,0.796,2.65c1.085,2.276,2.653,4.307,3.388,6.769c0.199,0.666,0.612,0.747,1.267,0.426
		c0.642-0.315,1.057-0.794,1.121-1.535c0.03-0.354,0.065-0.709,0.119-1.06c0.15-0.987-0.102-1.635-1.133-2.094
		c-0.99-0.44-1.842-1.2-2.727-1.856c-0.285-0.212-0.504-0.539-0.041-0.985c0.261,0.157,0.544,0.343,0.841,0.501
		c0.818,0.434,1.602,0.992,2.473,1.256c2.11,0.641,4.277,1.097,6.393,1.719c1.223,0.36,2.526,0.704,3.56,1.401
		c1.869,1.259,3.7,2.64,5.302,4.218c2.671,2.631,5.84,3.734,9.491,3.811c3.259,0.069,6.403-0.601,9.69-1.353
		c-0.25-0.309-0.425-0.536-0.611-0.753c-1.714-1.998-2.93-4.285-3.223-6.888c-0.411-3.658,0.035-7.274,1.303-10.749
		c0.986-2.7,2.027-5.38,3.083-8.054c0.864-2.188,0.626-2.849-1.508-3.794c-0.325-0.144-0.656-0.278-0.994-0.384
		c-0.758-0.239-1.233,0.037-1.273,0.837c-0.031,0.61,0.025,1.249,0.181,1.839c0.336,1.277,0.586,2.619,1.918,3.398
		C189.566,259.083,189.498,259.211,189.43,259.339z M230.011,554.178c0.554-0.336,0.377-0.752,0.152-1.302
		c-0.821,0.458-1.197,1.206-1.674,1.839c-0.29,0.385-0.429,0.882-0.708,1.278c-0.352,0.501-0.731,1.002-1.184,1.408
		c-0.407,0.364-0.924,0.458-1.492,0.217c-0.852-0.361-1.748-0.62-2.597-0.987c-1.141-0.494-1.557-1.731-0.978-2.928
		c0.308-0.637,0.741-1.211,1.087-1.831c0.473-0.847,1.006-1.67,0.896-2.726c-0.062-0.602,0.457-0.829,0.891-1.029
		c2.025-0.93,4.139-1.269,6.353-0.889c6.597,1.133,11.517,4.819,15.361,10.121c1.421,1.96,2.276,4.199,2.919,6.51
		c0.186,0.668,0.131,1.415,0.109,2.123c-0.009,0.277-0.164,0.622-0.369,0.808c-1.013,0.919-2.097,1.744-3.45,2.218
		c0.35-2.493-0.393-2.353-1.987-2.438c1.171-1.471,2.462-2.803,3.118-4.672c-0.791-0.148-1.02,0.412-1.341,0.766
		c-0.747,0.82-1.458,1.672-2.203,2.494c-0.163,0.179-0.406,0.285-0.77,0.532c0.242-1.891-0.994-2.147-2.421-2.351
		c1.68-1.539,2.528-3.344,2.889-5.549c-0.786,0.055-1.071,0.487-1.209,0.92c-0.731,2.302-2.623,3.649-4.249,5.199
		c-0.779,0.743-1.766,0.52-2.621,0.051c-0.772-0.424-1.065-1.135-0.834-2.115c0.577,0.553,1.06,1.103,1.629,1.54
		c0.799,0.613,1.38,0.598,1.911,0.086c0.536-0.518,0.745-1.64,0.41-2.203c-0.392-0.658-1.119-0.858-1.987-0.546
		c-0.272,0.098-0.544,0.201-0.825,0.305c0.955-1.602,1.878-3.137,2.78-4.684c0.074-0.127,0.01-0.334,0.01-0.596
		c-0.897,0.191-0.981,1.022-1.433,1.49c-0.492,0.51-0.925,1.078-1.388,1.617c-0.461,0.536-0.926,1.069-1.513,1.527
		c0.236-0.909,0.347-1.702-0.454-2.313c-0.693-0.529-1.46-0.561-2.392-0.066c0.343-1.348,0.628-2.466,0.946-3.717
		c-0.563-0.043-0.974-0.074-1.385-0.105L230.011,554.178z M224.201,552.068c-0.603,0.401-1.266,0.743-1.806,1.224
		c-1.028,0.917-0.886,1.766,0.376,2.329c0.877,0.391,1.796,0.695,2.71,0.998c0.752,0.25,1.273-0.01,1.597-0.723
		c0.394-0.868,0.299-1.416-0.401-2.135c-0.369-0.379-0.731-0.778-1.157-1.084C225.178,552.431,224.745,552.312,224.201,552.068z
		 M275.043,108.541c-1.397,1.449-2.819,2.875-4.214,4.326c-0.152,0.158-0.191,0.425-0.283,0.642
		c0.266,0.059,0.579,0.235,0.787,0.151c0.351-0.142,0.721-0.391,0.932-0.699c0.552-0.804,1.259-1.021,2.186-0.868
		c0.563,0.093,1.15,0.084,1.723,0.059c0.699-0.031,1.241-0.336,1.611-1.308c-1.538,0.578-2.906,1.152-4.57,0.387
		c0.814-0.804,1.42-1.5,2.127-2.072c0.723-0.584,1.544-1.046,2.485-1.669c-0.804,0.04-1.438,0.072-2.087,0.105
		C275.51,107.912,275.313,108.261,275.043,108.541z M342.99,100.253c-1.228,2.663-2.476,5.373-3.811,8.27
		C341.855,106.622,344.059,102.097,342.99,100.253z M273.65,120.863c1.082-0.37,1.614-1.451,2.493-2.141
		c-0.19-0.275-0.327-0.472-0.454-0.656c-0.773,0.859-1.492,1.659-2.212,2.459C273.534,120.638,273.592,120.75,273.65,120.863z
		 M231.92,561.013c-0.718-0.443-1.436-0.885-2.436-1.501c0.157,0.777,0.258,1.276,0.344,1.704c0.834,0,1.464,0,2.093,0
		C231.921,561.148,231.921,561.08,231.92,561.013z M239.122,566.713c0.427,0.196,0.889,0.313,1.308-0.2
		c-0.61-0.406-1.173-0.781-1.823-1.214C238.525,565.953,238.558,566.453,239.122,566.713z M242.102,568.588
		c0.402,0.676,0.937,1.133,1.797,0.923c-0.555-0.63-1.085-1.231-1.733-1.967C241.714,567.758,241.867,568.192,242.102,568.588z
		 M232.181,559.387c0.084-0.073,0.096-0.367,0.02-0.461c-0.371-0.457-0.744-0.343-1.152,0.143
		C231.4,559.531,231.73,559.778,232.181,559.387z M270.392,103.805c0.293-0.106,0.639-0.153,0.854-0.346
		c0.102-0.091-0.049-0.464-0.129-0.996c-0.424,0.542-0.649,0.829-0.874,1.116C270.293,103.654,270.343,103.73,270.392,103.805z
		 M236.565,562.531c0.102-0.057,0.182-0.36,0.123-0.461c-0.315-0.531-0.704-0.344-1.151,0.006
		C235.802,562.43,236.016,562.838,236.565,562.531z M321.466,100.771c-0.219-0.308-0.491-0.57-0.915-0.332
		c-0.12,0.068-0.107,0.373-0.155,0.569c0.329,0.047,0.658,0.095,0.987,0.142C321.411,101.023,321.438,100.897,321.466,100.771z
		 M240.027,565.018c0.306,0.184,0.613,0.369,1.069,0.643c0.063-1.053-0.431-0.982-0.9-0.945
		C240.14,564.816,240.084,564.917,240.027,565.018z M225.334,553.762c-0.852-0.612-1.433-0.48-2.387,0.612
		c0.98,0.409,1.928,0.805,2.876,1.2C226.243,554.848,226.092,554.306,225.334,553.762z"/>
	<path fill="#AF9FC3" d="M323.156,224.982c1.556,2.204,2.551,4.511,3.232,6.957c0.667,2.397,1.18,4.827,1.191,7.331
		c0.004,0.935,0.605,1.344,1.332,1.629c0.699,0.274,1.43,0.466,2.147,0.693c0.169,0.053,0.386,0.051,0.504,0.159
		c1.342,1.232,3.163,1.004,4.711,1.576c2.403,0.888,4.935,0.313,7.366,0.843c1.51,0.329,1.527,0.113,2.273-1.238
		c0.855-1.55,1.562-3.182,2.333-4.778c0.058-0.12,0.107-0.246,0.178-0.358c0.626-0.994,1.005-1.825,0.164-3.082
		c-0.782-1.169-0.972-2.734-1.426-4.123c-0.673-2.062-1.431-4.1-2.001-6.19c-0.757-2.776-1.412-5.583-2.024-8.395
		c-0.366-1.681-0.566-3.399-0.846-5.135c0.761-1.108,2.013-1.17,3.149-1.425c2.592-0.583,5.196-1.112,7.794-1.67
		c1.9-0.408,3.805-0.8,5.695-1.251c1.417-0.337,2.845-0.67,4.212-1.159c2.286-0.818,4.572-1.662,6.776-2.673
		c2.645-1.213,5.036-2.83,6.791-5.233c0.309-0.423,0.59-0.868,0.986-1.453c0.51,1.26,0.97,2.38,1.418,3.505
		c1.372,3.452,2.701,6.921,4.118,10.355c1.72,4.17,3.534,8.301,5.267,12.466c1.308,3.145,2.619,6.292,3.805,9.484
		c1.075,2.894,2.003,5.844,2.957,8.781c0.572,1.763,1.087,3.545,1.591,5.328c0.216,0.763,0.367,1.547,0.498,2.33
		c0.696,4.161,1.385,8.32,0.817,12.568c-0.264,1.977-0.4,3.971-0.689,5.943c-0.198,1.353-0.583,2.678-0.842,4.024
		c-0.284,1.475-0.41,2.989-0.8,4.433c-0.553,2.048-0.533,4.135-0.686,6.213c-0.039,0.527-0.019,1.059-0.021,1.588
		c-0.003,0.701-0.001,1.403-0.001,2.182c-0.405,0.051-0.743,0.113-1.085,0.133c-5.245,0.299-10.497,0.344-15.729-0.086
		c-3.219-0.264-6.423-0.821-9.605-1.408c-2.733-0.504-5.471-1.083-8.122-1.901c-5.382-1.66-10.554-3.853-15.45-6.667
		c-3.246-1.866-6.282-4.028-9.157-6.418c-0.344-0.285-0.606-0.756-0.739-1.191c-0.493-1.608-0.984-3.223-1.345-4.864
		c-0.264-1.202-0.531-2.436-0.207-3.689c0.292-1.129,0.943-1.53,2.119-1.409c2.337,0.239,4.679,0.434,7.02,0.641
		c3.672,0.325,7.344,0.644,11.015,0.966c0.221,0.019,0.443,0.056,0.665,0.054c4.981-0.04,9.947,0.414,14.919,0.515
		c3.61,0.073,7.179,0.522,10.774,0.683c0.666,0.03,1.333,0.089,1.998,0.065c0.305-0.011,0.604-0.191,0.905-0.294
		c0.003-0.112,0.005-0.224,0.008-0.335c-0.288-0.109-0.571-0.294-0.866-0.315c-4.695-0.337-9.39-0.663-14.087-0.967
		c-1.241-0.08-2.488-0.064-3.732-0.112c-4.929-0.189-9.861-0.322-14.784-0.603c-2.921-0.167-5.829-0.573-8.743-0.872
		c-0.221-0.023-0.441-0.055-0.662-0.078c-1.98-0.205-3.96-0.418-5.942-0.607c-0.556-0.053-0.742-0.332-0.784-0.862
		c-0.096-1.194-0.235-2.384-0.38-3.573c-0.145-1.188-0.324-2.372-0.473-3.56c-0.026-0.21,0.024-0.43,0.049-0.796
		c1.178,0.306,2.279,0.577,3.372,0.877c3.15,0.865,6.302,1.723,9.444,2.618c3.612,1.028,7.212,2.098,10.82,3.14
		c2.124,0.614,4.249,1.223,6.382,1.803c0.482,0.131,1.047,0.351,1.466-0.356c-0.188-0.161-0.348-0.396-0.56-0.463
		c-1.224-0.382-2.46-0.729-3.694-1.078c-1.741-0.493-3.482-0.986-5.227-1.463c-1.7-0.465-3.408-0.901-5.107-1.367
		c-1.488-0.408-2.97-0.838-4.453-1.263c-1.782-0.511-3.562-1.031-5.345-1.54c-2.293-0.655-4.588-1.303-6.883-1.952
		c-1.607-0.455-3.22-0.888-4.816-1.378c-0.296-0.091-0.607-0.355-0.769-0.624c-2.062-3.432-3.845-6.977-4.852-10.896
		c-0.566-2.204-0.999-4.395-1.064-6.674c-0.018-0.632,0.107-1.009,0.611-1.316C322.366,225.518,322.69,225.29,323.156,224.982z
		 M398.378,284.967c2.161-0.253,4.332-0.453,6.476-0.811c2.443-0.408,4.854-0.999,7.292-1.445c2.136-0.391,4.236-0.895,6.216-1.791
		c1.244-0.563,2.334-1.388,2.725-2.766c0.397-1.4,0.779-2.83,0.919-4.271c0.293-3.003,0.453-6.021,0.609-9.036
		c0.214-4.127,0.464-8.255,0.537-12.385c0.145-8.225,0.116-16.45-0.538-24.659c-0.06-0.752-0.029-1.513-0.117-2.261
		c-0.28-2.381-0.598-4.758-0.9-7.136c-0.206-1.624-0.394-3.25-0.615-4.871c-0.234-1.713-0.42-3.437-0.764-5.129
		c-0.626-3.079-1.325-6.145-2.048-9.204c-0.567-2.403-1.159-4.803-1.846-7.173c-0.602-2.077-1.316-4.124-2.046-6.161
		c-0.756-2.109-1.592-4.189-2.432-6.383c-0.285,0.2-0.435,0.282-0.557,0.394c-1.736,1.592-3.408,3.261-5.214,4.768
		c-4.105,3.428-8.381,6.578-13.784,7.717c-2.894,0.61-5.716,0.487-8.477-0.616c-1.419-0.567-2.842-1.125-4.194-1.659
		c-0.381,1.53-0.761,3.056-1.193,4.791c0.06,0.133,0.242,0.488,0.381,0.858c1.244,3.315,2.398,6.667,3.737,9.943
		c2.865,7.009,5.835,13.975,8.741,20.968c2.5,6.015,4.677,12.144,6.347,18.445c0.316,1.194,0.517,2.42,0.74,3.637
		c0.271,1.479,0.504,2.964,0.76,4.446c0.481,2.785,0.37,5.588,0.129,8.375c-0.155,1.795-0.583,3.567-0.88,5.35
		c-0.225,1.35-0.419,2.706-0.66,4.053c-0.366,2.043-0.76,4.08-1.142,6.12c-0.082,0.436-0.157,0.874-0.239,1.311
		c-0.413,2.199-0.329,4.402-0.11,6.736C397.058,285.063,397.721,285.044,398.378,284.967z M332.859,146.136
		c0.35-0.291,0.758-0.536,1.039-0.883c0.611-0.757,1.395-1.249,2.279-1.564c2.016-0.719,4.103-1.131,6.244-1.155
		c3.833-0.044,7.57,0.603,11.292,1.499c3.217,0.774,6.262,1.947,9.16,3.495c2.676,1.43,5.232,3.083,7.089,5.54
		c1.009,1.336,1.97,2.778,2.587,4.319c0.663,1.658,0.925,3.481,1.313,5.242c0.533,2.423,1.084,4.844,1.512,7.286
		c0.544,3.104,1.141,6.188,2.3,9.13c1.256,3.188,3.164,5.881,6.263,7.508c0.957,0.503,2.066,0.848,3.14,0.974
		c3.221,0.378,6.239-0.388,9.101-1.892c3.978-2.09,7.39-4.91,10.561-8.049c0.974-0.964,1.914-1.961,2.955-3.031
		c-1.286-2.423-2.494-4.79-3.784-7.111c-4.28-7.704-9.613-14.628-15.82-20.86c-5.255-5.276-11.068-9.888-17.367-13.871
		c-4.356-2.755-8.891-5.181-13.544-7.401c-1.005-0.48-1.868-0.586-2.914-0.266c-1.224,0.374-2.493,0.609-3.751,0.856
		c-3.024,0.595-6.086,0.69-9.153,0.558c-0.965-0.041-1.921-0.268-2.883-0.395c-0.237-0.031-0.482-0.005-0.641-0.005
		c-0.463,7.407-3.361,13.79-7.209,19.831C332.704,145.974,332.781,146.055,332.859,146.136z M335.904,272.623
		c0.4,3.931,0.755,7.868,1.177,11.797c0.221,2.059,1.101,3.69,2.846,5.01c4.518,3.417,9.327,6.315,14.481,8.635
		c3.146,1.416,6.347,2.703,9.703,3.569c1.751,0.452,3.475,1.009,5.223,1.475c0.983,0.262,1.982,0.485,2.987,0.639
		c1.795,0.275,3.596,0.52,5.401,0.712c2.779,0.295,5.56,0.685,8.347,0.755c3.103,0.078,6.213-0.173,9.32-0.242
		c0.695-0.015,1.076-0.311,1.267-0.933c0.117-0.38,0.233-0.761,0.336-1.145c0.621-2.307,0.543-4.664,0.516-7.021
		c-0.034-2.874-0.686-5.609-1.767-8.254c-0.394-0.965-0.562-1.046-1.625-0.915c-0.925,0.114-1.848,0.322-2.775,0.341
		c-3.993,0.082-7.972,0.106-11.971-0.327c-3.079-0.334-6.172-0.489-9.211-1.145c-2.852-0.615-5.744-1.082-8.555-1.849
		c-3.59-0.978-7.087-2.28-10.473-3.832c-5.305-2.433-10.289-5.414-14.88-9.033c-0.163-0.128-0.346-0.23-0.723-0.478
		C335.681,271.276,335.835,271.945,335.904,272.623z M398.858,304.728c1.28-0.135,2.56-0.279,3.835-0.456
		c1.318-0.184,2.646-0.341,3.94-0.635c2.76-0.627,5.51-1.306,8.249-2.019c2.702-0.703,5.297-1.675,7.659-3.214
		c2.067-1.346,3.062-3.409,2.679-5.75c-0.378-2.316-0.846-4.619-0.849-6.983c-0.001-0.799-0.012-1.609-0.14-2.394
		c-0.17-1.045-0.401-2.09-0.722-3.097c-0.163-0.51-0.58-0.938-1.008-1.596c-0.939,1.999-2.424,3.044-4.15,3.851
		c-2.355,1.102-4.887,1.504-7.397,2.004c-1.386,0.276-2.772,0.557-4.166,0.781c-2.008,0.323-4.024,0.596-6.036,0.892
		c-1.38,0.203-2.76,0.41-4.222,0.627c2.336,5.902,2.593,11.81,1.081,17.995C398.069,304.734,398.467,304.769,398.858,304.728z
		 M332.168,282.983c-0.194-2.517-0.382-5.035-0.587-7.552c-0.094-1.15-0.169-2.305-0.348-3.443
		c-0.275-1.749-0.651-3.482-0.947-5.228c-0.102-0.601-0.266-1.091-0.849-1.407c-1.241-0.673-2.411-1.497-3.697-2.062
		c-1.904-0.836-3.889-1.487-5.831-2.24c-2.639-1.024-5.013-2.428-6.803-4.699c-0.909-1.153-1.034-1.17-2.317-0.433
		c-1.446,0.83-2.712,1.851-3.236,3.541c-0.234,0.756-0.526,1.496-0.739,2.258c-0.598,2.137-0.445,4.205,0.651,6.169
		c0.955,1.712,2.374,2.976,3.953,4.078c3.036,2.117,6.439,3.538,9.756,5.122c3.078,1.47,6.196,2.868,8.988,4.868
		c0.562,0.403,1.136,0.79,1.704,1.185C331.969,283.088,332.069,283.035,332.168,282.983z M305.407,168.206
		c1.809-1.126,3.643-2.215,5.405-3.411c0.983-0.667,1.928-1.435,2.744-2.297c2.229-2.356,4.366-4.798,6.565-7.183
		c2.267-2.458,4.707-4.742,7.556-6.505c1.479-0.915,2.628-2.071,3.603-3.469c2.193-3.147,3.876-6.545,5.192-10.146
		c1.045-2.857,1.75-5.757,1.723-8.817c-0.004-0.478-0.012-0.882-0.472-1.138c-1.188-0.663-2.375-1.326-3.547-1.981
		c-1.237,2.753-2.422,5.459-3.665,8.137c-2.219,4.785-5.025,9.2-8.715,12.982c-2.729,2.797-5.613,5.443-8.439,8.144
		c-0.608,0.581-1.22,1.174-1.908,1.648c-1.248,0.857-2.205,1.92-2.722,3.349c-0.886,2.451-1.767,4.904-2.635,7.361
		c-0.39,1.103-0.744,2.218-1.144,3.413C305.178,168.253,305.314,168.264,305.407,168.206z M311.8,239.398
		c-0.194,0.37-0.337,0.828-0.317,1.237c0.069,1.415,0.239,2.826,0.333,4.24c0.07,1.058,0.103,2.12,0.117,3.18
		c0.027,1.972,0.323,3.888,1.158,5.691c1.266,2.737,3.497,4.442,6.195,5.561c2.367,0.981,4.797,1.809,7.179,2.755
		c0.996,0.396,1.939,0.923,2.946,1.409c-0.257-2.282-1.006-4.47,0.014-6.664c-2.004-0.297-3.923-0.426-5.754-0.897
		c-1.793-0.461-3.786-0.138-5.484-1.272c0.398-0.711,0.981-0.521,1.459-0.45c1.137,0.169,2.262,0.417,3.394,0.622
		c0.608,0.11,1.219,0.212,1.832,0.291c1.426,0.183,2.854,0.35,4.287,0.524c0.068-2.139-0.73-7.701-1.332-9.409
		c-1.642-0.445-3.298-0.878-4.944-1.347c-1.611-0.458-3.202-0.984-4.818-1.421c-1.615-0.437-3.292-0.689-4.741-1.67
		c0.454-0.693,0.93-0.513,1.401-0.37c2.13,0.643,4.261,1.285,6.691,2.018c-2.312-4.65-3.755-9.273-4.712-14.106
		c-2.262,1.47-4.363,2.837-6.511,4.233c0.197,0.226,0.296,0.374,0.427,0.485c1.795,1.524,3.593,3.043,5.392,4.562
		c0.237,0.201,0.523,0.363,0.703,0.606c0.134,0.181,0.133,0.462,0.193,0.698c-0.24,0.032-0.481,0.092-0.72,0.083
		c-0.111-0.004-0.214-0.146-0.325-0.22c-0.953-0.643-1.908-1.284-2.97-1.999C312.482,238.368,312.085,238.854,311.8,239.398z
		 M410.617,175.591c-1.131,1.132-2.239,2.289-3.387,3.405c-3.457,3.36-7.196,6.334-11.58,8.427
		c-2.063,0.985-4.229,1.635-6.499,1.729c-3.41,0.142-6.321-1.123-8.769-3.489c-3.202-3.094-4.655-7.075-5.636-11.264
		c-0.525-2.242-0.792-4.543-1.283-6.794c-0.641-2.935-1.097-5.916-2.089-8.771c-0.521-1.5-0.974-3.003-1.967-4.306
		c-2.22-2.915-5.19-4.81-8.41-6.382c-2.033-0.993-4.163-1.716-6.335-2.365c-2.22-0.664-4.477-1.143-6.755-1.384
		c-2.911-0.307-5.852-0.498-8.782-0.073c-0.84,0.122-1.695,0.204-2.673,0.834c0.539,0,0.797,0.003,1.053-0.001
		c1.241-0.018,2.495-0.159,3.721-0.035c2.867,0.291,5.72,0.724,8.582,1.071c3.144,0.382,6.177,1.198,9.125,2.328
		c3.517,1.349,6.568,3.372,8.729,6.517c1.067,1.553,2.035,3.143,2.379,5.112c0.417,2.386,1.221,4.703,1.815,7.061
		c0.194,0.77,0.216,1.582,0.383,2.361c0.48,2.247,0.944,4.5,1.507,6.727c0.52,2.054,1.043,4.122,1.776,6.105
		c0.887,2.397,2.155,4.626,4.403,6.03c1.112,0.695,2.356,1.203,3.584,1.683c1.95,0.762,3.977,1.325,6.089,1.151
		c3.132-0.259,6.079-1.2,8.798-2.79c4.876-2.853,9.069-6.538,12.887-10.67c1.024-1.108,0.98-1.584-0.182-2.611
		C410.946,175.325,410.766,175.442,410.617,175.591z M301.395,168.263c0.188-0.52,0.367-1.043,0.564-1.56
		c1.397-3.672,2.925-7.3,4.147-11.03c0.649-1.981,1.687-3.503,3.39-4.564c2.351-1.466,4.478-3.195,6.479-5.096
		c2.841-2.699,5.502-5.55,7.719-8.805c2.477-3.637,4.144-7.614,5.21-11.86c0.118-0.47,0.117-0.971,0.171-1.457
		c-0.971,0.927-1.731,1.896-2.497,2.859c-5.668,7.13-11.444,14.178-16.964,21.421c-2.928,3.842-5.349,8.066-8.129,12.026
		c-1.118,1.593-1.294,3.229-1.087,5.028c0.01,0.088,0.001,0.18,0.022,0.266c0.227,0.924,0.459,1.846,0.689,2.769
		C301.204,168.261,301.299,168.262,301.395,168.263z M301.096,144.308c-0.424,0.121-0.859,0.288-1.288,0.285
		c-1.411-0.011-2.091,0.743-2.694,1.964c-0.917,1.853-2.509,3.2-4.107,4.484c-1.764,1.418-3.55,2.808-5.318,4.221
		c-0.216,0.173-0.376,0.418-0.678,0.763c0.794,0.127,1.397,0.29,2.005,0.309c1.908,0.059,3.818,0.102,5.726,0.072
		c1.012-0.016,2.02-0.212,3.033-0.297c0.851-0.072,1.161-0.565,1.38-1.35c0.666-2.382,1.431-4.736,2.155-7.102
		c0.368-1.205,0.729-2.413,1.157-3.83C301.832,144.051,301.47,144.201,301.096,144.308z M303.682,168.615
		c0.34-1.189,0.799-2.344,1.211-3.512c0.794-2.25,1.641-4.483,2.37-6.754c0.546-1.7,1.435-3.128,2.769-4.301
		c1.935-1.701,3.882-3.389,5.785-5.125c2.893-2.639,5.669-5.393,8.088-8.487c2.807-3.589,4.869-7.606,6.739-11.73
		c0.839-1.851,1.614-3.731,2.394-5.607c0.11-0.265,0.227-0.709,0.097-0.861c-0.527-0.614-0.967-1.352-1.895-1.77
		c-0.264,0.576-0.667,1.07-0.696,1.586c-0.099,1.737-0.592,3.37-1.033,5.033c-0.895,3.375-2.412,6.458-4.249,9.392
		c-3.1,4.952-7.121,9.082-11.613,12.77c-1.125,0.924-2.237,1.852-3.524,2.601c-1.663,0.967-2.454,2.633-3.096,4.479
		c-1.507,4.337-3.265,8.586-4.902,12.878c-0.094,0.246-0.012,0.558-0.012,1.009C303.047,169.847,303.465,169.373,303.682,168.615z
		 M277.466,129.031c-1.16-1.421-2.04-3.072-3.147-4.784c-0.173,0.493-0.285,0.771-0.369,1.057c-0.359,1.228-0.733,2.451-1.056,3.688
		c-0.387,1.48-0.525,2.962,0.153,4.413c1.067,2.283,2.122,4.572,3.2,6.85c0.083,0.175,0.304,0.284,0.484,0.443
		c0.781-0.391,1.517-0.759,2.302-1.152c-1.38-2.479-2.432-4.947-3.161-7.549c-0.14-0.501-0.336-0.988,0.291-1.551
		c1.026,2.113,1.799,4.24,3.122,6.263c0.743-1.264,1.389-2.361,2.174-3.695C280.074,131.656,278.631,130.457,277.466,129.031z
		 M339.862,213.402c0.049,0.44,0.11,0.881,0.19,1.316c0.481,2.612,0.984,5.22,1.449,7.834c0.427,2.397,0.734,4.818,1.239,7.198
		c0.707,3.333,1.546,6.638,2.337,9.952c0.054,0.228,0.186,0.437,0.381,0.882c0.714-1.398,1.339-2.555,1.891-3.746
		c0.133-0.286,0.075-0.691,0.019-1.026c-0.058-0.344-0.227-0.669-0.337-1.005c-0.871-2.687-1.746-5.373-2.606-8.063
		c-0.659-2.062-1.424-4.102-1.916-6.204c-0.584-2.496-0.926-5.048-1.377-7.575c-0.052-0.294-0.134-0.583-0.215-0.931
		C340.166,212.265,339.78,212.661,339.862,213.402z M329.733,225.079c0.6,1.182,1.306,2.323,1.782,3.553
		c1.339,3.46,1.956,7.067,1.916,10.782c-0.006,0.567-0.212,1.345,0.074,1.647c0.348,0.367,1.12,0.327,1.707,0.473
		c0.277,0.069,0.549,0.16,0.834,0.244c0.732-4.209-0.979-14.78-2.811-17.539c-1.224,0-2.454,0-3.916,0
		C329.509,224.624,329.619,224.853,329.733,225.079z M338.918,242.198c1.347,0.142,2.558,0.645,3.844,0.151
		c-1.403-6.08-3.479-11.911-3.805-18.09c-0.933,0-1.668,0-2.653,0C338.206,230.199,338.752,236.158,338.918,242.198z
		 M332.659,257.237c-0.219-0.025-0.441-0.02-0.661-0.03c-1.159-0.057-1.423,0.142-1.539,1.264c-0.054,0.527-0.109,1.078-0.016,1.591
		c0.328,1.826,0.751,3.636,1.077,5.462c0.442,2.478,0.806,4.97,1.245,7.449c0.596,3.372,0.74,6.781,0.869,10.191
		c0.021,0.564,0.142,0.926,0.734,1.076c0.392,0.099,0.759,0.298,1.161,0.463c-0.277-2.536-0.555-4.949-0.802-7.366
		c-0.284-2.78-0.508-5.567-0.821-8.344c-0.203-1.805-0.761-3.532-1.264-5.277c-0.605-2.1-1.414-4.29,0.309-6.293
		C332.802,257.325,332.734,257.246,332.659,257.237z M270.418,116.666c-0.427,1.433-0.833,2.873-1.285,4.298
		c-0.897,2.831-0.749,5.726-0.327,8.577c0.624,4.217,2.477,8.021,4.407,11.774c0.237,0.461,0.549,0.738,1.05,0.403
		c0.423-0.284,0.149-0.592-0.023-0.913c-1.315-2.466-2.618-4.938-3.914-7.414c-0.142-0.271-0.301-0.575-0.308-0.866
		c-0.036-1.595-0.082-3.181,0.434-4.746c0.69-2.096,1.267-4.229,1.867-6.353c0.081-0.286,0.094-0.649-0.01-0.919
		c-0.49-1.272-1.032-2.524-1.556-3.783C270.641,116.705,270.53,116.686,270.418,116.666z M346.388,207.769
		c0.162-0.027,0.326-0.046,0.486-0.083c3.547-0.804,7.089-1.634,10.643-2.408c3.641-0.793,7.193-1.876,10.615-3.338
		c4.06-1.734,7.64-4.052,9.091-8.552c0.403-1.25,0.6-2.573,0.817-3.875c0.12-0.722-0.251-1.227-0.844-1.425
		c-0.253,1.487-0.323,2.974-0.777,4.332c-0.818,2.452-2.399,4.4-4.469,5.989c-4.07,3.123-8.825,4.663-13.667,5.968
		c-3.549,0.956-7.155,1.699-10.732,2.554c-0.44,0.105-0.856,0.314-1.283,0.475C346.308,207.526,346.348,207.647,346.388,207.769z
		 M331.139,238.18c-0.091-0.835-0.307-1.657-0.407-2.492c-0.43-3.597-1.636-6.945-3.241-10.163
		c-0.755-1.514-1.016-1.595-2.808-1.081c0.025,0.123,0.018,0.268,0.081,0.37c2.335,3.842,3.737,7.998,4.096,12.48
		c0.115,1.432,0.305,2.683,2.292,2.689C331.152,239.393,331.205,238.78,331.139,238.18z M281.189,185.277
		c0.222-0.04,0.379-0.022,0.47-0.091c2.746-2.092,5.487-4.193,8.225-6.296c0.022-0.017,0.013-0.081,0.008-0.122
		c-0.005-0.041-0.022-0.081-0.052-0.18c-3.091,0.542-6.213,0.565-9.58,0.118C280.596,181.083,280.891,183.167,281.189,185.277z
		 M318.299,229.845c0.024,0.131,0.061,0.259,0.095,0.388c0.483,1.834,0.929,3.68,1.459,5.501c0.77,2.645,1.839,5.173,3.183,7.58
		c0.142,0.254,0.353,0.546,0.602,0.646c0.557,0.224,1.158,0.338,1.993,0.565c-3.151-5.448-5.438-10.963-5.703-17.155
		C318.228,228.044,318.029,228.363,318.299,229.845z M277.47,94.11c-0.211-0.045-0.397-0.192-0.602-0.275
		c-0.519-0.213-0.793-0.037-0.997,0.498c-0.809,2.12-0.489,4.187,0.264,6.22c0.351,0.947,0.636,1.027,1.743,0.857
		c0.262-0.04,0.528-0.052,0.794-0.067c1.851-0.108,2.029-0.285,2.091-2.108c0.006-0.177,0.001-0.355,0.001-0.576
		C280.609,95.326,280.088,94.672,277.47,94.11z M278.461,99.19c-0.791,0.069-2.041-1.063-2.1-1.902
		c-0.06-0.841,1.056-2.022,1.931-2.043c0.843-0.02,1.86,1.001,1.895,1.903C280.223,98.099,279.368,99.111,278.461,99.19z
		 M280.329,137.806c-0.227,0.404-0.426,0.786,0.142,1.184c1.368-0.651,2.921-0.943,4.331-1.871c-0.84-0.973-1.603-1.858-2.489-2.884
		C281.564,135.586,280.953,136.7,280.329,137.806z M331.185,248.687c-0.03-0.264-0.073-0.528-0.13-0.788
		c-0.171-0.786-0.367-0.921-1.36-0.979c0.287,2.266,0.572,4.536,0.866,6.805c0.063,0.483,0.184,0.96,0.232,1.444
		c0.062,0.631,0.388,0.849,1.211,0.698C331.725,253.417,331.457,251.052,331.185,248.687z M340.194,224.439
		c-0.006-0.027-0.074-0.049-0.116-0.057c-0.028-0.005-0.062,0.02-0.093,0.031c0.37,4.341,3.153,16.712,4.196,18.054
		C342.854,236.457,341.526,230.447,340.194,224.439z M334.671,224.234c0,0.153-0.042,0.321,0.006,0.457
		c1.262,3.619,2.011,7.35,2.342,11.158c0.154,1.767,0.11,3.551,0.169,5.327c0.01,0.317-0.159,0.741,0.368,0.845
		c0.497-0.904,0.196-6.155-0.892-12.156c-0.351-1.935-0.654-3.962-1.721-5.692C334.853,224.195,334.762,224.214,334.671,224.234z
		 M273.068,122.483c-0.124,0.303-0.271,0.598-0.364,0.91c-0.1,0.337-0.13,0.694-0.225,1.033c-0.452,1.614-1.038,3.202-1.343,4.843
		c-0.325,1.746-0.343,3.518,0.758,5.113c0.517,0.75,0.897,1.594,1.339,2.395c0.082-0.044,0.164-0.089,0.247-0.133
		c-0.384-0.833-0.688-1.716-1.169-2.489c-1.141-1.835-0.87-3.758-0.407-5.664c0.394-1.623,0.985-3.198,1.454-4.804
		c0.104-0.358,0.06-0.76,0.084-1.141C273.317,122.526,273.193,122.505,273.068,122.483z M339.584,220.472
		c-0.068-0.261-0.416-0.594-0.675-0.633c-0.867-0.13-1.752-0.154-2.631-0.19c-0.215-0.009-0.434,0.093-0.656,0.145
		c0.046,0.16,0.051,0.229,0.069,0.232c0.294,0.059,0.587,0.122,0.884,0.16c0.969,0.122,1.129,0.283,1.162,1.24
		c0.013,0.374,0.002,0.749,0.002,1.106c0.803,0,1.442,0,2.128,0C339.773,221.771,339.749,221.103,339.584,220.472z M332.299,240.105
		c0.201-5.123-0.787-9.961-3.435-14.4C330.762,230.324,332.257,235.04,332.299,240.105z M337.794,218.136
		c-0.297-1.11-0.56-2.094-0.834-3.119c-1.541,0.898-1.592,0.774-1.235,3.119C336.455,218.136,337.079,218.136,337.794,218.136z
		 M330.512,222.633c0.446-0.02,0.858-0.039,1.315-0.06c0-0.308,0-0.482,0-0.656c-0.001-1.651,0-1.642,1.703-1.77
		c0.292-0.022,0.725,0.167,0.866-0.536c-1.241,0.057-2.402,0.11-3.921,0.179C332.052,220.934,330.782,221.675,330.512,222.633z
		 M338.17,213.891c-0.089,0.177-0.296,0.399-0.249,0.524c0.443,1.158,0.374,2.477,0.988,3.578c0.092-0.022,0.184-0.044,0.276-0.067
		c-0.247-1.315-0.495-2.63-0.742-3.944C338.352,213.952,338.261,213.922,338.17,213.891z M336.349,221.316
		c-0.419-0.381-0.827-0.331-1.235,0.288c0.388,0.02,0.777,0.04,1.165,0.06C336.303,221.548,336.326,221.432,336.349,221.316z
		 M332.795,221.696c0.426,0.108,0.869,0.312,1.351-0.53c-0.588,0.032-0.986,0.054-1.385,0.076
		C332.772,221.393,332.784,221.545,332.795,221.696z M330.13,220.939c-0.663,0.03-1.078,0.049-1.494,0.068
		C329.406,221.381,329.406,221.381,330.13,220.939z M333.192,217.68c-0.141,0.062-0.252,0.191-0.375,0.294
		c0.107,0.095,0.216,0.267,0.322,0.265c0.115-0.002,0.228-0.165,0.395-0.302C333.364,217.804,333.241,217.658,333.192,217.68z
		 M313.513,93.428c-0.143-0.583-0.59-0.78-1.153-0.94c-1.384-0.393-2.728-0.022-4.086,0.083c-1.016,0.078-1.475,0.488-1.74,1.484
		c-0.506,1.903-0.781,3.784-0.129,5.74c0.241,0.724,0.51,1.187,1.258,1.314c1.348,0.229,2.695,0.463,4.045,0.682
		c0.655,0.106,1.079-0.186,1.385-0.773c0.689-1.325,0.938-2.749,1.102-4.591C314.022,95.659,313.785,94.539,313.513,93.428z
		 M308.102,97.077c-0.11-0.857,1.221-2.332,2.155-2.388c0.841-0.051,2.348,1.335,2.397,2.204c0.047,0.83-1.356,2.276-2.267,2.337
		C309.617,99.283,308.215,97.962,308.102,97.077z M277.628,97.213c0.001,0.396,0.181,0.677,0.617,0.703
		c0.459,0.028,0.77-0.141,0.803-0.647c0.031-0.483-0.192-0.744-0.648-0.769C277.882,96.487,277.626,96.735,277.628,97.213z
		 M311.334,96.879c-0.021-0.656-0.347-0.975-0.999-0.976c-0.673-0.001-1.065,0.404-1.048,1.082c0.016,0.632,0.352,0.946,1.017,0.951
		C311.041,97.94,311.357,97.616,311.334,96.879z"/>
</g>
</svg>
