<?xml version="1.0" encoding="utf-8"?>
<!-- Generator: Adobe Illustrator 17.0.0, SVG Export Plug-In . SVG Version: 6.00 Build 0)  -->
<!DOCTYPE svg PUBLIC "-//W3C//DTD SVG 1.1//EN" "http://www.w3.org/Graphics/SVG/1.1/DTD/svg11.dtd">
<svg version="1.1" id="Layer_1" xmlns="http://www.w3.org/2000/svg" xmlns:xlink="http://www.w3.org/1999/xlink" x="0px" y="0px"
	 width="600px" height="600px" viewBox="0 0 600 600" enable-background="new 0 0 600 600" xml:space="preserve">
<g>
	<path fill="#070707" d="M492.339,442.587c-2.09-20.988-18.158-38.983-42.011-41.098c-6.54-0.58-13.149-0.43-19.728-0.504
		c-1.432-0.016-2.445-0.43-3.445-1.431c-28.589-28.629-57.202-57.235-85.818-85.837c-0.941-0.94-1.629-1.975-2.137-3.231
		c-12.516-30.939-25.095-61.852-37.569-92.808c-0.951-2.359-2.372-3.847-4.535-5.085c-61.273-35.072-122.516-70.196-183.763-105.314
		c-1.499-0.86-3.061-1.584-4.749-1.942c-0.773-0.164-1.767-0.46-2.365,0.141c-0.769,0.773,0.027,1.679,0.238,2.512
		c0.079,0.312,0.265,0.6,0.418,0.891c5.28,10.089,10.346,20.296,15.88,30.244c29.579,53.166,59.776,105.983,90.083,158.736
		c0.701,1.22,1.57,1.935,2.853,2.462c31.626,12.995,63.236,26.028,94.847,39.059c1.135,0.468,2.201,1.009,3.109,1.918
		c29.174,29.207,58.367,58.396,87.57,87.574c0.813,0.812,1.111,1.563,0.97,2.801c-0.604,5.301-1.011,10.624-1.297,13.793
		c-0.226,8.54,1.497,14.44,4.349,20.1c10.016,19.879,33.734,30.645,54.262,24.592C478.53,484.55,494.535,464.64,492.339,442.587z
		 M447.876,465.056c-8.789,0.963-17.726-5.637-19.793-14.617c-1.816-7.892,2.127-16.096,8.934-20.501
		c6.326-4.094,12.073-3.565,18.279,0.011c6.491,3.74,9.338,9.312,9.519,15.634C464.681,456.699,458.075,463.939,447.876,465.056z"/>
	<path fill="#4D5056" d="M129.069,137.599c3.639,2.383,6.629,5.043,9.589,7.745c29.702,27.121,57.642,56.049,86.333,84.207
		c6.279,6.162,12.482,12.4,18.712,18.611c0.724,0.722,1.642,1.264,0.758,2.642c-7.408,11.549-14.727,23.169-23.164,34.001
		c-5.176,6.645-4.303,5.4-7.91-0.382c-25.35-40.633-48.729-82.416-72.247-124.118c-3.751-6.652-7.446-13.336-11.144-20.019
		C129.615,139.598,128.998,138.986,129.069,137.599z M137.668,129.469c1.678,2.1,3.259,4.286,5.05,6.285
		c11.852,13.228,24.135,26.047,36.668,38.633c22.918,23.015,45.753,46.111,68.572,69.224c1.322,1.339,2.227,1.399,3.688,0.333
		c2.053-1.497,4.301-2.722,6.422-4.129c10.127-6.72,20.565-12.995,29.757-21.048c1.7-1.489,1.52-2.35-0.289-3.466
		c-6.851-4.228-13.579-8.66-20.494-12.778c-39.863-23.738-80.342-46.404-120.782-69.138c-2.689-1.512-5.388-3.004-8.083-4.505
		C138.008,129.076,137.838,129.273,137.668,129.469z M465.534,482.295c16.078-9.063,23.898-28.675,18.753-46.918
		c-4.934-17.491-19.582-28.699-37.703-28.507c-6.756,0.072-13.013,2.482-18.935,5.634c-20.661,10.996-27.558,31.532-16.964,51.334
		c7.626,14.255,19.673,22.028,35.843,23.144C453.339,487.059,459.674,485.598,465.534,482.295z M446.728,469.49
		c-14.073-0.102-23.796-9.98-23.691-24.07c0.089-11.962,10.673-22.87,22.131-22.679c13.771,0.229,24.751,10.377,24.408,23.954
		C469.504,460.067,459.964,469.586,446.728,469.49z M321.092,329.897c-0.316-1.378-0.921-2.633-1.782-3.757
		c-2.848-3.72-5.702-7.435-8.971-10.804c-19.519-20.117-39.309-39.966-59.217-59.698c-1.387-1.375-2.04-1.53-3.196,0.28
		c-5.705,8.927-11.538,17.772-17.35,26.63c-2.392,3.646-4.352,7.535-6.509,11.313c-1.225,2.145-0.812,3.369,1.323,4.491
		c2.252,1.183,4.46,2.44,6.798,3.457c24.693,10.732,49.931,19.993,75.637,27.982c3.674,1.142,7.415,2.078,10.947,2.595
		C320.808,332.422,321.475,331.566,321.092,329.897z M331.472,309.448c-4.676-14.178-10.239-28.027-15.838-41.859
		c-5.849-14.449-12.153-28.701-18.665-42.862c-0.625-1.359-1.122-2.474-3.038-1.291c-12.929,7.987-25.666,16.258-38.121,24.968
		c-1.673,1.17-1.204,1.715-0.086,2.827c6.934,6.897,13.784,13.878,20.706,20.786c13.378,13.353,26.698,26.77,40.48,39.708
		c3.636,3.413,7.428,6.763,11.917,9.09c2.795,1.449,4.415,0.469,4.438-3.453C332.82,315.347,332.416,312.309,331.472,309.448z"/>
	<path fill="#A2A7AA" d="M381.991,399.423c-2.663-0.076-4.456-0.592-6.081-1.637c-2.261-1.454-2.365-2.985-0.308-4.674
		c1.597-1.311,3.385-2.311,5.319-3.034c6.217-2.324,12.484-4.502,18.838-6.424c4.484-1.357,9.764,1.756,10.773,6.356
		c0.395,1.803-1.132,2.016-2.202,2.369c-6.534,2.155-13.128,4.108-19.848,5.612C386.09,398.526,383.694,399.047,381.991,399.423z
		 M369.322,353.801c2.4-1.078,2.744-3.143,1.15-5.26c-2.173-2.885-5.535-4.003-9.224-3.05c-7.006,1.811-13.777,4.284-20.358,7.283
		c-1.512,0.689-2.915,1.563-3.924,2.904c-0.667,0.887-1.661,1.776-1.02,3.073c0.592,1.199,1.634,1.756,2.99,1.831
		c1.887,0.104,3.768,0.328,5.667,0.077C353.354,360.236,361.438,357.344,369.322,353.801z M371.635,375.592
		c-3.093,1.072-6.219,2.093-9.022,3.856c-1.712,1.077-1.805,2.417-0.617,3.925c1.766,2.24,4.181,3.183,6.937,3.023
		c4.176-0.241,8.349-0.684,12.394-1.803c4.342-1.201,8.714-2.374,12.477-5.032c1.397-0.987,2.563-2.098,2.203-4.043
		c-0.34-1.837-1.757-2.425-3.307-2.879c-1.662-0.486-3.339-0.858-5.1-0.843C382.102,372.311,376.826,373.793,371.635,375.592z
		 M419.46,405.342c1.437-0.757,2.851-1.731,2.621-3.503c-0.246-1.894-1.793-2.901-3.574-3.276c-1.515-0.32-3.083-0.549-4.627-0.54
		c-8.952,0.05-17.169,3.102-25.247,6.515c-2.829,1.195-2.81,2.821-0.633,5.093c2.221,2.317,5.014,1.505,7.839,1.729
		C404.09,411.367,412.005,409.272,419.46,405.342z M347.278,344.788c3.379-1.029,6.74-2.094,9.522-4.408
		c1.99-1.655,1.712-4-0.632-5.051c-2.053-0.921-4.26-1.444-6.471-1.221c-8.487,0.856-16.468,3.52-24.105,7.227
		c-0.973,0.472-2.462,0.995-2.031,2.666c0.433,1.678,1.28,3.064,3.185,3.322c1.622,0.219,3.259,0.326,4.89,0.483
		C337.048,347.756,342.175,346.342,347.278,344.788z M366.122,371.279c5.645-1.021,11.28-2.141,16.046-5.676
		c0.921-0.683,1.968-1.31,1.845-2.687c-0.132-1.476-1.33-1.932-2.448-2.472c-0.76-0.367-1.557-0.418-2.374-0.521
		c-9.235-1.165-17.393,2.06-25.324,6.191c-0.636,0.331-1.234,0.827-1.703,1.373c-1.551,1.805-1.175,3.021,1.031,3.866
		c1.831,0.702,3.724,0.409,5.592,0.488C361.265,372.072,363.712,371.714,366.122,371.279z M414.243,412.418
		c-3.79,1.317-7.44,2.954-10.923,4.95c-3.142,1.801-3.971,3.335-2.898,5.275c0.985,1.782,3.666,2.094,6.286,0.285
		c4.132-2.853,7.253-6.736,10.334-10.804C415.868,411.637,415.051,412.137,414.243,412.418z M344.785,327.607
		c1.34-1.138,1.995-2.454,0.761-4.041c-1.223-1.573-2.93-2.447-4.725-1.373c-3.616,2.165-6.579,5.122-9.105,8.506
		c-0.312,0.418-0.54,0.85-0.353,1.351c0.236,0.63,0.802,0.381,1.551,0.392C336.955,331.514,341.279,330.587,344.785,327.607z"/>
</g>
</svg>
