<?xml version="1.0" encoding="utf-8"?>
<!-- Generator: Adobe Illustrator 17.0.0, SVG Export Plug-In . SVG Version: 6.00 Build 0)  -->
<!DOCTYPE svg PUBLIC "-//W3C//DTD SVG 1.1//EN" "http://www.w3.org/Graphics/SVG/1.1/DTD/svg11.dtd">
<svg version="1.1" id="Layer_1" xmlns="http://www.w3.org/2000/svg" xmlns:xlink="http://www.w3.org/1999/xlink" x="0px" y="0px"
	 width="600px" height="600px" viewBox="0 0 600 600" enable-background="new 0 0 600 600" xml:space="preserve">
<g>
	<path fill="#042D56" d="M452.728,456.799c0.039-2.637-0.171-5.251-0.693-7.874c-0.586-2.944-1.529-5.738-2.732-8.443
		c-1.455-3.273-3.281-6.354-5.409-9.246c-0.737-1.001-1.577-1.988-0.939-3.38c0.035-0.077,0.005-0.184,0.008-0.277
		c0.158-4.56-0.122-9.099-0.697-13.62c-0.393-3.082-0.791-6.165-1.276-9.234c-0.456-2.886-1.002-5.76-1.557-8.629
		c-0.423-2.185-0.931-4.354-1.386-6.534c-0.435-2.086-0.79-4.19-1.288-6.26c-0.857-3.564-1.76-7.118-2.714-10.656
		c-0.797-2.954-1.624-5.904-2.568-8.815c-1.129-3.483-2.342-6.941-3.617-10.374c-1.292-3.478-2.729-6.902-4.05-10.37
		c-0.625-1.642-1.255-3.301-1.646-5.006c-0.382-1.665-0.485-3.396-0.671-5.102c-0.486-4.469-0.914-8.932-1.876-13.348
		c-1.067-4.896-2.111-9.791-3.502-14.607c-0.372-1.288-0.733-2.581-1.166-3.849c-0.674-1.974-1.495-3.901-2.092-5.896
		c-1.112-3.718-2.968-7.098-4.636-10.562c-0.764-1.587-1.642-3.123-2.533-4.644c-0.914-1.56-1.784-3.169-2.888-4.59
		c-2.934-3.773-6.008-7.434-9.473-10.744c-1.817-1.736-3.724-3.356-5.918-4.611c-0.195-0.111-0.316-0.352-0.555-0.629
		c0.617-0.103,1.084-0.133,1.522-0.261c3.016-0.879,6.122-5.52,4.849-8.907c-0.342-0.911-0.785-1.784-1.157-2.685
		c-0.997-2.417-2.328-4.644-3.877-6.74c-1.076-1.456-2.264-2.833-3.285-4.326c-0.992-1.45-1.861-2.987-2.724-4.52
		c-0.264-0.47-0.421-1.042-0.471-1.582c-0.14-1.525-0.231-3.057-0.284-4.587c-0.114-3.293-0.968-6.424-2.136-9.466
		c-0.78-2.032-1.644-4.046-2.658-5.968c-1.101-2.086-2.378-4.085-3.666-6.065c-0.497-0.764-1.199-1.409-1.88-2.03
		c-0.321-0.293-0.843-0.616-1.216-0.557c-2.006,0.316-4.046,0.58-5.971,1.188c-1.788,0.565-3.464,0.974-5.256,0.182
		c-0.377-0.166-0.803-0.253-1.214-0.302c-1.395-0.164-2.753-0.255-3.955,0.78c-0.658,0.567-1.469,0.979-2.255,1.37
		c-0.953,0.474-1.788,0.134-1.996-0.73c-0.738-3.064-1.477-6.127-2.199-9.194c-0.046-0.197,0.041-0.425,0.078-0.731
		c1.778,0.885,3.458,1.728,5.145,2.557c0.623,0.306,1.237,0.679,1.899,0.848c2.649,0.675,5.301,1.348,7.979,1.894
		c2.428,0.495,4.898,0.233,7.336,0.007c2.339-0.217,4.502-1.059,6.544-2.232c0.491-0.282,1.147-0.544,1.664-0.455
		c1.084,0.186,2.123,0.625,3.187,0.938c2.266,0.666,4.514,1.406,6.808,1.957c5.373,1.291,10.867,1.849,16.336,2.546
		c0.636,0.081,0.93-0.338,0.705-0.968c-0.062-0.173-0.167-0.331-0.256-0.494c-0.732-1.341-1.425-2.705-2.206-4.018
		c-1.375-2.312-2.732-4.639-4.224-6.875c-2.43-3.642-5.421-6.828-8.437-9.984c-1.74-1.82-3.579-3.513-5.926-4.548
		c-1.018-0.449-2.005-0.975-3.039-1.38c-2.158-0.847-4.326-1.623-6.625-2.088c-2.247-0.454-4.509-0.562-6.764-0.662
		c-2.45-0.108-4.921,0.021-7.371,0.198c-2.167,0.156-4.379,0.021-6.482,0.772c-0.181,0.065-0.43-0.059-0.693-0.103
		c0.035-0.247,0.028-0.437,0.091-0.599c0.755-1.925,0.948-3.861,0.143-5.821c-0.193-0.469-0.42-0.924-0.603-1.397
		c-0.138-0.359-0.23-0.735-0.324-1.044c1.858-0.538,3.584-0.923,5.225-1.536c4.448-1.663,8.722-3.723,12.528-6.579
		c2.247-1.687,4.553-3.4,5.95-5.973c0.088-0.162,0.201-0.313,0.314-0.46c3.124-4.074,4.569-8.876,5.877-13.721
		c0.47-1.742,0.668-3.557,1.052-5.325c0.122-0.565,0.341-1.166,0.69-1.615c2.505-3.225,5.025-6.439,7.602-9.607
		c1.611-1.98,3.414-3.808,4.976-5.824c1.767-2.28,3.537-4.537,5.725-6.436c0.218-0.189,0.348-0.479,0.534-0.743
		c-0.732-0.408-1.26-0.049-1.816,0.157c-1.514,0.561-3.003,1.231-4.56,1.63c-4.854,1.241-9.74,2.358-14.603,3.564
		c-1.12,0.278-2.218,0.67-3.292,1.096c-1.723,0.684-3.388,1.523-5.131,2.148c-2.681,0.96-5.168,2.303-7.602,3.735
		c-1.595,0.938-3.089,2.061-4.561,3.189c-1.101,0.843-1.213,0.915-2.861,0.045c0.392-0.371,0.716-0.727,1.088-1.023
		c2.541-2.025,5.091-4.038,7.64-6.053c3.022-2.389,6.068-4.749,9.06-7.174c2.124-1.722,4.181-3.525,6.253-5.309
		c0.329-0.284,0.508-0.671,0.206-1.056c-1.33-0.081-2.627-0.066-3.894-0.254c-4.959-0.738-9.912-1.514-14.859-2.327
		c-3.61-0.593-7.208-1.259-10.809-1.906c-1.228-0.221-2.453-0.459-3.668-0.74c-0.317-0.073-0.59-0.336-0.888-0.515
		c0.506-1.164,0.88-2.221,1.406-3.196c1.453-2.692,2.977-5.345,4.46-8.021c1.846-3.331,3.737-6.639,5.5-10.014
		c1.501-2.874,2.864-5.822,4.248-8.756c0.194-0.411,0.157-0.932,0.257-1.6c-0.588,0.111-0.937,0.167-1.28,0.243
		c-2.036,0.452-4.065,0.94-6.109,1.357c-3.363,0.687-6.74,1.307-10.102,1.997c-2.182,0.448-4.35,0.966-6.522,1.461
		c-3.98,0.908-7.957,1.828-11.939,2.724c-0.268,0.06-0.569-0.031-0.928-0.057c0.375-1.444,0.682-2.748,1.054-4.034
		c0.63-2.181,1.33-4.341,1.945-6.526c0.577-2.051,1.078-4.123,1.618-6.184c0.588-2.24,1.197-4.474,1.77-6.718
		c0.539-2.113,1.049-4.234,1.559-6.354c0.173-0.719,0.344-1.442,0.443-2.173c0.03-0.217-0.137-0.526-0.313-0.679
		c-0.094-0.081-0.434,0.03-0.605,0.142c-2.756,1.8-5.604,3.439-8.542,4.924c-2.155,1.089-4.276,2.246-6.451,3.292
		c-2.004,0.964-4.058,1.826-6.094,2.723c-3.818,1.683-7.647,3.341-11.455,5.046c-1.606,0.719-3.166,1.54-4.759,2.289
		c-0.304,0.143-0.665,0.165-1.129,0.272c0-0.447-0.014-0.717,0.002-0.986c0.178-2.963,0.417-5.924,0.529-8.889
		c0.176-4.683,0.253-9.371,0.403-14.055c0.034-1.056-0.41-1.824-1.275-2.295c-0.853-0.464-1.596,0.002-2.301,0.512
		c-6.474,4.684-12.953,9.363-19.432,14.04c-2.745,1.982-5.495,3.957-8.291,5.97c-0.467-0.31-0.917-0.553-1.302-0.873
		c-3.356-2.792-6.69-5.611-10.057-8.389c-0.725-0.598-1.626-0.988-2.327-1.609c-2.955-2.617-5.864-5.286-8.793-7.932
		c-1.1-0.994-1.85-0.934-2.611,0.279c-2.762,4.404-5.519,8.812-8.237,13.244c-1.235,2.014-2.356,4.096-3.562,6.128
		c-0.496,0.837-1.056,1.639-1.625,2.429c-1.057,1.469-2.137,2.922-3.216,4.375c-0.255,0.344-0.553,0.676-1.047,0.431
		c-0.95-0.472-1.912-0.925-2.829-1.455c-1.324-0.765-2.604-1.606-3.919-2.388c-2.908-1.729-5.88-3.356-8.729-5.177
		c-5.202-3.325-10.334-6.761-15.495-10.15c-0.233-0.153-0.456-0.329-0.707-0.447c-0.879-0.414-1.706-0.104-2.032,0.799
		c-0.139,0.383-0.215,0.816-0.201,1.223c0.043,1.344,0.169,2.685,0.211,4.029c0.095,3.055,0.727,6.078,0.444,9.161
		c-0.169,1.846-0.148,3.711-0.166,5.568c-0.03,3.144,0.412,6.297-0.226,9.429c-0.081,0.395,0.032,0.829,0.047,1.245
		c0.062,1.71,0.132,3.419,0.176,5.13c0.019,0.723-0.42,1.003-1.085,0.919c-0.869-0.11-1.732-0.267-2.597-0.405
		c-2.428-0.389-4.855-0.778-7.282-1.17c-3.07-0.495-6.133-1.037-9.21-1.479c-3.44-0.494-6.893-0.889-10.338-1.351
		c-0.98-0.131-1.95-0.345-3.235-0.577c0.395,0.644,0.63,1.067,0.904,1.463c0.237,0.341,0.563,0.625,0.774,0.979
		c1.186,1.992,2.369,3.987,3.516,6.002c2.386,4.194,4.761,8.393,7.116,12.604c1.948,3.483,3.88,6.975,5.779,10.484
		c0.873,1.614,0.83,1.637-0.768,2.506c-0.122,0.066-0.237,0.149-0.365,0.198c-2.774,1.05-5.559,2.069-8.32,3.151
		c-2.029,0.796-4.027,1.671-6.038,2.513c-3.675,1.539-7.35,3.077-11.021,4.625c-0.107,0.045-0.17,0.195-0.253,0.296
		c-0.074,0.089-0.149,0.179-0.223,0.269c0.214,0.091,0.434,0.17,0.641,0.275c3.57,1.804,6.899,3.997,10.206,6.237
		c3.764,2.55,7.598,4.996,11.387,7.509c0.604,0.4,1.134,0.912,1.806,1.46c-0.793,0.997-1.443,1.89-2.171,2.715
		c-1.475,1.671-3.023,3.276-4.486,4.958c-3.412,3.923-6.8,7.866-10.175,11.821c-0.87,1.02-1.669,2.103-2.464,3.183
		c-0.133,0.181-0.157,0.523-0.086,0.744c0.04,0.125,0.394,0.248,0.576,0.214c1.498-0.286,2.985-0.628,4.482-0.919
		c2.775-0.539,5.545-1.113,8.334-1.565c2.885-0.467,5.792-0.798,8.687-1.206c0.91-0.128,1.122,0.098,0.948,1.06
		c-0.402,2.233-0.794,4.468-1.187,6.702c-0.104,0.592-0.215,1.183-0.29,1.779c-0.161,1.288-0.271,2.583-0.455,3.867
		c-0.406,2.835-0.854,5.664-1.255,8.499c-0.044,0.313,0.102,0.654,0.203,1.226c4.391-3.482,8.277-7.191,13.107-10.1
		c0,0.855-0.051,1.438,0.009,2.008c0.202,1.891,0.388,3.787,0.682,5.665c0.551,3.525,1.004,7.08,1.835,10.542
		c0.434,1.804,0.964,3.484,0.721,5.392c-0.214,1.677,0.641,2.99,2.28,3.584c0.859,0.312,1.784,0.511,2.694,0.589
		c0.743,0.064,1.241,0.211,1.404,1.017c0.183,0.902,0.43,1.791,0.649,2.686c0.429,1.757,0.955,3.498,1.265,5.277
		c0.574,3.287,1.008,6.598,1.525,9.895c0.603,3.85,1.179,7.705,1.872,11.538c0.427,2.363,0.541,4.786,1.314,7.086
		c0.604,1.798,0.974,3.711,1.822,5.384c1.508,2.973,2.96,6.007,5.063,8.636c2.057,2.571,3.996,5.268,6.293,7.608
		c2.725,2.777,5.768,5.245,8.693,7.825c1.74,1.535,3.569,2.972,5.258,4.559c1.28,1.202,2.417,2.559,3.591,3.87
		c1.788,1.997,3.885,3.62,6.247,4.841c1.941,1.003,4.004,1.766,6.285,1.385c0.768-0.128,1.539-0.244,2.312-0.339
		c0.13-0.016,0.276,0.108,0.665,0.275c-0.467,0.158-0.663,0.239-0.866,0.29c-1.477,0.371-2.966,0.7-4.43,1.116
		c-0.855,0.243-1.414,0.842-1.622,1.751c-0.155,0.678-0.318,1.364-0.585,2.002c-0.164,0.391-0.472,0.781-0.818,1.026
		c-1.092,0.776-2.241,1.471-3.348,2.226c-0.259,0.176-0.537,0.43-0.64,0.709c-0.287,0.779-0.569,1.577-0.707,2.392
		c-0.437,2.588-0.475,5.194,0.216,7.738c0.521,1.917,1.233,3.783,1.88,5.665c1.207,3.506,2.473,6.993,3.628,10.516
		c0.749,2.286,1.559,4.588,1.948,6.947c0.397,2.413,0.442,4.906,0.408,7.361c-0.041,2.96,0.269,5.825,1.276,8.618
		c0.727,2.016,1.862,3.701,3.562,5.029c1.096,0.856,2.368,1.234,3.659,1.61c0.555,0.162,1.344,0.179,1.593,0.551
		c0.273,0.408,0.033,1.152,0.039,1.749c0.018,1.716,0.16,3.439,0.05,5.146c-0.271,4.214-0.665,8.419-0.614,12.649
		c0.023,1.894,0.008,3.789-0.013,5.684c-0.005,0.461-0.037,0.938-0.161,1.378c-0.84,2.995-1.79,5.963-3.218,8.73
		c-1.617,3.133-3.391,6.185-5.075,9.283c-1.597,2.936-3.232,5.854-4.732,8.84c-1.728,3.439-3.347,6.934-4.974,10.423
		c-0.999,2.141-2.042,4.273-2.86,6.486c-1.704,4.609-3.362,9.24-4.866,13.918c-1.219,3.79-2.265,7.642-3.237,11.505
		c-0.859,3.41-1.539,6.867-2.244,10.314c-0.5,2.446-0.963,4.903-1.343,7.37c-0.29,1.877-0.449,3.775-0.621,5.668
		c-0.282,3.094-0.566,6.189-0.763,9.289c-0.055,0.874-0.204,1.645-0.748,2.325c-2.059,2.572-4.154,5.117-6.17,7.722
		c-2.103,2.718-4.307,5.381-6.148,8.271c-2.467,3.871-4.551,7.981-6.395,12.193c-1.85,4.226-2.893,8.619-2.272,13.27
		c0.264,1.976,0.64,3.937,0.985,5.902c0.104,0.592,0.202,1.201,0.425,1.752c1.029,2.543,2.208,5.019,3.776,7.28
		c1.047,1.511,2.003,3.107,3.772,3.979c1.245,0.614,2.353,1.518,3.616,2.083c1.376,0.615,1.76,1.624,1.693,2.974
		c-0.007,0.139-0.003,0.279,0.004,0.418c0.165,3.425,1.007,6.687,2.419,9.8c0.329,0.724,0.803,1.358,1.698,1.5
		c0.207,0.032,0.391,0.209,0.663,0.362c-0.61,0.827-1.112,1.663-1.77,2.352c-0.572,0.599-0.772,1.18-0.66,1.992
		c0.147,1.067,0.093,2.145-0.539,3.091c-2.05,3.068-3.61,6.381-4.845,9.846c-0.429,1.203-0.695,2.465-1.122,4.011
		c1.167-0.078,1.983-0.165,2.801-0.181c2.739-0.055,5.479-0.093,8.219-0.122c1.432-0.016,2.864,0.011,4.296-0.005
		c1.523-0.017,3.046-0.094,4.569-0.083c1.438,0.011,2.877,0.162,4.314,0.146c3.293-0.039,6.584-0.193,9.877-0.205
		c3.344-0.012,6.688,0.134,10.032,0.134c3.526,0,7.052-0.109,10.578-0.138c3.573-0.029,7.147-0.02,10.721-0.021
		c3.857-0.002,7.713-0.012,11.57,0.013c1.901,0.012,3.803,0.152,5.703,0.131c3.715-0.041,7.429-0.149,11.143-0.24
		c1.205-0.029,2.41-0.142,3.614-0.126c1.482,0.019,2.962,0.181,4.443,0.193c2.458,0.021,4.916-0.035,7.375-0.045
		c2.547-0.01,5.094,0.001,7.641-0.005c2.456-0.005,4.913-0.046,7.368-0.02c1.617,0.018,3.232,0.185,4.848,0.182
		c1.947-0.003,3.894-0.15,5.841-0.172c2.69-0.03,5.381-0.008,8.071,0.004c5.153,0.022,10.307,0.073,15.46,0.075
		c5.576,0.002,11.152-0.078,16.728-0.047c5.762,0.032,11.523,0.172,17.285,0.231c3.294,0.034,6.589-0.007,9.883,0.004
		c0.788,0.003,1.576,0.114,2.364,0.112c1.712-0.004,3.426-0.018,5.136-0.096c0.426-0.02,0.914-0.209,1.242-0.48
		c0.522-0.431,0.927-1.003,1.394-1.504c2.531-2.711,5.018-5.464,7.612-8.113c2.64-2.696,4.922-5.681,7.197-8.668
		c1.938-2.544,3.813-5.144,5.571-7.815c1.681-2.555,3.195-5.222,4.743-7.862c0.79-1.347,0.937-2.682,0.199-4.214
		c-1.681-3.49-3.769-6.711-6.025-9.836c-0.673-0.932-0.684-1.076,0.056-2.037c1.358-1.764,2.693-3.546,4.055-5.307
		c2.388-3.085,4.637-6.248,6.348-9.784c0.718-1.483,1.143-2.906,0.787-4.539c-0.316-1.45-0.542-2.919-0.847-4.372
		c-0.566-2.695-1.54-5.248-2.771-7.708c-0.29-0.579-0.525-1.099-0.185-1.832c0.916-1.975,1.76-3.988,2.524-6.027
		c1.203-3.208,1.199-6.637,1.691-9.975c-0.525-1.482,0.196-2.7,0.809-3.957C451.861,463.037,452.681,459.993,452.728,456.799z"/>
	<path fill="#CC2D4B" d="M406.385,337.263c0.766,1.545,1.288,2.857,1.488,4.285c0.168,1.192,0.269,2.397,0.5,3.577
		c0.693,3.54,0.646,7.121,0.571,10.694c-0.044,2.078-0.364,4.149-0.527,6.225c-0.069,0.879-0.035,1.765-0.084,2.646
		c-0.024,0.43-0.13,0.856-0.219,1.412c-0.762-0.436-0.72-0.995-0.776-1.535c-0.189-1.843-0.4-3.683-0.609-5.523
		c-0.026-0.229-0.016-0.527-0.151-0.665c-0.264-0.269-0.635-0.641-0.935-0.618c-0.456,0.035-0.557,0.506-0.504,0.98
		c0.103,0.92,0.118,1.851,0.239,2.768c0.211,1.603,0.497,3.197,0.711,4.8c0.19,1.429,0.922,2.491,2.122,3.355
		c0.746-0.265,1.141-0.876,1.384-1.586c0.194-0.567,0.376-1.158,0.427-1.75c0.223-2.636,0.483-5.273,0.569-7.915
		c0.153-4.695-0.169-9.373-0.711-14.039c-0.248-2.135-0.761-4.188-1.502-6.192c-0.192-0.52-0.432-1.028-0.704-1.512
		c-0.832-1.481-1.838-1.576-2.667-0.11c-0.699,1.236-1.329,2.589-1.609,3.967c-0.516,2.54-0.756,5.137-1.104,7.711
		c-0.438,3.238-0.315,6.482-0.14,9.731c0.098,1.809,0.001,3.63,0.142,5.434c0.246,3.138,0.603,6.267,0.925,9.399
		c0.218,2.12,0.404,4.246,0.698,6.356c0.398,2.852,1.045,5.647,2.179,8.315c0.602,1.417,1.4,2.482,3.112,2.563
		c0.731,0.034,1.022,0.451,0.791,1.148c-0.845,2.55-1.571,5.161-3.235,7.353c-0.573,0.756-0.944,0.821-1.771,0.377
		c-1.057-0.567-1.802-1.453-2.471-2.408c-1.643-2.346-2.708-4.95-3.5-7.692c-0.8-2.767-1.619-5.522-1.826-8.415
		c-0.007-0.092-0.012-0.187-0.038-0.275c-1.239-4.251-1.614-8.65-2.068-13.019c-0.363-3.498-0.301-7.03-0.09-10.552
		c0.247-4.125,0.386-8.257,0.639-12.381c0.105-1.709,0.345-3.414,0.596-5.11c0.596-4.032,1.061-8.095,1.918-12.072
		c0.532-2.466,0.992-5.007,2.208-7.301c0.991-1.869,2.512-2.325,4.214-1.054c1.037,0.775,1.955,1.684,2.501,2.932
		c0.65,1.485,1.467,2.897,2.109,4.384c0.548,1.27,0.994,2.589,1.412,3.909c0.768,2.428,1.54,4.858,2.197,7.318
		c0.393,1.471,0.566,3,0.845,4.502c0.783,4.206,1.4,8.44,1.305,12.722c-0.078,3.519-0.105,7.044-0.591,10.551
		c-0.484,3.491-0.757,7.01-1.189,10.509c-0.17,1.376-0.531,2.728-0.783,4.095c-0.31,1.683-0.577,3.375-0.902,5.055
		c-0.158,0.817-0.397,1.619-0.617,2.423c-0.061,0.221-0.164,0.437-0.286,0.632c-0.711,1.138-1.373,1.221-2.32,0.24
		c-0.312-0.323-0.578-0.733-0.739-1.151c-1.105-2.865-1.919-5.806-2.231-8.875c-0.333-3.275-0.77-6.541-1.037-9.821
		c-0.313-3.835-0.665-7.681-0.685-11.523c-0.024-4.45,0.017-8.911,0.774-13.336c0.3-1.754,0.67-3.444,1.445-5.039
		C405.899,337.928,406.075,337.723,406.385,337.263z"/>
	<path fill="#7C513D" d="M328.713,382.476c-1.675,0-3.245-0.001-4.814,0c-1.392,0.001-2.786,0.029-4.177-0.003
		c-1.193-0.028-1.314-0.257-1.237-1.418c0.177-2.683,0.285-5.371,0.446-8.056c0.113-1.896,0.287-3.788,0.397-5.684
		c0.129-2.218,0.197-4.439,0.328-6.657c0.24-4.075,0.491-8.15,0.767-12.223c0.284-4.2,0.626-8.397,0.901-12.598
		c0.24-3.657,0.421-7.318,0.634-10.977c0.016-0.27,0.072-0.538,0.125-0.91c1.993-0.42,3.976-0.37,5.962-0.226
		c0.921,0.067,1.839,0.203,2.761,0.245c1.318,0.06,1.918,0.536,1.884,1.844c-0.072,2.729-0.24,5.457-0.369,8.184
		c-0.015,0.324-0.039,0.648-0.055,0.972c-0.201,3.892-0.335,7.79-0.617,11.676c-0.366,5.041-0.894,10.069-1.268,15.109
		c-0.309,4.162-0.465,8.336-0.747,12.501c-0.126,1.85-0.395,3.69-0.602,5.535C328.938,380.613,328.837,381.434,328.713,382.476z
		 M327.246,349.596c0.001-1.416-0.755-2.474-2.1-2.942c-1.044-0.363-2.081,0.105-2.99,1.213c-0.713,0.869-0.86,1.836-0.291,2.7
		c0.629,0.956,1.5,1.771,2.76,1.913c0.087,0.01,0.179-0.046,0.27-0.061C326.333,352.175,327.245,351.081,327.246,349.596z
		 M261.557,381.206c-0.053-3.155-0.127-6.31-0.152-9.465c-0.009-1.11,0.123-2.22,0.15-3.331c0.041-1.66,0.067-3.321,0.062-4.982
		c-0.005-2.042-0.036-4.084-0.078-6.125c-0.036-1.759-0.197-3.521-0.135-5.276c0.099-2.777,0.339-5.55,0.521-8.324
		c0.012-0.185,0.024-0.372,0.059-0.553c0.798-4.095,0.371-8.231,0.415-12.35c0.006-0.589-0.284-1.003-0.9-1.029
		c-1.294-0.055-2.591-0.098-3.885-0.081c-0.716,0.009-1.247,0.426-1.423,1.13c-0.201,0.803-0.372,1.623-0.451,2.445
		c-0.176,1.844-0.283,3.694-0.425,5.541c-0.135,1.755-0.282,3.509-0.419,5.263c-0.137,1.755-0.297,3.509-0.39,5.267
		c-0.049,0.926-0.301,1.872,0.036,2.917c0.297-0.199,0.489-0.311,0.664-0.446c1.384-1.073,1.673-1.062,2.945,0.141
		c0.202,0.191,0.409,0.383,0.579,0.602c0.888,1.142,0.432,3.437-0.806,4.165c-1.224,0.72-2.36,0.587-3.531-0.513
		c-0.071,0.482-0.153,0.777-0.15,1.072c0.008,0.739,0.093,1.478,0.078,2.216c-0.034,1.668-0.132,3.335-0.161,5.003
		c-0.03,1.718-0.075,3.44,0.002,5.156c0.16,3.563,0.371,7.124,0.619,10.681c0.063,0.902,0.342,1.789,0.544,2.789
		c2.138-0.215,4.14-0.417,6.232-0.628C261.557,381.934,261.563,381.57,261.557,381.206z"/>
	<path fill="#EFE447" d="M192.384,43.821c1.143,0.752,2.332,1.533,3.521,2.316c1.746,1.149,3.493,2.298,5.238,3.449
		c1.156,0.763,2.385,1.371,3.628,1.988c2.195,1.09,4.212,2.536,6.32,3.806c2.701,1.628,5.408,3.247,8.133,4.834
		c1.516,0.883,3.079,1.682,4.609,2.54c0.864,0.484,1.01,0.542,1.581-0.325c1.428-2.166,2.783-4.382,4.151-6.587
		c0.463-0.747,0.874-1.526,1.318-2.285c1.499-2.56,2.993-5.123,4.505-7.675c2.076-3.506,4.166-7.003,6.254-10.502
		c0.165-0.277,0.367-0.532,0.648-0.937c7.926,7.038,15.532,14.37,24.017,20.827c9.493-6.851,18.89-13.633,28.503-20.571
		c0.11,1.263,0.118,2.305,0.016,3.338c-0.273,2.764-0.658,5.519-0.867,8.287c-0.311,4.114-0.534,8.236-0.734,12.358
		c-0.046,0.938-0.265,1.931,0.298,3.037c3.234-1.458,6.275-3.2,9.443-4.67c3.152-1.463,6.276-2.984,9.421-4.462
		c3.189-1.5,6.381-2.996,9.586-4.462c3.156-1.444,6.331-2.848,9.593-4.313c0.049,0.269,0.185,0.54,0.126,0.759
		c-0.692,2.597-1.393,5.191-2.131,7.775c-0.688,2.408-1.477,4.788-2.124,7.207c-0.767,2.867-1.422,5.764-2.142,8.644
		c-0.292,1.168-0.652,2.319-0.941,3.487c-0.177,0.717-0.321,1.449-0.391,2.182c-0.031,0.325,0.158,0.672,0.241,0.989
		c11.905-2.945,23.676-5.839,35.709-8.424c-0.036,0.371,0.018,0.694-0.103,0.925c-0.693,1.312-1.424,2.604-2.148,3.899
		c-1.496,2.673-3.04,5.319-4.482,8.02c-2.032,3.806-3.984,7.654-5.98,11.478c-0.709,1.358-1.452,2.699-2.175,4.05
		c-0.263,0.491-0.558,0.971-0.761,1.487c-0.287,0.733-0.017,1.162,0.747,1.3c1.82,0.328,3.63,0.746,5.464,0.962
		c5.576,0.655,11.042,1.986,16.617,2.647c3.16,0.375,6.308,0.851,9.625,1.304c-0.194,0.347-0.278,0.673-0.488,0.846
		c-3.118,2.559-6.232,5.123-9.389,7.633c-3.375,2.684-6.787,5.323-10.201,7.959c-0.917,0.708-1.925,1.298-2.838,2.009
		c-0.894,0.697-0.78,1.048,0.232,1.544c2.526,1.238,5.252,1.797,7.952,2.471c2.201,0.549,4.375,1.204,6.566,1.795
		c1.612,0.435,3.232,0.839,4.846,1.263c0.208,0.055,0.407,0.146,0.955,0.346c-1.49,0.498-2.658,0.907-3.837,1.278
		c-1.236,0.389-2.489,0.724-3.724,1.115c-1.238,0.391-2.464,0.82-3.694,1.235c-1.274,0.43-2.56,0.827-3.816,1.303
		c-1.213,0.46-2.38,1.042-3.595,1.495c-1.215,0.454-2.473,0.793-3.698,1.222c-1.226,0.43-2.442,0.891-3.65,1.371
		c-1.198,0.477-2.379,0.995-3.677,1.54c0.406,0.901,0.812,1.712,1.138,2.554c0.3,0.776,0.54,1.577,0.758,2.381
		c1.08,3.98,2.147,7.962,3.203,11.948c0.067,0.251,0.009,0.536,0.009,1.095c-0.851-0.712-1.52-1.293-2.211-1.846
		c-2.713-2.173-5.438-4.332-8.149-6.507c-0.688-0.552-1.327-1.163-2.014-1.715c-2.204-1.771-4.411-3.539-6.638-5.282
		c-0.475-0.372-0.71-0.794-0.811-1.386c-0.288-1.692-0.632-3.375-0.964-5.059c-0.144-0.73-0.426-1.339-1.33-1.307
		c-0.579,0.492-0.431,1.078-0.272,1.674c1.257,4.717,1.786,9.564,2.55,14.369c0.184,1.158,0.184,2.345,0.293,3.856
		c-1.581-1.472-2.929-2.699-4.244-3.961c-1.306-1.252-2.529-2.596-3.882-3.795c-1.387-1.229-2.899-2.315-4.332-3.493
		c-1.398-1.15-2.759-2.345-4.148-3.507c-1.425-1.191-2.818-2.427-4.309-3.529c-1.416-1.047-2.595-2.417-4.219-3.351
		c-0.385,0.868-0.211,1.507-0.023,2.189c0.603,2.184,1.149,4.384,1.711,6.579c0.206,0.806,0.396,1.617,0.593,2.426
		c0.771,3.151,1.566,6.296,2.298,9.455c0.184,0.793,0.13,1.637,0.255,2.447c0.09,0.583,0.315,1.144,0.441,1.723
		c0.054,0.247,0.009,0.516,0.009,1.019c-0.376-0.298-0.637-0.44-0.812-0.653c-2.736-3.333-5.451-6.682-8.191-10.012
		c-1.445-1.756-2.91-3.495-4.395-5.218c-1.939-2.25-3.88-4.498-5.868-6.704c-1.553-1.724-3.193-3.37-4.765-5.078
		c-0.682-0.741-1.454-1.204-2.451-1.454c-1.797-0.451-3.523-1.26-5.338-1.552c-5.083-0.818-10.169-1.693-15.331-1.856
		c-3.337-0.106-6.682-0.032-10.016-0.19c-3.64-0.172-7.226,0.384-10.829,0.648c-2.857,0.209-5.681,0.875-8.522,1.322
		c-1.971,0.311-3.974,0.475-5.914,0.917c-3.755,0.855-7.467,1.894-11.211,2.795c-4.117,0.99-8.123,2.36-11.988,4.025
		c-2.962,1.276-6.001,2.455-8.727,4.283c-1.879,1.26-3.979,2.185-5.898,3.391c-1.406,0.884-2.693,1.961-3.996,2.999
		c-0.262,0.209-0.43,0.612-0.51,0.956c-0.18,0.765-0.339,1.544-0.397,2.326c-0.299,4.028-0.732,8.052-0.566,12.102
		c0.039,0.962-0.341,1.668-1.124,2.251c-1.97,1.465-3.912,2.968-5.837,4.493c-0.798,0.632-1.516,1.363-2.284,2.035
		c-0.195,0.171-0.438,0.285-0.758,0.488c-0.507-1.092,0.371-1.899,0.35-2.833c-0.023-1.002,0.287-2.015,0.477-3.019
		c0.181-0.954,0.412-1.898,0.589-2.853c0.187-1.003,0.331-2.014,0.502-3.02c0.163-0.958,0.337-1.915,0.505-2.873
		c0.176-1.006,0.363-2.01,0.521-3.018c0.149-0.948,0.266-1.9,0.418-3.01c-0.763,0-1.352-0.077-1.915,0.014
		c-2.195,0.353-4.377,0.785-6.572,1.138c-2.876,0.463-5.745,0.936-8.56,1.719c-1.142,0.318-2.354,0.379-3.791,0.596
		c0.271-0.494,0.375-0.842,0.601-1.07c2.906-2.936,5.077-6.472,7.827-9.538c2.882-3.212,5.68-6.5,8.527-9.744
		c0.71-0.809,0.679-0.961-0.235-1.57c-4.092-2.725-8.166-5.477-12.255-8.206c-1.967-1.313-3.962-2.585-5.928-3.899
		c-0.718-0.48-1.39-1.03-2.311-1.718c2.274-1.022,4.306-1.963,6.361-2.85c2.084-0.9,4.184-1.763,6.288-2.614
		c2.064-0.835,4.14-1.64,6.215-2.447c2.102-0.817,4.21-1.621,6.523-2.511c-0.04-0.239-0.007-0.712-0.196-1.065
		c-1.528-2.864-3.07-5.721-4.666-8.547c-0.936-1.657-2.021-3.228-2.966-4.88c-2.027-3.546-3.987-7.129-6.013-10.675
		c-0.943-1.65-1.976-3.248-2.96-4.875c-0.089-0.148-0.117-0.333-0.205-0.596c0.947-0.386,1.874-0.144,2.742-0.07
		c2.217,0.189,4.432,0.458,6.63,0.805c2.971,0.469,5.922,1.066,8.89,1.56c2.105,0.351,4.224,0.613,6.334,0.934
		c1.238,0.188,2.467,0.432,3.706,0.612c0.81,0.118,1.63,0.167,2.468,0.249C192.493,68.082,192.439,55.995,192.384,43.821z
		 M301.796,173.173c2.35,3.931,3.469,8.442,6.234,12.51c0.236-0.959,0.402-1.637,0.606-2.466c1.21,0.482,1.452,1.63,2.037,2.444
		c0.617,0.859,1.019,1.873,1.623,2.743c0.579,0.834,0.443,2.076,1.664,2.821c0.659-6.704,2.301-12.831,7.578-17.548
		C319.435,173.16,303.085,172.754,301.796,173.173z M344.547,195.44c-0.915,1.733-1.778,3.496-2.759,5.192
		c-1.019,1.763-2.131,3.475-3.24,5.185c-1.066,1.644-2.179,3.257-3.344,4.992c1.543,0.232,2.866,0.432,4.189,0.629
		c0.599,0.089,0.912-0.249,1.223-0.715c0.667-1.003,1.388-1.971,2.107-2.938c0.913-1.228,2.133-1.873,3.675-1.949
		c0.408-0.02,0.808-0.215,1.178-0.319c-0.489-1.805-0.928-3.41-1.357-5.019c-0.438-1.643-0.865-3.29-1.297-4.935
		C344.798,195.521,344.673,195.48,344.547,195.44z M258.928,175.494c-0.228,0-0.459-0.026-0.683,0.004
		c-1.326,0.182-2.653,0.362-3.975,0.573c-0.903,0.144-1.899,0.146-2.673,0.555c-1.216,0.642-2.332,1.51-3.396,2.394
		c-3.243,2.694-6.439,5.444-9.657,8.167c-1.483,1.255-3.002,2.47-4.45,3.764c-0.659,0.589-1.284,1.132-2.431,0.963
		c0.55,0.748,0.909,0.971,1.6,0.474c1.918-1.378,3.867-2.714,5.84-4.013c3.098-2.04,6.206-4.066,9.343-6.043
		c3.213-2.024,6.467-3.982,9.701-5.972c0.298-0.184,0.582-0.392,0.873-0.588C258.989,175.68,258.958,175.587,258.928,175.494z
		 M212.203,192.239c-0.15-0.278-0.235-0.471-0.352-0.644c-0.594-0.883-1.205-1.755-1.795-2.641c-0.714-1.07-1.392-2.165-2.135-3.215
		c-0.163-0.23-0.579-0.484-0.804-0.429c-0.871,0.215-1.711,0.551-2.719,0.896C205.376,187.479,211.042,191.826,212.203,192.239z"/>
	<path fill="#FFFFFF" d="M365.587,254.813c0.136,0.409,0.225,0.842,0.416,1.223c0.622,1.246,1.194,2.495,1.356,3.908
		c0.084,0.739,0.043,1.354-0.551,1.897c-0.885,0.809-1.709,1.684-2.578,2.511c-0.429,0.409-0.944,0.564-1.543,0.393
		c-0.266-0.076-0.549-0.113-0.826-0.124c-1.548-0.062-2.573-0.65-2.974-2.316c-0.266-1.105-0.896-2.132-1.432-3.158
		c-0.292-0.561-0.692-1.09-1.557-1.263c0.083,0.392,0.102,0.699,0.214,0.968c0.444,1.071,0.948,2.119,1.365,3.2
		c0.215,0.557,0.36,1.161,0.409,1.754c0.026,0.319-0.155,0.706-0.353,0.982c-0.268,0.373-0.683,0.638-0.964,1.003
		c-1.433,1.863-3.322,2.379-5.57,2.02c-0.752-0.12-1.349-0.37-1.654-1.081c-0.236-0.55-0.404-1.129-0.602-1.696
		c-0.131-0.375-0.26-0.751-0.396-1.143c-0.847,0.15-1.033,0.606-0.917,1.232c0.085,0.456,0.243,0.897,0.334,1.352
		c0.204,1.024,0.189,1.98-0.431,2.933c-0.638,0.981-1.121,2.224-2.3,2.489c-1.331,0.299-2.759,0.215-4.142,0.184
		c-0.266-0.006-0.626-0.501-0.757-0.842c-0.265-0.689-0.382-1.433-0.601-2.142c-0.122-0.394-0.298-0.874-0.831-0.743
		c-0.589,0.144-0.551,0.614-0.437,1.12c0.173,0.769,0.266,1.555,0.41,2.331c0.187,1.001-0.13,1.823-0.84,2.524
		c-1.095,1.082-2.149,2.246-3.893,2.124c-0.915-0.064-1.828-0.164-2.741-0.256c-0.733-0.074-1.167-0.447-1.323-1.202
		c-0.14-0.679-0.361-1.346-0.593-2.001c-0.132-0.374-0.24-0.835-0.915-0.794c-0.047,0.225-0.158,0.478-0.14,0.723
		c0.04,0.554,0.144,1.104,0.22,1.655c0.226,1.636,0.031,3.145-1.294,4.319c-0.243,0.215-0.445,0.477-0.693,0.684
		c-0.741,0.618-1.386,1.595-2.403,1.539c-1.322-0.073-2.643-0.426-3.926-0.795c-0.334-0.096-0.603-0.666-0.76-1.074
		c-0.316-0.82-0.492-1.695-0.818-2.51c-0.109-0.272-0.528-0.634-0.755-0.602c-0.56,0.08-0.457,0.6-0.376,1.012
		c0.16,0.812,0.302,1.632,0.525,2.427c0.352,1.255-0.244,2.172-1.059,2.958c-1.034,0.997-2.147,1.914-3.235,2.854
		c-0.612,0.529-1.306,0.665-2.08,0.38c-0.392-0.144-0.793-0.268-1.196-0.374c-0.646-0.17-1.044-0.582-1.233-1.206
		c-0.215-0.709-0.407-1.425-0.627-2.133c-0.177-0.57-0.306-1.187-1.005-1.375c-0.544,0.203-0.504,0.654-0.419,1.053
		c0.28,1.311,0.628,2.608,0.891,3.921c0.075,0.376,0.073,0.856-0.099,1.178c-0.723,1.355-1.873,2.174-3.421,2.32
		c-1.01,0.095-2.028,0.098-3.077,0.144c-0.609,0.911-1.246,1.87-1.889,2.825c-0.571,0.849-1.284,1.424-2.383,1.471
		c-0.642,0.027-1.278,0.225-1.912,0.37c-0.633,0.145-1.096,0.053-1.255-0.685c-0.165-0.762-0.372-1.516-0.563-2.272
		c-0.08-0.315-0.101-0.672-0.273-0.926c-0.149-0.221-0.474-0.453-0.719-0.45c-0.415,0.005-0.659,0.335-0.589,0.776
		c0.101,0.641,0.24,1.275,0.359,1.913c0.068,0.365,0.124,0.732,0.191,1.097c0.367,1.983-0.549,3.556-1.761,4.932
		c-0.466,0.529-1.341,0.699-2.021,1.028c-1.042-0.721-0.503-2.401-2.058-2.847c0,0.435-0.022,0.816,0.005,1.194
		c0.062,0.874,0.171,1.744,0.221,2.618c0.082,1.446-0.57,2.528-1.798,3.224c-0.95,0.538-1.94,1.023-3.243,1.369
		c0.211-1.68-0.074-3.096-0.861-4.377c-0.074-0.121-0.304-0.145-0.696-0.317c-0.003,0.818-0.106,1.498,0.009,2.139
		c0.412,2.292-0.241,4.189-1.887,5.812c-1.22,1.204-2.372,2.477-3.57,3.704c-0.137,0.141-0.375,0.183-0.697,0.331
		c-0.08-2.693-0.99-4.977-2.317-7.11c-0.108-0.174-0.432-0.215-0.938-0.447c0.332,0.952,0.534,1.646,0.813,2.308
		c0.661,1.566,0.802,3.23,0.982,4.889c0.02,0.184-0.029,0.383,0.019,0.556c0.574,2.052-0.449,3.605-1.618,5.087
		c-1.311,1.662-2.813,3.092-4.91,3.745c-1.096,0.341-1.402,0.256-1.785-0.846c-0.288-0.829-0.417-1.711-0.662-2.557
		c-0.175-0.604-0.353-1.256-1.379-1.306c0,0.453-0.075,0.857,0.014,1.221c0.242,0.99,0.474,1.996,0.856,2.935
		c0.552,1.358,0.476,2.508-0.863,3.546c-0.239-0.097-0.585-0.193-0.885-0.37c-0.712-0.419-1.437-0.393-2.123-0.029
		c-1.175,0.624-2.165,1.461-2.557,2.8c-0.204,0.7-0.521,1.2-1.216,1.568c-0.424,0.225-0.724,0.822-0.915,1.315
		c-0.332,0.858-0.525,1.768-0.795,2.65c-0.234,0.763-0.464,0.883-1.229,0.677c-0.445-0.119-0.897-0.223-1.326-0.385
		c-1.243-0.467-2.095-1.236-2.415-2.632c-0.416-1.816-0.805-3.621-0.82-5.491c-0.001-0.183-0.009-0.392-0.095-0.54
		c-0.082-0.14-0.295-0.322-0.41-0.297c-0.19,0.04-0.394,0.202-0.503,0.37c-0.089,0.137-0.057,0.358-0.067,0.543
		c-0.125,2.29,0.173,4.54,0.659,6.77c0.187,0.858,0.709,1.486,1.383,2.027c0.531,0.426,1.035,0.891,1.513,1.377
		c0.706,0.719,1.308,1.548,2.455,1.64c0.213,0.017,0.531,0.389,0.558,0.626c0.029,0.255-0.16,0.69-0.371,0.784
		c-0.401,0.179-0.923,0.318-1.329,0.216c-2.005-0.504-3.919-1.215-5.128-3.064c-0.303-0.463-0.646-0.927-0.822-1.441
		c-0.688-2.021-1.186-4.073-1.221-6.242c-0.056-3.435-0.205-6.87-0.815-10.264c-0.205-1.139-0.439-2.273-0.652-3.411
		c-0.799-4.28-1.597-8.56-2.392-12.84c-0.356-1.915-0.731-3.826-1.051-5.747c-0.327-1.965-0.593-3.941-0.896-5.911
		c-0.137-0.889,0.348-1.554,0.883-2.109c0.696-0.721,0.954-1.572,1.098-2.498c0.185-1.191,0.296-2.398,0.548-3.575
		c0.162-0.761,0.452-1.516,0.817-2.203c0.163-0.308,0.625-0.545,0.996-0.64c1.254-0.32,2.528-0.563,3.781-0.832
		c1.035,0.481,0.359,2.063,1.767,2.496c0.06-0.444,0.152-0.821,0.154-1.198c0.013-2.405-0.002-4.81,0.011-7.215
		c0.003-0.509,0.042-1.025,0.135-1.525c0.221-1.188,0.878-2.117,2.061-2.396c1.069-0.252,2.198-0.277,3.304-0.323
		c0.268-0.011,0.609,0.237,0.811,0.461c0.402,0.445,0.735,0.952,1.087,1.44c0.429,0.595,0.849,1.198,1.256,1.773
		c0.623-0.259,0.554-0.61,0.346-0.96c-0.404-0.678-0.832-1.341-1.248-2.013c-0.529-0.856-0.525-1.665-0.11-2.629
		c0.856-1.987,2.401-2.965,4.385-3.468c0.492-0.125,0.96-0.346,1.437-0.529c1.075-0.412,1.396-0.232,1.606,0.922
		c0.083,0.455,0.135,0.917,0.233,1.368c0.098,0.448,0.36,0.728,1.037,0.701c0-0.63,0.122-1.276-0.024-1.855
		c-0.381-1.519-0.053-2.841,0.849-4.068c0.467-0.635,0.953-1.257,1.401-1.905c1.145-1.657,2.794-2.01,4.654-1.826
		c0.832,0.082,1.574,0.793,1.769,1.727c0.085,0.407,0.031,0.853,0.163,1.238c0.084,0.246,0.393,0.415,0.601,0.618
		c0.17-0.246,0.493-0.5,0.481-0.736c-0.032-0.594-0.071-1.267-0.364-1.754c-0.954-1.587-0.367-3.2,0.186-4.565
		c0.472-1.163,1.786-1.961,3.119-2.366c0.396-0.12,0.82-0.171,1.235-0.204c1.465-0.119,2.275,0.531,2.512,1.978
		c0.067,0.41,0.093,0.845,0.259,1.213c0.098,0.218,0.435,0.328,0.665,0.487c0.094-0.052,0.188-0.104,0.282-0.156
		c-0.048-0.43-0.023-0.884-0.156-1.285c-0.811-2.44,0.223-4.261,1.763-6.058c1.07-1.248,2.421-1.568,3.871-1.883
		c0.756-0.165,1.144,0.154,1.411,0.775c0.238,0.554,0.461,1.115,0.699,1.669c0.159,0.369,0.387,0.634,1.032,0.443
		c-0.07-0.454-0.113-0.931-0.224-1.392c-0.086-0.356-0.274-0.685-0.389-1.035c-0.322-0.98-0.122-1.771,0.711-2.47
		c0.85-0.713,1.649-1.507,2.368-2.353c0.992-1.168,2.349-1.395,3.716-1.654c0.136-0.026,0.279-0.006,0.418-0.018
		c2.029-0.178,2.023-0.177,2.754,1.786c0.194,0.521,0.402,1.041,0.664,1.529c0.111,0.206,0.381,0.326,0.775,0.643
		c0-0.49,0.054-0.753-0.01-0.983c-0.187-0.669-0.518-1.311-0.614-1.99c-0.153-1.084-0.84-2.092-0.004-3.307
		c1.142-1.659,2.23-3.21,4.47-3.321c0.685-0.034,1.368-0.1,1.998-0.147c0.849,0.927,0.167,2.391,1.261,3.168
		c0.702-0.301,0.525-0.839,0.462-1.322c-0.209-1.593-0.036-3.126,0.535-4.64c0.29-0.767,0.742-1.286,1.494-1.524
		c0.971-0.307,2.037-0.415,2.922-0.875c1.408-0.733,2.349-0.325,3.211,0.82c0.277,0.367,0.676,0.611,1.253,0.391
		c-0.063-0.8-0.591-1.276-1.032-1.785c-0.773-0.893-0.801-1.046-0.193-2.053c0.192-0.318,0.46-0.608,0.577-0.95
		c0.346-1.011,1.089-1.61,2.014-1.996c2.01-0.84,4.034-1.651,6.06-2.453c0.77-0.305,1.563-0.553,2.469-0.87
		c0.535,1.318,0.785,2.665,1.057,4.005c0.064,0.314,0.057,0.686,0.231,0.922c0.151,0.205,0.511,0.255,0.779,0.373
		c0.08-0.237,0.257-0.489,0.223-0.708c-0.235-1.513-0.47-3.028-0.801-4.522c-0.152-0.683-0.031-1.164,0.484-1.604
		c0.669-0.572,1.353-1.134,1.962-1.766c0.672-0.696,1.452-0.908,2.381-0.829c1.108,0.094,2.219,0.166,3.33,0.197
		c0.979,0.028,1.523,0.549,1.857,1.411c0.301,0.779,0.621,1.552,0.975,2.308c0.139,0.297,0.393,0.54,0.604,0.82
		c0.795-0.567,0.589-1.143,0.379-1.723c-0.332-0.915-0.694-1.821-0.971-2.752c-0.111-0.371-0.18-0.888-0.007-1.185
		c0.579-0.992,1.186-1.996,1.949-2.846c1.27-1.417,3.011-1.775,4.831-1.664c2.405,0.146,2.402,0.183,2.877,2.573
		c0.167,0.844,0.335,1.687,0.521,2.621c0.906-0.236,1.157-0.634,1.033-1.361c-0.171-1.004-0.216-2.032-0.439-3.022
		c-0.15-0.666,0.089-1.1,0.54-1.457c0.655-0.518,1.333-1.015,2.045-1.449c0.34-0.207,0.786-0.364,1.173-0.343
		c0.966,0.052,1.951,0.123,2.883,0.362c1.248,0.32,2.286,0.946,2.618,2.378c0.24,1.034,0.645,2.028,0.946,3.049
		c0.116,0.393,0.256,0.736,0.724,0.668c0.532-0.077,0.68-0.515,0.568-0.945c-0.221-0.853-0.548-1.677-0.798-2.523
		c-0.575-1.942-0.344-2.363,1.662-2.765c1.135-0.228,2.298-0.322,3.447-0.48c1.133-0.156,1.996,0.28,2.625,1.205
		c0.783,1.152,1.645,2.262,2.311,3.479c1.468,2.682,2.972,5.344,3.918,8.288c0.746,2.319,1.083,4.697,1.396,7.088
		c0.295,2.251,0.483,4.517,0.828,6.759c0.278,1.813,1.092,3.428,2.165,4.921c1.163,1.619,2.269,3.277,3.411,4.911
		c0.346,0.494,0.676,1.016,1.104,1.433c1.425,1.386,2.31,3.127,3.311,4.801c0.981,1.64,0.967,3.46,1.035,5.258
		c0.018,0.475-0.202,1.024-0.471,1.436c-1.238,1.893-2.988,2.972-5.362,3.216c-0.171-1.151-0.262-2.245-0.509-3.304
		c-0.263-1.126-0.591-2.253-1.421-3.14c-0.723-0.772-0.899-2.067-2.189-2.378c-0.382,0.638-0.023,1.06,0.284,1.435
		c1.54,1.877,1.573,4.201,1.942,6.424c0.119,0.718-0.183,1.248-0.86,1.582c-1.523,0.754-3.048,1.323-4.809,0.828
		c-0.586-0.165-0.857-0.394-0.985-0.969c-0.14-0.628-0.329-1.264-0.618-1.835c-0.259-0.511-0.683-0.939-1.296-1.314
		c-0.023,0.23-0.109,0.476-0.059,0.689c0.192,0.811,0.466,1.604,0.638,2.419c0.201,0.95-0.073,1.656-0.984,2.214
		c-1.036,0.635-2.106,0.957-3.291,0.941c-1.11-0.015-1.198-0.143-1.625-1.15c-0.578-1.361-1.195-2.708-1.854-4.032
		c-0.203-0.409-0.6-0.721-0.908-1.077C365.872,254.639,365.73,254.726,365.587,254.813z M254.314,307.38
		c0.488-0.512,0.352-0.979,0.197-1.479c-0.469-1.511-0.978-3.049-0.56-4.638c0.512-1.949,0.02-3.884,0.061-5.824
		c0.009-0.441-0.035-1.177-0.754-1.112c-0.761,0.069-0.493,0.767-0.497,1.23c-0.016,1.989,0.038,3.98-0.013,5.967
		c-0.047,1.844,0.329,3.595,0.972,5.3C253.8,307.036,254.083,307.172,254.314,307.38z M255.557,317.655
		c-0.148,0.395-0.296,0.715-0.388,1.05c-0.208,0.758-0.446,1.514-0.568,2.287c-0.201,1.275-0.382,2.559-0.452,3.846
		c-0.051,0.93,0.238,1.19,1.21,1.536c0.402-0.418,0.39-0.869,0.19-1.396c-0.142-0.375-0.251-0.812-0.204-1.201
		c0.182-1.512,0.449-3.014,0.646-4.524C256.059,318.738,256.253,318.154,255.557,317.655z M269.245,298.794
		c0.092-0.323,0.239-0.646,0.268-0.979c0.081-0.919,0.197-1.847,0.143-2.762c-0.085-1.424-0.281-2.843-0.481-4.258
		c-0.024-0.173-0.363-0.301-0.556-0.449c-0.113,0.179-0.239,0.352-0.332,0.54c-0.036,0.072-0.015,0.186,0.009,0.273
		c0.428,1.553,0.279,3.111,0.087,4.678c-0.078,0.639-0.028,1.295-0.021,1.943C268.368,298.276,268.502,298.691,269.245,298.794z
		 M353.523,215.138c-0.84,0.71-0.643,1.382-0.572,1.996c0.143,1.232,0.333,2.459,0.521,3.685c0.055,0.361,0.118,0.736,0.265,1.064
		c0.196,0.435,0.757,0.429,0.973-0.001c0.098-0.195,0.152-0.451,0.121-0.665c-0.245-1.685-0.5-3.369-0.793-5.046
		C353.984,215.857,353.747,215.574,353.523,215.138z M250.917,288.579c1.027,0.156,1.247-0.316,1.171-0.945
		c-0.128-1.052-0.295-2.104-0.52-3.14c-0.217-0.993-0.512-1.971-0.811-2.943c-0.081-0.262-0.304-0.48-0.482-0.75
		c-0.822,0.599-0.478,1.266-0.351,1.854C250.338,284.588,251.256,286.419,250.917,288.579z M364.841,218.854c0,0,0.002,0,0.002,0
		c0-0.647,0.021-1.295-0.008-1.94c-0.016-0.364-0.044-0.758-0.198-1.074c-0.113-0.231-0.441-0.357-0.672-0.53
		c-0.15,0.255-0.31,0.505-0.445,0.768c-0.037,0.071,0.005,0.181,0.006,0.274c0.004,1.328,0.007,2.655,0.011,3.983
		c0.001,0.23-0.074,0.513,0.031,0.679c0.178,0.281,0.447,0.649,0.722,0.691c0.474,0.072,0.544-0.387,0.548-0.772
		C364.846,220.239,364.841,219.547,364.841,218.854z M345.784,255.869c-0.039,0.598-0.13,0.94-0.07,1.253
		c0.319,1.668,1.053,3.251,1.01,4.994c-0.002,0.089,0.011,0.206,0.065,0.265c0.143,0.155,0.306,0.388,0.472,0.397
		c0.178,0.01,0.449-0.157,0.534-0.322c0.119-0.231,0.194-0.555,0.132-0.799c-0.432-1.694-0.89-3.381-1.379-5.058
		C346.487,256.392,346.197,256.252,345.784,255.869z M343.43,225.296c0.672-0.085,0.861-0.515,0.826-0.999
		c-0.109-1.517-0.231-3.035-0.435-4.541c-0.072-0.532-0.484-0.767-1.118-0.315c0.114,0.968,0.15,1.99,0.372,2.969
		C343.291,223.361,342.623,224.44,343.43,225.296z M281.776,287.606c-0.1-0.745-0.126-1.352-0.284-1.922
		c-0.066-0.238-0.413-0.397-0.632-0.593c-0.156,0.251-0.471,0.522-0.442,0.75c0.176,1.432,0.346,2.84-0.264,4.232
		c-0.072,0.164,0.21,0.635,0.435,0.744c0.355,0.173,0.584-0.114,0.656-0.488C281.426,289.381,281.614,288.433,281.776,287.606z
		 M262.471,307.882c-0.163,0.025-0.326,0.051-0.489,0.076c-0.134,1.505-0.284,3.008-0.395,4.514
		c-0.037,0.502,0.154,0.994,0.737,0.981c0.615-0.015,0.665-0.545,0.646-1.033c-0.043-1.108-0.069-2.218-0.158-3.323
		C262.779,308.685,262.589,308.287,262.471,307.882z M332.584,225.294c-0.031-0.52,0.012-0.999-0.113-1.429
		c-0.07-0.242-0.416-0.404-0.637-0.601c-0.166,0.24-0.446,0.465-0.478,0.721c-0.141,1.135-0.211,2.279-0.302,3.419
		c-0.011,0.136-0.051,0.326,0.019,0.403c0.197,0.216,0.423,0.465,0.683,0.538c0.116,0.033,0.459-0.305,0.496-0.511
		C332.406,226.977,332.484,226.105,332.584,225.294z M301.059,286.841c0.045-0.017,0.09-0.034,0.134-0.052
		c-0.334-1.001-0.651-2.008-1.018-2.996c-0.059-0.158-0.356-0.34-0.515-0.316c-0.16,0.024-0.343,0.269-0.407,0.454
		c-0.072,0.207-0.059,0.465-0.016,0.687c0.176,0.906,0.378,1.808,0.57,2.711c0.01,0.045,0.009,0.108,0.038,0.131
		c0.229,0.182,0.465,0.356,0.698,0.532c0.171-0.245,0.363-0.479,0.504-0.74C301.108,287.145,301.059,286.98,301.059,286.841z
		 M317.736,266.932c-0.136,0.042-0.272,0.084-0.409,0.126c-0.164,1.357-0.359,2.712-0.468,4.073
		c-0.022,0.281,0.215,0.775,0.435,0.844c0.517,0.162,0.728-0.27,0.76-0.727c0.074-1.058,0.17-2.119,0.154-3.177
		C318.202,267.689,317.902,267.312,317.736,266.932z M302.543,246.298c0.89-0.026,1.137-0.368,1.167-0.888
		c0.026-0.458,0.069-0.928-0.008-1.374c-0.045-0.259-0.311-0.479-0.478-0.717c-0.257,0.217-0.712,0.414-0.735,0.653
		C302.418,244.717,302.511,245.479,302.543,246.298z M320.745,229.55c-0.758-0.016-1.056,0.174-1.105,0.684
		c-0.043,0.459-0.043,0.924-0.124,1.375c-0.079,0.442-0.154,0.911,0.4,0.993c0.581,0.086,0.802-0.377,0.823-0.884
		C320.766,231.036,320.745,230.353,320.745,229.55z M311.266,236.945c0-0.359,0.075-0.628-0.018-0.81
		c-0.13-0.253-0.386-0.441-0.588-0.657c-0.206,0.214-0.487,0.396-0.594,0.652c-0.095,0.226-0.022,0.537,0.024,0.803
		c0.085,0.492-0.159,1.313,0.655,1.246C311.504,238.116,311.209,237.325,311.266,236.945z M284.866,491.707
		c0.317-0.014,0.724-0.43,0.892-0.761c0.223-0.438,0.307-0.97,0.353-1.47c0.165-1.802,0.259-3.61,0.437-5.411
		c0.215-2.167,0.528-4.324,0.727-6.492c0.246-2.678,0.416-5.362,0.622-8.043c0.064-0.828,0.139-1.656,0.208-2.484
		c0.065-0.773,0.195-1.551-0.128-2.414c-2.025-0.036-3.996-0.595-6.114-0.335c-0.043,0.851-0.044,1.541-0.117,2.222
		c-0.334,3.084-0.734,6.162-1.023,9.25c-0.367,3.923-0.674,7.852-0.956,11.782c-0.089,1.233-0.014,2.478-0.014,3.715
		C281.455,492.112,283.181,491.781,284.866,491.707z M240.277,304.68c-0.214-1.09-0.394-2.193-0.694-3.26
		c-0.967-3.442-1.635-6.932-2.037-10.487c-0.222-1.967,0.016-3.762,1.095-5.441c0.447-0.696,0.662-1.471,0.43-2.448
		c-1.103,0.521-2.132,1.081-2.502,2.126c-0.442,1.252-0.594,2.613-0.807,3.937c-0.38,2.364,0.258,4.616,0.928,6.833
		c0.869,2.88,1.851,5.726,2.805,8.58c0.087,0.26,0.326,0.469,0.631,0.891C240.216,304.998,240.306,304.827,240.277,304.68z
		 M251.678,334.201c0.556,0.774,0.556,0.774,1.785,1.269C253.432,334.287,253.329,334.22,251.678,334.201z"/>
	<path fill="#F6894E" d="M327.572,385.523c1.928-0.001,3.786-0.269,5.709-0.098c2.298,0.204,4.632,0.01,6.951-0.019
		c0.23-0.003,0.475-0.126,0.686-0.078c2.607,0.59,5.164-0.189,7.744-0.29c2.594-0.101,5.181-0.391,7.771-0.594
		c0.404-0.032,0.808-0.045,1.23-0.068c0.095,0.334,0.208,0.552,0.211,0.771c0.031,2.178,0.125,4.359,0.042,6.532
		c-0.156,4.084-0.408,8.165-0.641,12.245c-0.074,1.296-0.223,2.588-0.329,3.883c-0.361,4.391-0.703,8.783-1.087,13.172
		c-0.085,0.967-0.345,1.918-0.467,2.884c-0.375,2.989-0.823,5.974-1.048,8.974c-0.174,2.313-0.013,4.648-0.078,6.972
		c-0.055,1.993-0.222,3.983-0.332,5.975c-0.053,0.969-0.052,1.942-0.138,2.908c-0.283,3.188-0.586,6.373-0.901,9.558
		c-0.082,0.831-0.261,1.651-0.356,2.481c-0.407,3.544-0.725,7.1-1.22,10.632c-0.469,3.352-1.255,6.663-1.649,10.021
		c-0.429,3.65-1.29,7.207-1.978,10.8c-0.347,1.812-0.943,3.574-1.058,5.438c-0.114,1.848-0.367,3.691-0.397,5.539
		c-0.049,2.975-0.148,5.938-0.544,8.892c-0.203,1.514-0.172,3.057-0.333,4.578c-0.234,2.213-0.562,4.415-0.819,6.626
		c-0.117,1.012-0.105,2.041-0.245,3.049c-0.368,2.657-1.462,5.087-2.583,7.476c-1.419,3.024-2.961,5.995-4.552,8.933
		c-1.103,2.037-2.388,3.975-3.577,5.966c-0.543,0.91-1.342,1.54-2.221,2.068c-2.784,1.672-5.549,3.38-8.387,4.957
		c-2.591,1.44-5.235,2.795-7.913,4.068c-2.97,1.412-5.984,2.735-9.02,3.999c-1.144,0.476-2.4,0.687-3.61,0.999
		c-0.526,0.136-1.14,0.093-1.36,0.858c0.385,0.519,0.93,0.465,1.462,0.313c2.047-0.585,4.113-1.121,6.126-1.808
		c4.132-1.41,8.027-3.347,11.841-5.463c1.736-0.963,3.57-1.751,5.31-2.707c1.215-0.667,2.345-1.487,3.516-2.234
		c0.249-0.159,0.509-0.302,0.859-0.508c0,0.278,0.05,0.437-0.007,0.527c-1.59,2.483-3.362,4.656-6.231,5.925
		c-3.948,1.746-7.985,3.244-12.013,4.767c-1.987,0.751-4.078,1.224-6.115,1.844c-0.506,0.154-0.986,0.392-1.62,0.65
		c0.731,0.758,1.453,0.583,2.074,0.43c2.161-0.532,4.335-1.045,6.444-1.746c2.901-0.965,5.75-2.086,8.613-3.161
		c0.517-0.194,0.989-0.507,1.497-0.731c0.386-0.17,0.795-0.287,1.194-0.428c0.056,0.113,0.112,0.226,0.168,0.339
		c-0.672,0.451-1.304,0.986-2.024,1.338c-2.165,1.058-4.288,2.223-6.66,2.803c-0.763,0.187-1.503,0.48-2.24,0.76
		c-2.623,0.999-5.317,1.604-8.14,1.572c-2.823-0.032-5.646-0.059-8.469-0.064c-5.9-0.009-11.801-0.014-17.701,0.002
		c-4.368,0.011-8.736,0.087-13.104,0.081c-7.577-0.01-15.155-0.071-22.732-0.092c-5.207-0.015-10.415,0.021-15.622-0.006
		c-1.944-0.01-3.887-0.132-5.964-0.208c-0.097-0.514-0.247-0.996-0.27-1.485c-0.15-3.154-0.276-6.309-0.401-9.463
		c-0.047-1.188,0.34-2.076,1.402-2.812c1.597-1.107,3.04-2.435,4.558-3.657c0.345-0.278,0.731-0.504,1.185-0.813
		c-0.064,1.337-0.12,2.502-0.178,3.702c0.945,0.174,1.066-0.302,1.214-0.887c0.716-2.828,1.384-5.674,2.238-8.461
		c1.208-3.942,2.491-7.865,3.887-11.744c0.734-2.039,1.633-4.022,2.857-5.859c1.411-2.117,2.538-4.426,3.974-6.524
		c1.355-1.979,2.625-4.03,4.413-5.709c1.171-1.1,2.123-2.437,3.14-3.695c2.273-2.813,4.54-5.631,6.782-8.469
		c1.839-2.328,3.679-4.658,5.443-7.044c1.241-1.678,2.329-3.468,3.531-5.176c1.443-2.049,2.988-4.028,4.39-6.104
		c1.636-2.424,3.189-4.905,4.729-7.393c0.952-1.538,1.81-3.133,2.714-4.7c0.11-0.191,0.248-0.366,0.423-0.621
		c1.016,0.748,1.603,1.552,1.416,2.833c-0.248,1.695-0.415,3.402-0.587,5.107c-0.097,0.969-0.157,1.943-0.193,2.916
		c-0.132,3.569-0.249,7.14-0.362,10.71c-0.007,0.224,0.065,0.45,0.118,0.797c0.499,0.063,0.991,0.122,1.482,0.189
		c0.735,0.1,0.82,0.264,0.677,1.018c-0.681,3.608-0.829,7.258-0.846,10.918c0,0.087,0.056,0.174,0.092,0.276
		c1.033,0.818,2.234,0.8,3.432,0.561c0.354-0.071,0.754-0.387,0.939-0.704c0.249-0.426,0.401-0.956,0.434-1.451
		c0.154-2.361,0.241-4.726,0.379-7.089c0.059-1.011,0.183-2.019,0.276-3.014c0.203-0.075,0.326-0.155,0.452-0.161
		c0.451-0.022,1.103,0.165,1.315-0.063c0.449-0.486,0.862-1.157,0.95-1.799c0.359-2.617,0.594-5.251,0.866-7.879
		c0.358-3.458,0.72-6.916,1.055-10.376c0.089-0.923,0.013-1.867,0.152-2.78c0.077-0.505,0.331-1.083,0.694-1.429
		c3.478-3.315,6.47-7.02,9.104-11.03c1.629-2.48,3.401-4.869,4.951-7.396c1.696-2.764,3.301-5.593,4.78-8.479
		c1.841-3.591,3.6-7.229,5.232-10.919c1.725-3.902,3.306-7.87,4.852-11.848c0.585-1.504,0.877-3.12,1.339-4.673
		c0.463-1.555,1.012-3.086,1.452-4.647c0.578-2.05,1.102-4.116,1.621-6.182c0.574-2.289,1.116-4.587,1.673-6.881
		c0.044-0.181,0.14-0.36,0.137-0.538c-0.035-1.974,0.744-3.801,1.024-5.72C326.74,389.343,327.174,387.535,327.572,385.523z
		 M229.833,556.345c0.427-0.208,0.842-0.378,1.225-0.604c0.48-0.282,0.91-0.656,1.402-0.91c3.457-1.784,6.778-3.838,10.425-5.245
		c1.47-0.567,2.919-1.19,4.378-1.788c3.687-1.512,7.449-2.865,11.042-4.575c4.478-2.132,8.877-4.45,12.976-7.278
		c2.368-1.633,4.871-3.111,6.813-5.272c3.536-3.935,6.903-8.009,9.796-12.455c1.401-2.153,0.932-4.314,0.1-6.488
		c-0.018-0.047-0.168-0.043-0.447-0.104c-0.052,0.493-0.154,0.966-0.138,1.435c0.023,0.693,0.094,1.39,0.208,2.075
		c0.264,1.596-0.91,2.331-1.902,3.243c-0.154-0.411-0.147-0.794-0.176-1.174c-0.046-0.592-0.068-1.193-0.204-1.766
		c-0.047-0.199-0.406-0.323-0.738-0.566c-0.25,1.357-0.432,2.475-0.207,3.651c0.14,0.729,0.244,1.554-0.654,2.103
		c-0.667-1.165,0.187-2.59-0.778-3.648c-0.627,0.463-0.421,1.082-0.412,1.662c0.009,0.593,0.162,1.319-0.457,1.643
		c-0.598,0.313-0.6,0.753-0.604,1.268c-0.004,0.558,0,1.116-0.013,1.673c-0.012,0.494-0.137,0.913-0.835,0.991
		c-0.235-0.524-0.473-1.054-0.784-1.745c-0.643,0.732-0.698,1.315-0.459,1.979c0.197,0.548,0.221,1.091-0.188,1.579
		c-1.609,1.917-3.069,3.977-5.112,5.484c-4.484,3.309-9.147,6.337-14.187,8.742c-2.554,1.219-5.124,2.407-7.717,3.54
		c-4.247,1.856-8.524,3.642-12.778,5.482c-3.435,1.486-6.365,3.785-9.391,5.925C229.704,555.423,229.405,555.66,229.833,556.345z
		 M369.884,383.551c-0.224,0.994-0.477,1.981-0.687,2.978c-0.544,2.582-1.016,5.18-1.617,7.748
		c-0.847,3.613-1.788,7.203-2.683,10.805c-0.425,1.709-0.796,3.432-1.263,5.128c-0.614,2.23-1.359,4.425-1.941,6.663
		c-1.159,4.455-2.72,8.763-4.482,13.009c-0.293,0.706-0.412,1.519-0.445,2.29c-0.065,1.53,0.015,3.065-0.023,4.597
		c-0.02,0.785-0.208,1.565-0.245,2.351c-0.092,1.944-0.095,3.894-0.217,5.836c-0.19,3.009-0.38,6.02-0.696,9.017
		c-0.364,3.457-0.862,6.9-1.305,10.348c-0.071,0.552-0.169,1.1-0.233,1.652c-0.356,3.083-0.669,6.171-1.068,9.248
		c-0.262,2.022-0.611,4.035-0.98,6.041c-0.544,2.96-1.108,5.917-1.74,8.859c-0.154,0.717-0.071,1.103,0.588,1.464
		c2.033,1.115,4.048,2.266,6.045,3.445c2.114,1.248,4.204,2.535,6.29,3.829c0.366,0.227,0.659,0.573,0.968,0.847
		c-0.438,0.743-0.857,0.522-1.259,0.248c-0.421-0.286-0.79-0.67-1.24-0.889c-3.251-1.584-6.517-3.138-9.779-4.7
		c-0.701-0.336-1.404-0.67-2.263-1.08c-0.358,1.436-0.846,2.711-0.964,4.019c-0.188,2.073-0.135,4.169-0.174,6.255
		c-0.026,1.392,0.054,2.791-0.069,4.174c-0.233,2.631-0.625,5.248-0.862,7.879c-0.362,4.019-0.691,8.033-1.532,11.997
		c-0.545,2.567-1.485,4.986-2.587,7.319c-1.464,3.098-3.19,6.072-4.799,9.102c-0.427,0.803-0.84,1.612-1.352,2.596
		c1.141,0.01,2.033-0.044,2.876-0.685c1.03-0.783,2.132-1.476,3.226-2.169c2.426-1.538,4.859-3.066,7.31-4.564
		c0.458-0.28,0.998-0.485,1.526-0.584c2.13-0.401,4.276-0.715,6.405-1.122c2.779-0.531,5.558-1.07,8.317-1.696
		c4.432-1.005,8.845-2.093,13.272-3.12c0.625-0.145,1.296-0.262,1.922-0.187c0.585,0.07,1.078,0.049,1.602-0.219
		c0.394-0.202,0.851-0.426,1.309,0.114c-0.091,0.186-0.135,0.446-0.288,0.56c-0.666,0.498-1.348,0.977-2.052,1.42
		c-3.843,2.424-7.695,4.833-11.535,7.261c-0.176,0.111-0.26,0.366-0.543,0.786c1.257-0.336,2.22-0.736,3.208-0.816
		c0.902-0.073,1.538-0.439,2.239-0.938c2.831-2.016,5.686-4.001,8.589-5.912c1.503-0.989,3.12-1.805,4.694-2.684
		c0.527-0.294,1.082-0.486,1.863-0.07c-0.353,0.403-0.595,0.801-0.944,1.049c-0.52,0.37-1.112,0.642-1.68,0.943
		c-3.319,1.759-6.354,3.972-9.527,5.964c-0.188,0.118-0.3,0.355-0.447,0.537c1.225-0.108,2.4-0.288,3.388-0.817
		c1.835-0.982,3.549-2.188,5.337-3.261c2.624-1.574,5.257-3.134,7.908-4.661c1.807-1.042,3.652-2.019,5.482-3.021
		c0.413-0.227,0.898-0.825,1.285-0.166c0.345,0.589-0.331,0.901-0.736,1.147c-0.99,0.601-2.028,1.123-3.038,1.692
		c-1.493,0.842-3.004,1.655-4.461,2.557c-1.57,0.972-3.081,2.04-4.628,3.05c-0.443,0.289-0.922,0.523-1.045,1.234
		c1.002-0.102,1.831-0.254,2.567-0.839c1.123-0.893,2.221-1.852,3.459-2.558c4.311-2.46,8.674-4.83,13.03-7.211
		c0.416-0.227,0.921-0.292,1.483-0.463c-0.027,0.865-0.264,1.315-0.993,1.453c-0.306,0.058-0.593,0.245-0.872,0.403
		c-2.823,1.606-5.648,3.209-8.461,4.833c-1.301,0.751-2.575,1.546-4.019,2.416c1.028,0.1,1.188,0.053,2.147-0.323
		c1.379-0.54,2.763-1.07,4.156-1.572c0.565-0.203,1.205-0.23,1.737-0.489c3.625-1.758,7.284-3.457,10.824-5.373
		c2.642-1.43,5.238-2.979,7.559-4.927c2.265-1.901,4.738-3.582,6.379-6.133c1.204-1.872,2.581-3.655,3.588-5.627
		c1.73-3.388,3.117-6.936,4.061-10.638c0.321-1.257,0.594-2.53,0.994-3.761c0.931-2.866,1.237-5.804,1.076-8.792
		c-0.042-0.772-0.207-1.591-0.534-2.286c-2.657-5.645-6.324-10.584-10.681-15.025c-0.172-0.175-0.441-0.256-0.706-0.403
		c-0.918,2.272-1.36,4.631-2.675,6.662c-0.183-0.323-0.29-0.63-0.241-0.909c0.199-1.136,0.48-2.257,0.666-3.394
		c0.284-1.74,0.498-3.49,0.769-5.232c0.25-1.602,0.633-3.188,0.784-4.797c0.253-2.708,0.402-5.432,0.529-8.142
		c0.195-4.166-0.05-8.353-0.098-12.53c-0.007-0.602,0.035-1.204,0.064-1.806c0.042-0.879,0.144-1.76,0.127-2.638
		c-0.027-1.391-0.165-2.78-0.195-4.171c-0.112-5.106-0.124-10.216-0.321-15.318c-0.161-4.171-0.512-8.336-0.816-12.501
		c-0.371-5.089-0.651-10.19-1.219-15.258c-0.402-3.582-1.075-7.151-1.891-10.665c-0.701-3.016-1.781-5.943-2.676-8.915
		c-0.098-0.326-0.079-0.686-0.129-1.18c1.726,0.309,1.296,2.117,2.268,2.851c1.653-4.642,2.183-20.269,0.753-23.276
		c-1.102,0.768-2.185,1.522-3.213,2.238c-0.04,0.183-0.081,0.274-0.077,0.363c0.257,5.961-0.496,11.861-1.155,17.76
		c-0.345,3.085-0.941,6.141-1.438,9.208c-0.126,0.778-0.348,1.542-0.457,2.322c-0.673,4.842-1.964,9.523-3.636,14.106
		c-0.735,2.014-2.026,3.633-3.585,5.065c-0.599,0.549-1.349,0.781-2.061,0.559c-0.781-0.243-1.646-0.605-2.174-1.187
		c-1.083-1.193-2.179-2.462-2.891-3.889c-1.911-3.831-3.142-7.938-4.217-12.066c-0.688-2.64-1.14-5.357-1.481-8.067
		c-0.428-3.402-0.632-6.833-0.942-10.25c-0.03-0.33-0.124-0.654-0.23-1.194c-0.817,0.694-1.406,1.275-2.072,1.745
		c-3.755,2.65-7.494,5.325-11.312,7.883c-1.764,1.182-3.661,2.182-5.564,3.134c-0.894,0.447-1.941,0.587-3.05,0.902
		C370.648,380.118,370.27,381.836,369.884,383.551z M250.591,377.746c-1.915,3.341-3.881,6.655-5.711,10.042
		c-1.74,3.22-3.336,6.517-4.996,9.78c-0.442,0.869-0.932,1.717-1.322,2.609c-2.08,4.755-4.193,9.498-6.185,14.291
		c-2.421,5.826-4.492,11.78-5.887,17.942c-1.246,5.506-2.421,11.029-3.543,16.561c-0.478,2.357-0.762,4.754-1.1,7.138
		c-0.58,4.089-1.186,8.184-1.228,12.319c-0.021,1.995-0.767,3.559-1.965,5.06c-2.835,3.555-5.756,7.055-8.368,10.771
		c-2.958,4.21-5.557,8.667-7.812,13.305c-0.604,1.243-1.031,2.572-1.555,3.855c-0.612,1.497-1.224,2.995-1.867,4.479
		c-0.799,1.843-0.635,3.811-0.294,5.631c0.561,2.996,1.474,5.934,2.375,8.854c0.586,1.901,1.393,3.736,2.146,5.582
		c0.225,0.552,0.569,1.066,0.919,1.555c0.984,1.379,1.087,1.388,2.625,0.755c1.181-0.486,2.372-0.948,3.559-1.42
		c0.082,0.133,0.164,0.265,0.246,0.398c-0.77,1.641-2.902,1.389-4.128,2.444c0.337,0.762,0.828,0.668,1.398,0.425
		c1.535-0.653,3.084-1.273,4.618-1.925c1.404-0.597,2.793-1.23,4.198-1.825c0.307-0.13,0.652-0.17,1.061-0.271
		c0.01,0.953-0.587,1.19-1.117,1.417c-2.342,1.006-4.699,1.978-7.046,2.972c-0.356,0.151-0.859,0.182-0.79,0.904
		c0.338,0,0.709,0.089,1.008-0.02c0.518-0.189,0.975-0.54,1.487-0.755c2.735-1.152,5.476-2.29,8.223-3.416
		c0.401-0.165,0.84-0.237,1.322-0.368c0.19,1.004-0.411,1.151-0.967,1.394c-2.677,1.17-5.345,2.361-8.007,3.562
		c-0.215,0.097-0.366,0.335-0.547,0.507c0.031,0.096,0.061,0.193,0.091,0.289c0.314-0.03,0.654,0.007,0.935-0.106
		c0.382-0.154,0.696-0.472,1.077-0.633c2.817-1.194,5.644-2.362,8.463-3.55c0.557-0.235,0.969-0.18,1.267,0.453
		c-0.693,1.245-2.118,1.051-3.124,1.622c-1.076,0.61-2.327,0.906-3.476,1.396c-1.065,0.454-2.098,0.985-3.278,1.546
		c0.911,0.699,1.56,0.836,2.442,0.301c1.061-0.644,2.249-1.085,3.396-1.582c2.723-1.18,5.454-2.341,8.182-3.508
		c0.127-0.054,0.273-0.138,0.393-0.115c0.21,0.04,0.498,0.101,0.583,0.249c0.078,0.138-0.023,0.429-0.129,0.603
		c-0.086,0.143-0.283,0.235-0.449,0.312c-2.144,0.995-4.286,1.997-6.441,2.969c-1.304,0.589-2.635,1.116-3.939,1.705
		c-0.195,0.088-0.306,0.361-0.523,0.632c0.903,0.372,1.674,0.355,2.408,0.047c0.85-0.357,1.651-0.826,2.492-1.205
		c2.351-1.06,4.714-2.096,7.067-3.151c0.453-0.203,0.835-0.197,1.018,0.319c0.167,0.474-0.19,0.646-0.553,0.803
		c-2.976,1.286-5.95,2.575-8.92,3.875c-0.099,0.043-0.146,0.204-0.27,0.39c1.379,0.54,2.574,0.381,3.858-0.273
		c2.643-1.346,5.3-2.705,8.071-3.738c1.386-0.517,1.944-1.367,2.44-2.556c0.606-1.453,1.27-2.888,2.008-4.278
		c1.787-3.366,3.808-6.592,6.013-9.7c0.534-0.753,0.752-1.562,0.811-2.469c0.09-1.385,0.21-2.773,0.41-4.147
		c0.788-5.411,1.891-10.763,3.117-16.09c0.769-3.34,1.489-6.692,2.312-10.019c1.445-5.845,2.967-11.672,4.415-17.516
		c0.184-0.743,0.248-1.567,0.142-2.321c-0.305-2.156-0.798-4.285-1.089-6.442c-0.631-4.686-1.328-9.37-1.724-14.077
		c-0.385-4.576-0.407-9.182-0.633-13.773c-0.08-1.617-0.083-3.282-0.485-4.831c-0.944-3.638-1.969-7.259-2.467-10.987
		c-0.288-2.157-0.33-4.347-0.459-6.523c-0.023-0.388-0.079-0.859,0.705-1.046c0.566,2.062,0.3,4.226,0.769,6.268
		c0.466,2.03,0.577,4.154,1.569,6.081c0.179-0.449,0.182-0.882,0.178-1.315c-0.012-1.346-0.112-2.698-0.023-4.038
		c0.214-3.236,0.479-6.47,0.792-9.699c0.273-2.811,0.548-5.627,0.989-8.414c0.463-2.928,1.143-5.822,1.689-8.738
		c0.169-0.901,0.331-1.833,0.277-2.737c-0.06-0.998-0.303-1.964-1.087-2.771c-0.652-0.671-1.075-1.563-1.611-2.375
		C250.807,377.592,250.651,377.641,250.591,377.746z M290.386,462.975c2.493-3.465,5.139-6.832,7.444-10.418
		c3.362-5.23,6.488-10.615,8.934-16.356c1.636-3.839,3.302-7.666,4.854-11.539c1.103-2.753,2.124-5.545,3.025-8.369
		c1.379-4.327,2.703-8.676,3.899-13.057c0.927-3.396,1.638-6.851,2.411-10.287c0.428-1.901,0.797-3.815,1.171-5.727
		c0.165-0.845-0.057-1.16-0.722-1.146c-1.101,0.022-2.202,0.059-3.303,0.06c-3.343,0.004-6.68-0.011-10.02-0.325
		c-2.443-0.23-4.915-0.187-7.374-0.21c-1.438-0.014-2.877,0.127-4.315,0.118c-2.551-0.015-5.102-0.091-7.653-0.14
		c-4.97-0.094-9.94-0.176-14.91-0.283c-3.667-0.079-7.334-0.184-11.001-0.295c-1.223-0.037-1.541,0.185-1.53,1.36
		c0.015,1.672-0.043,3.361,0.166,5.013c0.598,4.74,1.234,9.478,2.005,14.191c0.748,4.57,1.685,9.109,2.535,13.662
		c0.484,2.592,0.956,5.185,1.442,7.776c0.046,0.244,0.154,0.476,0.233,0.713c0.094,0.011,0.188,0.021,0.282,0.032
		c0.124-0.303,0.272-0.598,0.366-0.909c0.16-0.528,0.236-1.085,0.435-1.595c0.488-1.252,1.054-2.474,1.538-3.728
		c0.683-1.771,1.318-3.561,1.981-5.341c0.209-0.562,0.407-1.163,1.401-0.908c-0.114,0.549-0.19,1.082-0.341,1.593
		c-0.171,0.576-0.434,1.125-0.615,1.699c-1.278,4.066-2.562,8.131-3.795,12.21c-0.179,0.591-0.246,1.298-0.104,1.889
		c0.597,2.472,1.355,4.905,1.941,7.379c1.188,5.018,2.964,9.85,4.659,14.701c1.052,3.01,2.469,5.893,3.735,8.828
		c0.096,0.223,0.291,0.402,0.631,0.858c0.128-0.859,0.212-1.423,0.295-1.983c0.182-0.058,0.309-0.125,0.441-0.135
		c1.114-0.087,1.1-0.085,1.237-1.139c0.125-0.963,0.253-1.928,0.437-2.881c0.278-1.434,0.389-1.578,1.778-1.551
		c1.125,0.022,1.799-0.47,2.378-1.368c1.684-2.613,3.508-5.14,5.12-7.796c3.251-5.355,6.395-10.775,9.596-16.161
		c0.219-0.369,0.36-0.881,1.04-0.87c-0.029,0.293-0.002,0.577-0.09,0.819c-0.363,1.001-0.719,2.008-1.153,2.979
		c-1.708,3.82-3.837,7.413-5.993,10.99c-1.245,2.065-2.407,4.18-3.676,6.23c-1.123,1.814-2.351,3.564-3.509,5.357
		c-0.19,0.295-0.34,0.662-0.369,1.007c-0.114,1.381-0.159,2.767-0.26,4.149c-0.033,0.443,0.103,0.71,0.528,0.84
		c0.695,0.213,1.388,0.436,2.33,0.733C290.019,463.505,290.198,463.237,290.386,462.975z M422.498,347.699
		c-0.016,0.225-0.01,0.456,0.018,0.68c0.207,1.653,0.574,3.302,0.6,4.957c0.053,3.341-0.012,6.688-0.154,10.028
		c-0.139,3.288-0.328,6.595-1.219,9.781c-0.524,1.873-0.369,3.588,0.177,5.434c0.84,2.839,1.536,5.738,2.032,8.656
		c0.419,2.461,0.48,4.984,0.677,7.481c0.354,4.486,0.738,8.97,1.022,13.461c0.276,4.356,0.43,8.719,0.661,13.078
		c0.135,2.549,0.379,5.093,0.456,7.643c0.079,2.589,0.012,5.182,0.011,7.773c-0.002,4.229,0.025,8.457-0.013,12.686
		c-0.021,2.365-0.103,4.731-0.241,7.092c-0.133,2.27-0.363,4.534-0.57,6.799c-0.092,1.013-0.143,2.043-0.382,3.025
		c-0.152,0.623-0.12,1.066,0.319,1.51c0.293,0.297,0.528,0.653,0.828,0.942c3.397,3.267,6.097,7.099,8.833,10.901
		c0.446,0.619,0.815,1.293,1.258,2.004c0.263-0.247,0.412-0.357,0.522-0.496c1.411-1.781,2.814-3.567,4.225-5.349
		c2.242-2.832,4.394-5.674,5.629-9.177c0.85-2.412,1.699-4.759,2.011-7.326c0.633-5.209,0.232-10.286-1.523-15.231
		c-1.026-2.891-2.4-5.631-4.007-8.242c-0.917-1.49-1.761-3.048-3.217-4.147c-0.241-0.182-0.269-0.757-0.254-1.144
		c0.036-0.971,0.23-1.94,0.223-2.909c-0.019-2.551-0.034-5.107-0.194-7.651c-0.163-2.591-0.466-5.174-0.763-7.754
		c-0.281-2.443-0.588-4.884-0.966-7.313c-0.35-2.244-0.617-4.53-1.276-6.689c-0.614-2.012-0.984-4.043-1.301-6.098
		c-0.205-1.328-0.29-2.676-0.899-3.913c-0.119-0.242-0.115-0.543-0.171-0.815c-0.816-3.904-1.4-7.875-2.51-11.693
		c-1.302-4.482-2.268-9.083-4.187-13.375c-0.038-0.085-0.067-0.174-0.097-0.262c-1.565-4.61-3.127-9.222-4.704-13.828
		c-0.099-0.289-0.319-0.536-0.526-0.872C422.616,347.567,422.503,347.629,422.498,347.699z M339.802,568.129
		c2.46-0.083,4.919-0.217,7.38-0.244c1.944-0.021,3.89,0.163,5.832,0.113c1.657-0.043,3.331,0.446,4.975-0.134
		c0.159-0.056,0.364,0.022,0.548,0.028c2.176,0.07,4.353,0.181,6.529,0.197c3.853,0.029,7.707-0.009,11.56-0.002
		c1.347,0.003,2.695,0.093,4.041,0.083c3.248-0.024,6.496-0.119,9.744-0.122c3.902-0.004,7.803,0.077,11.705,0.086
		c3.668,0.009,7.336-0.033,11.004-0.037c0.674,0,1.278-0.096,1.783-0.6c1.707-1.703,3.528-3.303,5.123-5.104
		c4.091-4.621,8.09-9.323,12.108-14.007c0.633-0.738,1.225-1.522,1.755-2.338c2.221-3.424,4.34-6.917,6.647-10.281
		c0.982-1.433,1.063-2.676,0.171-4.075c-0.075-0.118-0.153-0.233-0.226-0.352c-1.404-2.294-2.788-4.601-4.222-6.877
		c-0.485-0.77-1.094-1.461-1.668-2.216c-1.253,1.006-2.389,1.919-3.666,2.945c0.386,0.292,0.68,0.561,1.016,0.76
		c1.078,0.638,2.169,1.254,3.259,1.87c0.485,0.274,0.997,0.518,0.889,1.38c-1.655,0.131-2.806-1.024-4.128-1.597
		c-1.35-0.585-2.608-1.411-3.843-2.226c-1.258-0.83-2.439-1.775-3.586-2.62c-0.947,0.719-1.766,1.32-2.563,1.95
		c-0.713,0.564-0.813,0.946-0.171,1.598c1.168,1.186,2.326,2.438,3.69,3.365c3.647,2.48,7.393,4.812,11.614,6.245
		c0.64,0.218,1.126,0.619,1.094,1.584c-7.319-1.935-13.547-5.489-18.594-11.139c-1.915,1.224-3.727,2.383-5.479,3.503
		c0.444,4.844,0.471,9.624-0.354,14.148c-0.309,1.695-1.103,2.811-2.539,3.554c-2.181,1.128-4.323,2.365-6.593,3.281
		c-5.627,2.271-11.332,4.349-17.12,6.181c-3.18,1.006-6.399,1.89-9.598,2.838c-1.378,0.408-2.734,0.899-4.126,1.248
		c-5.889,1.476-11.765,3.013-17.735,4.143c-2.276,0.431-4.549,0.887-6.836,1.249c-2.195,0.347-4.406,0.597-6.614,0.862
		c-0.36,0.044-0.737-0.071-1.106-0.075c-1.005-0.012-1.998,0.049-2.862,0.837C339.028,568.131,339.415,568.142,339.802,568.129z
		 M264.878,439.372c-2.224,5.66-4.361,11.355-6.182,17.158c-1.846,5.879-3.639,11.779-5.24,17.728
		c-1.591,5.909-2.979,11.876-4.337,17.845c-1.358,5.965-2.385,11.994-3.038,18.431c0.445-0.468,0.698-0.696,0.906-0.959
		c0.373-0.473,0.695-0.988,1.08-1.451c2.29-2.743,4.628-5.447,6.878-8.222c1.9-2.344,3.787-4.706,5.525-7.169
		c2.809-3.98,5.556-8.007,8.207-12.093c2.372-3.657,4.57-7.426,6.862-11.135c0.497-0.805,0.437-1.509-0.014-2.337
		c-0.707-1.296-1.276-2.667-1.904-4.006c-0.177-0.378-0.353-0.757-0.527-1.137c-0.89-1.939-1.871-3.842-2.646-5.826
		c-0.928-2.375-1.713-4.809-2.498-7.237c-0.698-2.16-1.322-4.344-1.958-6.524c-0.295-1.009-0.543-2.031-0.812-3.047
		C265.079,439.384,264.979,439.378,264.878,439.372z M254.658,387.815c-0.893,3.515-1.299,7.105-1.709,10.7
		c-0.608,5.343-0.988,10.697-1.033,16.074c-0.02,2.366-0.088,4.732-0.08,7.098c0.009,2.64-0.014,5.284,0.142,7.917
		c0.262,4.442,0.642,8.877,0.994,13.314c0.201,2.541,0.375,5.086,0.685,7.615c0.349,2.844,0.835,5.67,1.271,8.503
		c0.024,0.155,0.144,0.296,0.327,0.655c0.238-0.505,0.413-0.805,0.525-1.126c0.84-2.406,1.651-4.823,2.504-7.225
		c0.93-2.619,1.868-5.236,2.855-7.835c0.691-1.819,1.474-3.602,2.207-5.405c0.522-1.284,1.096-2.528,0.739-4.012
		c-0.563-2.342-1.007-4.714-1.501-7.073c-0.684-3.263-1.441-6.513-2.035-9.793c-0.669-3.694-1.29-7.403-1.753-11.127
		c-0.623-5.014-1.135-10.045-1.561-15.08c-0.111-1.311-0.464-2.651-0.094-4.001c0.068-0.25-0.119-0.633-0.298-0.873
		c-0.351-0.471-0.778-0.886-1.37-1.541C255.17,385.799,254.914,386.807,254.658,387.815z M434.768,514.912
		c1.602-0.735,3.167-1.554,4.722-2.385c0.436-0.233,0.839-0.584,1.161-0.963c2.084-2.455,3.772-5.173,5.135-8.082
		c0.277-0.591,0.396-1.355,0.309-2.002c-0.479-3.541-1.245-7.029-2.409-10.41c-0.461-1.34-1.124-2.61-1.696-3.912
		c-0.107-0.608,0.64-1.136,0.268-2.135c-0.868,0.908-1.591,1.744-2.4,2.486c-0.576,0.529-0.844,1.119-0.678,1.853
		c0.542,2.402-0.182,4.72-0.586,7.019c-0.357,2.031-0.958,4.039-1.634,6.027c-1.681,4.945-3.745,9.678-6.499,14.257
		C431.899,516.086,433.36,515.558,434.768,514.912z M365.894,384.817c-1.262,0.58-2.498,1.242-3.809,1.675
		c-0.526,0.174-1.221-0.164-1.858-0.272c-0.039,0.127-0.106,0.255-0.114,0.386c-0.161,2.636-0.307,5.274-0.474,7.91
		c-0.217,3.425-0.414,6.852-0.685,10.274c-0.299,3.786-0.681,7.566-1.007,11.35c-0.246,2.855-0.399,5.719-1.155,8.506
		c-0.108,0.397-0.156,0.861,0.245,1.37c0.198-0.428,0.371-0.699,0.452-0.995c0.512-1.876,0.965-3.769,1.509-5.635
		c1.035-3.553,2.182-7.074,3.164-10.641c0.995-3.617,1.906-7.259,2.745-10.916c0.786-3.426,1.456-6.881,2.12-10.334
		c0.197-1.025,0.201-2.088,0.319-3.421C366.7,384.408,366.304,384.628,365.894,384.817z M218.652,567.894
		c1.01-0.012,1.033-0.08,0.92-1.151c-0.453-4.303-0.706-8.607,0.16-12.892c0.099-0.488,0.245-1.01,0.522-1.41
		c1-1.446,2.034-2.871,3.114-4.258c1.486-1.909,3.048-3.78,5.17-5.006c1.29-0.745,1.695-1.892,1.958-3.188
		c0.138-0.68-0.259-1.066-0.938-0.906c-0.264,0.062-0.527,0.195-0.748,0.355c-0.977,0.706-1.947,1.424-2.905,2.156
		c-3.782,2.889-7.127,6.216-10.022,9.998c-0.58,0.758-1.006,1.559-1.041,2.526c-0.094,2.591-0.248,5.183-0.246,7.774
		c0.002,1.935,0.21,3.869,0.339,6.006C216.36,567.897,217.506,567.908,218.652,567.894z M381.032,533.435
		c-2.101,0.637-4.286,1.051-6.171,2.285c-3.593,2.351-7.165,4.735-10.74,7.113c-0.046,0.031-0.023,0.166-0.05,0.428
		c1.246,0.058,2.476-0.038,3.548-0.629c1.164-0.641,2.189-1.529,3.312-2.25c3.076-1.974,6.174-3.912,9.255-5.877
		c0.359-0.229,0.666-0.539,0.998-0.811C381.134,533.607,381.083,533.521,381.032,533.435z M439.127,482.351
		c2.582-2.749,4.697-5.856,6.859-8.927c0.477-0.677,0.856-1.375,0.746-2.545c-0.427,0.557-0.703,0.897-0.957,1.253
		c-1.266,1.773-2.469,3.595-3.806,5.313c-1.28,1.643-2.694,3.181-4.057,4.759c-0.301,0.348-0.757,0.661-0.495,1.188
		c0.544,1.089,1.145,2.15,1.727,3.232c1.36-0.948,4.485-4.566,4.829-5.678c-0.809,0.895-1.457,1.677-2.177,2.387
		c-0.669,0.66-1.087,1.743-2.553,1.602c0.535-0.67,0.956-1.204,1.384-1.733c1.545-1.908,3.107-3.802,4.625-5.731
		c0.313-0.398,0.465-0.923,0.691-1.389c-0.1-0.062-0.199-0.124-0.299-0.186c-2.152,2.715-4.007,5.705-6.883,7.96
		C438.642,482.921,438.615,482.896,439.127,482.351z M363.608,537.674c-2.546,0.577-5.184,0.919-7.18,2.89
		c-0.129,0.128-0.299,0.218-0.458,0.312c-2.297,1.373-4.598,2.74-6.887,4.125c-0.2,0.121-0.326,0.363-0.677,0.768
		c1.935-0.205,3.611-0.339,5.052-1.22c3.273-1.999,6.492-4.086,9.733-6.138c0.236-0.149,0.474-0.296,0.711-0.444
		C363.803,537.87,363.705,537.772,363.608,537.674z M357.25,544.419c1.17-0.404,2.481-0.275,3.558-0.973
		c3.3-2.14,6.571-4.325,9.847-6.502c0.33-0.219,0.613-0.508,0.918-0.764c-0.042-0.081-0.084-0.162-0.126-0.243
		c-1.005,0.289-2.022,0.54-3.01,0.88c-0.775,0.266-1.575,0.544-2.254,0.986c-2.672,1.74-5.302,3.543-7.942,5.33
		c-0.405,0.274-0.784,0.585-1.175,0.879C357.127,544.148,357.188,544.284,357.25,544.419z M212.165,559.529
		c-0.298,0.591-0.571,1.197-0.898,1.772c-1.009,1.776-1.823,3.635-2.454,5.578c-0.277,0.854-0.108,1.109,0.752,1.075
		c0.784-0.031,1.569-0.076,2.353-0.074c0.618,0.002,0.989-0.215,0.959-0.879c-0.046-1.017-0.132-2.033-0.156-3.05
		c-0.025-1.055,0.011-2.111,0.001-3.166c-0.004-0.388-0.062-0.775-0.095-1.162C212.473,559.591,212.319,559.56,212.165,559.529z
		 M346.596,545.247c2.742-1.815,5.604-3.446,8.408-5.168c0.247-0.152,0.427-0.413,0.812-0.796c-0.564,0-0.885-0.052-1.182,0.01
		c-0.903,0.186-1.801,0.405-2.694,0.636c-0.264,0.068-0.526,0.19-0.758,0.337c-2.853,1.797-5.701,3.6-8.545,5.41
		c-0.137,0.087-0.23,0.244-0.564,0.61C343.88,546.28,345.258,546.132,346.596,545.247z M228.034,536.48
		c0.301-0.321,0.75-0.511,1.144-0.738c1.074-0.619,2.168-1.203,3.224-1.85c0.327-0.2,0.694-0.515,0.245-1.127
		c-2.768,1.326-5.539,2.654-8.564,4.103C225.711,537.474,226.935,537.653,228.034,536.48z M222.639,552.311
		c0.242-0.167,0.422-0.278,0.585-0.409c1.511-1.209,2.943-2.538,4.554-3.594c1.072-0.702,1.015-1.679,1.242-2.633
		C225.838,547.86,222.874,551,222.639,552.311z M316.807,566.832c-1.038,0.354-2.176,0.416-3.122,1.029
		c2.579,0.52,4.867,0.212,6.287-2.353C318.918,565.955,317.887,566.464,316.807,566.832z M435.187,517.556
		c-0.267,0.059-0.545,0.113-0.788,0.231c-1.919,0.929-3.948,1.52-6.02,1.984c-0.553,0.124-1.012,0.362-1.213,1.143
		c2.936-0.837,5.693-1.755,8.444-3.109C435.33,517.636,435.247,517.543,435.187,517.556z M231.649,535.563
		c-0.983,0.659-1.894,1.27-2.872,1.925c0.649,0.596,1.378,0.4,2.258,0.391C231.125,537.063,232.013,536.601,231.649,535.563z
		 M327.895,567.35c1.466,0.222,2.624-0.465,3.737-1.305C330.168,565.868,329.077,566.728,327.895,567.35z M332.945,567.159
		c1.492,0.037,2.583-0.796,3.737-1.485C335.139,565.665,333.51,566.342,332.945,567.159z M352.242,563.99
		c-1.566,0.299-2.972-0.139-4.442,0.946C349.68,565.029,351.312,564.702,352.242,563.99z M323.599,567.919
		c1.216-0.199,2.354-0.568,3.237-1.5C325.6,566.591,324.386,566.816,323.599,567.919z M345.483,564.717
		c-1.128,0.043-2.166,0.195-3.088,1.002C343.623,566.075,344.859,565.662,345.483,564.717z M340.571,565.146
		c-1.082,0.058-1.788,0.76-2.624,1.214C339.107,566.529,340.028,566.085,340.571,565.146z M428.879,523.625
		c0.619-0.207,1.138-0.591,1.404-1.308c-0.687,0.268-1.374,0.536-2.312,0.902C428.445,523.442,428.711,523.682,428.879,523.625z
		 M322.149,567.147c0.67-0.027,0.67-0.027,0.996-0.605C322.482,566.552,322.482,566.552,322.149,567.147z M430.362,517.59
		c-0.479,0.118-1.03,0.108-1.118,0.94c0.436-0.228,0.872-0.456,1.309-0.685C430.49,517.76,430.426,517.675,430.362,517.59z"/>
	<path fill="#E07153" d="M233.035,243.884c0.467,1.004-0.972,1.626-0.311,2.572c0.48,0.179,0.789-0.049,1.009-0.452
		c0.088-0.162,0.14-0.344,0.203-0.519c0.448-1.247,1.175-1.765,2.653-1.828c4.539-0.194,9.068-0.653,13.598-1.037
		c0.652-0.055,1.291-0.271,2.201-0.47c-0.226,0.529-0.278,0.799-0.43,0.988c-2.249,2.77-4.458,5.575-6.792,8.272
		c-1.177,1.359-2.515,2.606-3.911,3.743c-1.734,1.412-3.9,1.652-6.049,1.753c-1.106,0.052-2.232,0.041-3.326-0.108
		c-1.092-0.149-2.196-0.403-3.223-0.795c-1.34-0.512-2.203-1.647-2.534-2.977c-0.664-2.671-0.8-5.396-0.256-8.126
		c0.103-0.516,0.304-0.875,0.879-0.887C228.823,243.968,230.9,243.927,233.035,243.884z"/>
	<path fill="#F6BFA7" d="M220.086,207.344c-0.093-0.531-0.115-1.086-0.289-1.589c-1.158-3.341-2.579-6.568-4.294-9.663
		c-0.832-1.502-1.632-3.022-2.474-4.518c-1.091-1.938-2.214-3.859-3.314-5.793c-0.152-0.268-0.248-0.567-0.431-0.995
		c12.775-3.977,25.774-6.254,38.878-8.016c0.065,0.106,0.129,0.212,0.194,0.318c-0.279,0.323-0.519,0.691-0.842,0.962
		c-2.556,2.144-5.149,4.245-7.689,6.409c-1.836,1.565-3.606,3.208-5.412,4.809c-0.312,0.277-0.666,0.507-0.976,0.785
		c-0.836,0.753-1.708,1.171-2.848,0.603c-0.331-0.165-0.786-0.082-1.518-0.139c0.972,1.693,2.179,2.671,3.581,3.585
		c0.85-0.538,1.681-1.034,2.48-1.577c3.493-2.372,6.955-4.791,10.473-7.124c1.734-1.15,3.57-2.145,5.353-3.221
		c0.992-0.599,1.982-1.205,2.953-1.838c2.835-1.85,5.811-3.454,8.845-4.939c0.853-0.418,1.852-0.658,2.803-0.734
		c5.644-0.448,11.256-1.286,16.937-1.288c3.435-0.001,6.871-0.147,10.306-0.253c1.717-0.053,3.435-0.113,5.145-0.261
		c1.045-0.091,1.65,0.379,2.14,1.206c2.15,3.635,4.032,7.405,5.677,11.292c0.63,1.489,1.206,3.001,1.861,4.639
		c1.119-0.76,0.719-2.338,1.773-3.293c0.625,0.987,1.268,1.869,1.769,2.826c0.945,1.805,1.792,3.66,2.715,5.477
		c0.232,0.456,0.27,1.253,1.017,1.13c0.775-0.128,0.48-0.869,0.547-1.386c0.354-2.757,0.68-5.518,1.077-8.269
		c0.307-2.123,0.91-4.174,2.008-6.031c1.645-2.783,3.677-5.175,6.436-7.003c1.546-1.025,3.188-1.707,4.874-2.308
		c2.825-1.007,5.281-0.017,7.474,1.785c1.702,1.399,2.563,3.336,3.443,5.304c1.222,2.73,2.108,5.527,2.734,8.453
		c0.633,2.957,0.094,5.689-0.88,8.44c-1.062,3.001-2.779,5.655-4.36,8.378c-1.116,1.923-2.307,3.809-3.571,5.638
		c-0.785,1.136-1.748,2.153-2.668,3.19c-0.709,0.799-1.432,1.595-2.233,2.297c-0.506,0.444-1.129,0.813-1.762,1.043
		c-2.349,0.856-4.696,1.744-7.1,2.416c-1.659,0.464-2.682,1.529-3.307,2.947c-0.682,1.549-1.841,2.376-3.323,2.938
		c-1.041,0.395-2.06,0.85-3.105,1.235c-0.883,0.326-1.483,0.916-1.901,1.74c-0.209,0.412-0.419,0.846-0.727,1.18
		c-0.326,0.353-0.728,0.721-1.168,0.867c-1.052,0.349-2.134,0.646-3.227,0.82c-0.804,0.128-1.372,0.493-1.864,1.087
		c-0.593,0.715-1.275,1.367-1.79,2.132c-0.562,0.836-1.32,1.272-2.245,1.517c-0.897,0.237-1.784,0.522-2.692,0.705
		c-1.975,0.399-3.155,1.861-4.407,3.225c-0.656,0.715-1.182,1.578-1.926,2.175c-0.495,0.397-1.292,0.661-1.919,0.603
		c-1.795-0.166-2.995,0.791-4.114,1.918c-0.947,0.953-1.814,1.987-2.683,3.014c-0.349,0.413-0.683,0.659-1.271,0.689
		c-0.58,0.03-1.185,0.234-1.712,0.497c-2.145,1.071-4.15,2.338-5.144,4.665c-0.331,0.775-0.819,1.023-1.622,0.967
		c-1.159-0.08-2.191,0.335-3.117,1.014c-1.634,1.199-2.962,2.684-3.919,4.463c-0.4,0.744-0.971,1.001-1.728,1.21
		c-1.556,0.428-3.106,0.91-4.601,1.511c-0.499,0.201-0.917,0.777-1.213,1.277c-0.584,0.984-1.057,2.034-1.482,2.87
		c-1.465,0.184-2.702,0.296-3.923,0.504c-1.417,0.241-2.518,0.942-2.939,2.415c-0.266,0.934-0.554,1.867-0.724,2.82
		c-0.262,1.468-0.46,1.587-1.973,1.77c-4.051,0.491-7.214-1.369-10.115-3.805c-1.375-1.155-2.515-2.589-3.781-3.877
		c-0.909-0.924-1.76-1.937-2.792-2.703c-4.072-3.022-7.846-6.387-11.471-9.914c-3.099-3.016-5.725-6.456-8.366-9.872
		c-0.391-0.505-0.292-0.915,0.024-1.387c0.566-0.845,1.119-1.7,1.636-2.575c0.113-0.19,0.053-0.482,0.085-0.877
		c-1.396,0.504-1.716,1.92-2.823,2.637c-1.387-2.875-3.366-5.384-4.011-8.315c1.166-1.592,2.255-3.065,3.319-4.555
		c0.071-0.1-0.037-0.328-0.094-0.712c-1.48,0.954-2.216,2.481-3.668,3.574c-0.24-1.135-0.449-2.052-0.624-2.975
		c-0.284-1.499-0.539-3.004-0.82-4.504c-0.122-0.651,0.027-1.179,0.549-1.617c1.065-0.894,2.125-1.795,3.16-2.723
		c0.316-0.283,0.793-0.528,0.6-1.299c-1.733,0.67-2.859,2.196-4.652,3.021c-0.189-1.183-0.362-2.258-0.531-3.334
		c-0.56-3.571-1.076-7.149-1.688-10.711c-0.582-3.381-1.258-6.746-1.903-10.117c-0.366-1.911-0.748-3.819-1.13-5.727
		c-0.234-1.17-0.171-1.228,0.886-1.602c1.441-0.51,2.869-1.06,4.281-1.647c0.714-0.297,1.308-0.262,1.945,0.193
		c1.81,1.295,3.651,2.546,5.47,3.827c0.87,0.613,1.676,1.33,2.588,1.87c1.889,1.12,3.05,2.801,3.967,4.724
		c1.017,2.134,2.089,4.242,3.114,6.373c0.239,0.497,0.372,1.044,0.582,1.557c0.233,0.57,0.497,1.127,0.748,1.69
		C219.786,207.44,219.936,207.392,220.086,207.344z M268.641,235.318c-0.789-0.334-1.096,0.148-1.492,0.436
		c-1.009,0.735-1.939,1.72-3.071,2.115c-2.661,0.928-5.384,1.789-8.152,2.275c-3.878,0.682-7.811,1.136-11.739,1.44
		c-6.061,0.468-12.135,0.763-18.208,1.047c-1.662,0.078-3.345-0.093-4.85-0.99c-0.557-0.332-1.136-0.638-1.736-0.881
		c-0.477-0.193-1-0.272-1.581-0.421c0.001,0.796,0.267,1.177,0.795,1.394c1.499,0.618,2.992,1.253,4.498,1.856
		c1.227,0.491,1.16,0.506,0.995,1.842c-0.335,2.717-0.492,5.404,0.616,8.065c1.18,2.833,3.309,4.275,6.181,4.747
		c1.362,0.224,2.771,0.279,4.154,0.237c2.837-0.085,5.598-0.723,7.754-2.621c1.973-1.737,3.719-3.75,5.446-5.745
		c2.061-2.381,3.982-4.882,5.991-7.308c0.628-0.758,1.427-1.233,2.432-1.483c2.384-0.592,4.762-1.236,7.095-2.004
		c1.79-0.59,3.211-1.822,4.494-3.182C268.438,235.954,268.492,235.655,268.641,235.318z M336.405,176.864
		c0.446-0.704,0.061-1.1-0.234-1.49c-0.708-0.937-1.754-1.35-2.811-1.713c-0.236-0.081-0.571-0.033-0.807,0.073
		c-1.364,0.617-2.626,1.357-3.447,2.697c-1.307,2.135-2.727,4.198-3.582,6.584c-0.64,1.787-1.357,3.547-2.079,5.303
		c-0.612,1.489-0.318,2.777,0.638,4.026c0.732,0.956,1.39,1.976,2.002,3.013c0.178,0.302,0.226,0.816,0.099,1.141
		c-0.815,2.068-1.609,4.153-2.589,6.144c-0.552,1.121-0.83,2.034,0.159,3.005c0.186,0.183,0.237,0.499,0.364,0.747
		c0.591,1.16,1.286,1.462,2.489,0.93c1.013-0.448,1.946-1.076,2.955-1.536c1.477-0.673,2.309-1.936,2.773-3.334
		c0.918-2.766,1.59-5.613,2.437-8.405c0.35-1.155,0.04-1.988-0.857-2.688c-0.292-0.228-0.582-0.459-0.884-0.673
		c-2.117-1.502-4.24-2.997-6.355-4.502c-0.527-0.375-0.654-0.867-0.363-1.465c0.447-0.917,0.864-1.848,1.327-2.756
		c0.092-0.18,0.329-0.286,0.506-0.433c0.21,0.128,0.372,0.216,0.523,0.32c1.366,0.953,2.731,1.908,4.096,2.863
		c0.75,0.525,1.17,0.574,1.548-0.039c0.555-0.898,1.047-1.855,1.415-2.843c0.225-0.606,0.231-1.332-0.512-2.027
		c-0.208,0.606-0.353,1.077-0.531,1.534c-0.167,0.428-0.315,0.881-0.571,1.254c-0.333,0.484-0.812,0.577-1.333,0.222
		c-1.109-0.757-2.229-1.498-3.33-2.266c-0.687-0.479-0.752-0.746-0.254-1.498c0.612-0.925,1.249-1.84,1.958-2.692
		c1.36-1.633,2.556-1.696,4.156-0.321C335.644,176.327,336.014,176.572,336.405,176.864z M271.51,191.492
		c0.056-0.047,0.242-0.183,0.402-0.344c1.001-1.01,0.891-1.569-0.491-2.055c-1.088-0.383-2.202-0.731-3.332-0.953
		c-2.517-0.494-5.075-0.826-7.536,0.171c-1.709,0.692-3.401,1.485-4.976,2.438c-1.814,1.098-3.504,2.404-5.22,3.657
		c-0.784,0.573-1.523,1.213-2.234,1.875c-0.2,0.186-0.367,0.602-0.295,0.833c0.074,0.237,0.445,0.5,0.71,0.527
		c0.271,0.028,0.634-0.147,0.848-0.349c2.032-1.911,4.246-3.54,6.703-4.891c1.711-0.941,3.516-1.362,5.383-1.707
		c1.855-0.343,3.689-0.07,5.522,0.157C268.458,191.032,269.915,191.264,271.51,191.492z M299.787,226.879
		c-0.05-0.162-0.056-0.369-0.161-0.492c-0.632-0.735-1.245-1.493-1.939-2.165c-4.169-4.037-9.011-6.925-14.596-8.568
		c-2.819-0.829-5.687-1.279-8.615-1.343c-0.293-0.006-0.783,0.219-0.851,0.439c-0.158,0.507,0.284,0.718,0.726,0.794
		c0.225,0.039,0.464-0.008,0.694,0.012c1.661,0.146,3.356,0.135,4.975,0.48c4.345,0.927,8.375,2.672,12.071,5.152
		c2.319,1.556,4.472,3.316,6.345,5.395C298.819,227.012,299.18,227.272,299.787,226.879z M219.315,215.882
		c-0.152,0.21-0.318,0.369-0.399,0.564c-0.695,1.667-1.366,3.344-2.061,5.012c-0.802,1.925-1.639,3.836-2.423,5.768
		c-0.336,0.827-0.524,1.716-0.136,2.575c0.806,1.784,1.99,3.236,3.842,4.03c0.676,0.29,1.356,0.59,2.062,0.778
		c0.198,0.053,0.498-0.279,0.751-0.434c-0.194-0.219-0.362-0.597-0.585-0.633c-2.081-0.339-3.306-1.691-4.279-3.414
		c-0.442-0.783-0.583-1.564-0.291-2.399c0.428-1.224,0.892-2.436,1.345-3.651c0.81-2.171,1.627-4.338,2.431-6.51
		C219.781,217.001,219.985,216.421,219.315,215.882z M297.502,207.899c0.332-0.736-0.055-0.955-0.485-1.192
		c-5.075-2.783-10.475-3.846-16.22-3.064c-0.825,0.112-1.651,0.272-2.448,0.507c-0.283,0.083-0.481,0.455-0.717,0.695
		c0.284,0.173,0.559,0.469,0.854,0.49c0.498,0.035,1.009-0.104,1.514-0.17c1.191-0.156,2.378-0.409,3.573-0.449
		c3.544-0.12,7.037,0.153,10.307,1.73c0.954,0.46,1.923,0.891,2.894,1.314C296.974,207.848,297.213,207.847,297.502,207.899z
		 M207.288,197.013c-1.334,0.311-2.996,0.683-4.65,1.091c-0.512,0.126-0.8,0.495-0.634,1.046c0.164,0.543,0.584,0.672,1.103,0.549
		c0.089-0.021,0.173-0.068,0.262-0.091c1.074-0.275,2.153-0.533,3.222-0.825c1.201-0.328,2.338-0.128,3.302,0.589
		c1.105,0.822,2.11,1.779,3.149,2.689c0.381,0.333,0.692,0.762,1.109,1.035c0.563,0.368,1.171,0.041,1.158-0.636
		c-0.007-0.369-0.185-0.84-0.452-1.082c-1.163-1.052-2.34-2.1-3.604-3.025C210.205,197.585,208.966,197.17,207.288,197.013z
		 M288.405,236.703c-0.013-0.738-0.538-1.236-0.979-1.723c-3.652-4.04-8.083-6.887-13.271-8.553c-0.466-0.15-0.904-0.204-1.304,0.49
		c0.404,0.248,0.778,0.557,1.206,0.726c1.161,0.457,2.408,0.734,3.51,1.299c3.731,1.915,7.159,4.258,9.861,7.531
		C287.688,236.787,287.931,237.022,288.405,236.703z M248.808,201.194c1.545,0.779,3.2,1.106,4.95,1.206
		c-0.069-0.284-0.175-0.519-0.346-0.583c-1.163-0.436-2.33-0.863-3.515-1.23C249.521,200.47,249.048,200.455,248.808,201.194z
		 M231.011,229.981c-1.281-0.308-3.151,0.457-3.558,1.387c-0.079,0.181-0.087,0.542,0.019,0.622
		c0.184,0.137,0.617,0.245,0.715,0.144c0.719-0.743,1.642-1.124,2.532-1.575C230.844,230.495,230.879,230.253,231.011,229.981z
		 M325.248,191.173c0.684,0.987,1.173,2.169,2.03,2.96c1.105,1.019,0.955,1.913,0.408,3.068c-0.99,2.087-1.877,4.224-2.845,6.322
		c-0.232,0.503-0.214,0.904,0.183,1.248c0.461,0.4,0.728,1.339,1.498,1c1.634-0.718,3.356-1.373,4.072-3.295
		c1.051-2.822,1.961-5.678,2.564-8.634c0.149-0.728,0.083-1.225-0.546-1.685c-1.346-0.984-2.633-2.048-3.976-3.035
		c-0.955-0.702-1.962-1.331-3.029-2.048C324.881,188.485,324.255,189.741,325.248,191.173z"/>
	<path fill="#828993" d="M225.464,139.337c0.484,0.24,0.66,0.307,0.814,0.408c0.976,0.643,0.999,0.775,0.276,1.719
		c-1.24,1.62-2.483,3.237-3.732,4.85c-0.135,0.174-0.32,0.311-0.51,0.492c-0.544-0.349-1.018-0.718-1.546-0.978
		c-2.212-1.089-4.595-1.223-6.914-0.7c-1.778,0.401-3.192,1.613-4.339,3.1c-1.763,2.285-3.012,4.833-3.549,7.633
		c-0.534,2.785-0.249,5.559,1.358,8.031c0.924,1.422,2.356,2.223,3.873,2.833c1.001,0.402,2.055,0.404,3.148,0.176
		c4.505-0.942,7.595-5.01,8.072-8.896c0.263-2.139-0.657-3.91-1.892-5.507c-1.76-2.275-4.054-2.3-6.171-0.305
		c-1.415,1.334-2.131,2.905-2.068,4.817c0.038,1.168,0.443,2.136,1.616,2.703c1.124,0.544,1.954-0.003,2.823-0.539
		c0.189-0.117,0.353-0.276,0.545-0.43c0.624,0.324,0.736,0.718,0.366,1.253c-0.841,1.219-2.918,2.078-4.299,1.777
		c-1.461-0.318-2.783-1.839-3.024-3.481c-0.52-3.539,1.124-7.117,4.212-8.889c0.731-0.42,1.657-0.653,2.505-0.689
		c4.177-0.18,6.377,2.628,6.85,6.501c0.095,0.781,0.069,1.576,0.11,2.364c0.171,3.301-1.447,5.749-3.717,7.91
		c-1.81,1.723-4.065,2.403-6.439,2.669c-2.508,0.281-4.885,1.045-7.304,1.663c-2.239,0.572-4.478,1.141-6.84,1.743
		c0-0.385-0.078-0.672,0.012-0.889c1.18-2.874,2.261-5.799,3.63-8.581c0.718-1.459,0.872-2.851,0.829-4.403
		c-0.057-2.03,0.641-3.95,1.459-5.754c0.761-1.677,1.73-3.298,2.842-4.766c1.263-1.667,2.843-3.052,4.964-3.631
		c2.416-0.66,4.747-0.637,6.983,0.666c1.09,0.635,1.187,0.564,1.891-0.467c0.758-1.109,1.544-2.198,2.324-3.291
		C224.888,140.074,225.177,139.714,225.464,139.337z M200.913,170.009c0.663-0.043,1.008-0.009,1.321-0.094
		c1.779-0.482,3.555-0.978,5.324-1.497c0.985-0.289,1.009-0.634,0.281-1.426c-0.964-1.048-1.859-2.159-2.792-3.236
		c-0.226-0.262-0.482-0.498-0.912-0.938C203.057,165.225,202.068,167.432,200.913,170.009z"/>
	<path fill="#E8D593" d="M325.586,386.147c-0.528,3.218-0.986,6.324-1.562,9.408c-0.391,2.095-0.922,4.166-1.438,6.237
		c-0.459,1.842-0.933,3.684-1.489,5.499c-1.004,3.279-2.025,6.554-3.131,9.799c-1.224,3.591-2.52,7.159-3.851,10.711
		c-0.47,1.255-1.152,2.43-1.715,3.651c-1.397,3.029-2.783,6.064-4.173,9.097c-0.097,0.211-0.178,0.432-0.296,0.63
		c-2.536,4.265-4.756,8.708-7.481,12.872c-1.479,2.26-3.092,4.389-4.795,6.469c-1.587,1.938-3.134,3.908-4.714,5.851
		c-0.239,0.294-0.557,0.525-0.96,0.897c-0.281-1.071,0.132-1.694,0.647-2.215c2.895-2.925,5.083-6.379,7.318-9.79
		c1.6-2.443,3.107-4.952,4.582-7.473c2.409-4.117,4.795-8.246,6.659-12.654c1.171-2.768,2.525-5.461,3.64-8.25
		c0.926-2.317,1.615-4.729,2.428-7.091c0.316-0.917,0.722-1.803,1.026-2.723c0.711-2.153,1.438-4.302,2.062-6.481
		c0.765-2.673,1.443-5.372,2.135-8.066c0.519-2.019,1.038-4.038,1.489-6.073c0.662-2.987,1.289-5.982,1.878-8.985
		C324.036,386.488,324.636,386.201,325.586,386.147z M279.406,469.193c0.092-0.795-0.037-1.524-0.429-2.271
		c-1.141-2.173-2.285-4.355-3.238-6.614c-1.169-2.772-2.205-5.605-3.192-8.449c-1.354-3.897-2.712-7.798-3.872-11.755
		c-0.911-3.106-1.534-6.296-2.265-9.453c-0.481-2.077-0.95-4.158-1.384-6.246c-0.462-2.222-0.881-4.453-1.309-6.682
		c-0.533-2.777-1.136-5.543-1.564-8.336c-0.548-3.575-0.934-7.175-1.423-10.759c-0.501-3.672-0.992-7.341-0.87-11.061
		c0.015-0.45-0.075-0.887-0.629-0.895c-0.525-0.008-0.708,0.375-0.695,0.849c0.027,1.02,0.006,2.047,0.116,3.059
		c0.294,2.717,0.634,5.428,0.98,8.139c0.563,4.415,1.046,8.843,1.745,13.236c0.721,4.53,1.636,9.031,2.515,13.535
		c0.354,1.818,0.828,3.613,1.265,5.414c0.47,1.937,0.974,3.866,1.438,5.805c0.431,1.799,0.767,3.622,1.251,5.406
		c1.398,5.154,3.265,10.156,5.193,15.127c1.439,3.71,2.878,7.435,5.035,10.821c0.333,0.523,0.546,1.123,0.9,1.868
		C279.203,469.551,279.384,469.381,279.406,469.193z M262.115,328.016c0.162,0.005,0.461-0.349,0.484-0.561
		c0.151-1.344-1.439-2.719-2.741-2.412c-0.975,0.23-1.962,1.479-2.083,2.723C259.222,327.858,260.668,327.97,262.115,328.016z
		 M256.57,355.795c0.716,0.008,1.573-0.993,1.584-1.85c0.008-0.641-1.026-1.699-1.638-1.676c-0.677,0.026-1.442,1.097-1.413,1.979
		C255.132,355.126,255.757,355.786,256.57,355.795z M329.207,322.042c-0.783-1.538-1.293-1.79-2.859-1.535
		c-0.741,0.121-1.193,0.475-1.023,1.496C326.584,321.71,327.843,322.368,329.207,322.042z M258.924,385.515
		c0.766-0.127,1.497-0.425,1.643-1.567c-1.23,0.12-2.354,0.229-3.623,0.352C257.447,385.284,258.094,385.652,258.924,385.515z
		 M324.11,384.868c0.459,0.057,1.026-0.232,1.444-0.517c0.326-0.222,0.088-0.751-0.344-0.774c-0.708-0.037-1.42-0.01-2.134-0.01
		C322.917,384.553,323.608,384.805,324.11,384.868z M322.802,349.421c-0.001,0.887,0.923,1.845,1.754,1.82
		c0.766-0.023,1.467-0.751,1.489-1.547c0.032-1.124-0.587-1.876-1.561-1.897C323.513,347.777,322.803,348.462,322.802,349.421z"/>
	<path fill="#B6BFCE" d="M188.727,181.413c1.491-0.184,2.087-0.754,2.28-1.995c0.167-1.072-0.428-2.443-1.304-2.835
		c-0.249-0.112-0.615-0.049-0.9,0.031c-0.242,0.068-0.444,0.275-0.8,0.511c-0.895-2.805-1.054-5.6-1.465-8.446
		c1.567-0.396,2.802-1.225,2.748-3.049c-0.034-1.164-0.8-1.59-2.896-1.814c-0.037-0.661-0.126-1.343-0.105-2.022
		c0.089-2.92,0.222-5.838,0.317-8.758c0.065-2.016,1.203-3.415,2.558-4.744c2.025-1.986,4.51-3.242,7.009-4.444
		c1.787-0.859,3.745-1.36,5.537-2.21c2.696-1.28,5.517-2.183,8.345-3.078c3.885-1.23,7.746-2.556,11.682-3.596
		c3.129-0.827,6.339-1.383,9.541-1.885c3.572-0.561,7.166-1.018,10.766-1.348c3.277-0.301,6.567-0.541,9.874-0.268
		c1.796,0.148,3.63-0.049,5.408,0.193c3.257,0.444,6.491,1.072,9.723,1.679c1.036,0.195,1.419,1.175,1.781,1.996
		c1.11,2.516,1.878,5.148,2.199,7.883c0.401,3.411,0.78,6.821,0.671,10.275c-0.126,3.992-0.457,7.941-1.628,11.781
		c-0.296,0.972-0.569,1.955-0.928,2.904c-0.25,0.66-0.787,0.971-1.532,0.98c-2.639,0.033-5.281,0.035-7.916,0.175
		c-3.334,0.177-6.663,0.474-9.993,0.726c-1.343,0.102-2.692,0.163-4.024,0.348c-2.526,0.35-5.057,0.694-7.557,1.188
		c-3.823,0.756-7.627,1.616-11.429,2.477c-1.446,0.327-2.859,0.794-4.295,1.168c-1.749,0.455-3.534,0.794-5.255,1.334
		c-3.846,1.207-7.683,2.45-11.486,3.786c-4.326,1.52-8.609,3.163-12.919,4.732c-0.56,0.204-1.158,0.365-1.748,0.41
		c-0.817,0.061-1.518-0.404-1.709-1.147C189.039,183.42,188.917,182.459,188.727,181.413z M222.842,148.19
		c0.592-0.865,1.088-1.642,1.637-2.38c1.188-1.599,2.405-3.177,3.606-4.767c0.314-0.416,0.419-0.89-0.025-1.241
		c-0.684-0.541-1.402-1.054-2.159-1.483c-0.41-0.232-0.823-0.161-1.172,0.355c-0.883,1.305-1.852,2.552-2.807,3.806
		c-0.665,0.873-0.676,0.848-1.708,0.408c-2.365-1.01-4.842-1.035-7.209-0.275c-2.135,0.685-3.904,2.1-5.315,3.901
		c-2.306,2.944-3.689,6.315-4.596,9.904c-0.1,0.396-0.077,0.83-0.067,1.245c0.039,1.597-0.207,3.121-0.851,4.608
		c-1.291,2.981-2.508,5.994-3.729,9.005c-0.177,0.437-0.695,0.966-0.193,1.379c0.267,0.219,0.872,0.138,1.29,0.043
		c1.625-0.369,3.241-0.782,4.852-1.209c3.006-0.797,6.014-1.565,9.112-1.941c4.071-0.495,7.396-2.207,9.688-5.775
		c2.447-3.81,2.591-7.768,0.917-11.821c-0.786-1.902-2.317-3.342-4.252-4.022c-2.106-0.74-4.198-0.742-6.182,0.788
		c-3.131,2.414-4.946,5.356-4.535,9.412c0.184,1.815,1.081,3.252,2.584,4.261c1.452,0.974,2.978,0.99,4.425-0.013
		c0.907-0.628,1.799-1.308,2.576-2.086c0.559-0.559,0.355-2.067-0.257-2.568c-0.661-0.54-1.19-0.097-1.723,0.326
		c-0.243,0.193-0.565,0.312-0.869,0.4c-1.537,0.443-2.555-0.325-2.547-1.91c0.001-0.184,0.024-0.373,0.069-0.552
		c0.496-1.972,1.499-3.423,3.622-3.989c0.956-0.255,1.647-0.077,2.256,0.566c1.934,2.043,2.394,4.55,1.611,7.107
		c-0.944,3.082-3.224,5.095-6.305,5.973c-2.032,0.579-4.045,0.136-5.502-1.494c-2.067-2.313-2.558-5.204-2.015-8.111
		c0.456-2.438,1.413-4.761,2.937-6.846c2.504-3.426,6.634-3.958,10.187-2.353C221.102,147.252,221.974,147.746,222.842,148.19z
		 M266.32,134.127c0.178,0.613,0.241,1.041,0.421,1.412c1.146,2.364,1.792,4.873,2.086,7.462c0.24,2.118,0.332,4.253,0.487,6.381
		c0.295,4.044,0.307,8.079-0.56,12.064c-0.225,1.033-0.573,2.05-0.971,3.032c-0.426,1.05-1.26,1.482-2.432,1.484
		c-3.205,0.005-6.414,0.013-9.613,0.175c-3.801,0.193-7.606,0.442-11.387,0.867c-2.805,0.315-5.586,0.888-8.356,1.453
		c-5.355,1.093-10.695,2.261-16.04,3.403c-0.771,0.165-1.551,0.314-2.302,0.549c-2.874,0.898-5.745,1.805-8.602,2.757
		c-1.447,0.482-2.863,1.062-4.288,1.61c-0.42,0.161-0.842,0.345-1.015,1.127c0.492-0.099,0.827-0.121,1.127-0.234
		c1.039-0.39,2.051-0.857,3.101-1.21c1.751-0.587,3.525-1.105,5.287-1.656c2.248-0.703,4.477-1.471,6.746-2.096
		c1.829-0.504,3.703-0.848,5.562-1.243c3.22-0.684,6.432-1.419,9.67-2.007c2.55-0.463,5.148-0.657,7.7-1.113
		c3.206-0.573,6.443-0.754,9.674-1.058c4.318-0.406,8.638-0.279,12.947-0.117c1.569,0.059,2.305-0.656,3.012-1.714
		c0.253-0.378,0.4-0.842,0.527-1.286c0.95-3.314,1.598-6.688,1.509-10.143c-0.08-3.105-0.396-6.203-0.525-9.308
		c-0.129-3.113-1.178-5.992-2.098-8.907C267.765,135.101,267.386,134.476,266.32,134.127z M264.956,161.707
		c0.051-0.786-1.122-1.956-1.976-1.97c-0.873-0.015-2.171,1.241-2.235,2.164c-0.063,0.919,1.141,2.297,2.022,2.314
		C263.731,164.235,264.877,162.922,264.956,161.707z M263.841,138.024c0.021-1.063-0.952-2.282-1.819-2.281
		c-0.968,0.002-2.015,1.001-2.025,1.931c-0.01,0.975,1.023,2.145,1.958,2.215C262.751,139.949,263.824,138.888,263.841,138.024z
		 M267.464,149.185c-0.016-0.745-1.062-1.737-1.854-1.758c-0.957-0.025-2.112,1.253-2.047,2.264c0.05,0.777,1.173,1.746,2.065,1.78
		C266.449,151.503,267.486,150.212,267.464,149.185z M190.537,152.77c-0.007-0.076,0.008-0.316-0.054-0.532
		c-0.328-1.128-1.626-1.582-2.349-0.771c-0.646,0.724-1.135,1.621-1.093,2.611c0.021,0.484,0.353,1.159,0.745,1.365
		c0.392,0.206,1.195,0.123,1.533-0.166C189.997,154.696,190.594,153.944,190.537,152.77z M189.837,183.112
		c0.394,0.792,0.721,0.798,1.234,0.514c1.124-0.624,2.295-1.164,3.437-1.757c0.737-0.382,1.467-0.78,2.177-1.21
		c0.174-0.105,0.255-0.366,0.378-0.554C194.579,180.98,192.195,181.894,189.837,183.112z M263.193,355.325
		c0.18-3.706,0.363-7.412,0.539-11.118c0.044-0.923,0.162-1.856,0.079-2.769c-0.247-2.702,0.84-4.966,2.124-7.217
		c2.086-3.658,4.673-6.929,7.627-9.898c2.372-2.384,5.033-4.447,8.267-5.535c3.522-1.184,7.124-1.985,10.874-2.177
		c2.686-0.138,5.308,0.12,7.848,0.829c2.674,0.746,5.291,1.728,7.359,3.761c1.022,1.004,2.201,1.848,3.263,2.814
		c1.538,1.401,2.492,3.236,3.404,5.048c0.998,1.983,1.839,4.056,2.611,6.14c0.429,1.157,0.581,2.417,0.85,3.633
		c0.228,1.031,0.458,2.063,0.659,3.099c0.087,0.452,0.148,0.917,0.146,1.376c-0.015,2.926,0.039,5.857-0.103,8.778
		c-0.18,3.696-0.014,7.43-1.01,11.055c-0.892,3.249-2.09,6.349-4.358,8.92c-0.489,0.554-1.067,1.028-1.584,1.557
		c-3.532,3.616-7.804,6.113-12.412,8.046c-2.373,0.995-4.954,1.201-7.504,1.341c-1.429,0.078-2.882,0.062-4.302-0.103
		c-2.416-0.281-4.657-1.228-6.845-2.23c-1.683-0.771-3.299-1.703-4.893-2.651c-3.654-2.174-6.584-5.147-8.943-8.641
		c-1.161-1.72-2.009-3.653-2.97-5.505c-0.48-0.926-0.588-1.933-0.566-2.977c0.039-1.855,0.011-3.711,0.011-5.567
		C263.307,355.33,263.25,355.328,263.193,355.325z M306.713,346.392c-0.217,1.738-0.273,3.523-0.685,5.222
		c-0.931,3.838-3.243,6.754-6.596,8.787c-1.7,1.031-3.481,1.993-5.615,1.723c-1.332-0.169-2.741-0.097-3.907-0.866
		c-2.578-1.699-4.778-3.63-4.915-7.109c-0.105-2.676,0.303-5.07,2.341-6.979c1.766-1.655,3.751-2.484,6.206-1.793
		c1.071,0.302,1.962,0.834,2.624,1.721c0.565,0.757,0.475,1.305-0.25,1.933c-0.523,0.453-1.071,0.593-1.793,0.457
		c-1.083-0.204-2.198-0.309-3.301-0.315c-1.13-0.006-2.327,0.975-2.631,1.971c-0.297,0.977,0.214,2.413,1.119,3.101
		c0.295,0.224,0.633,0.392,0.923,0.621c1.66,1.31,3.637,1.711,5.62,1.492c3.762-0.415,5.802-2.333,6.77-5.823
		c1.042-3.758,0.365-7.342-1.436-10.746c-0.128-0.242-0.307-0.473-0.51-0.658c-3.763-3.448-8.089-4.313-12.865-2.275
		c-2.243,0.957-3.625,2.859-5.038,4.689c-2.087,2.703-3.154,5.882-3.783,9.181c-0.416,2.18-0.56,4.398-0.151,6.645
		c0.507,2.787,1.549,5.356,2.931,7.779c1.446,2.535,3.347,4.694,6.122,5.864c2.234,0.942,4.56,1.634,7.001,1.62
		c1.519-0.008,3.081-0.116,4.546-0.487c2.681-0.679,5.14-1.927,7.156-3.855c1.4-1.339,2.836-2.711,3.904-4.304
		c1.041-1.551,1.797-3.305,2.337-5.163c1.007-3.468,1.479-6.983,1.492-10.57c0.008-2.183-0.379-4.319-0.751-6.474
		c-0.93-5.397-2.908-10.204-6.768-14.199c-1.913-1.98-4.189-3.366-6.621-4.507c-1.198-0.562-2.548-0.992-3.858-1.083
		c-3.115-0.217-6.246-0.037-9.221,1.01c-4.864,1.711-8.957,4.554-12.338,8.487c-3.554,4.134-5.654,8.935-6.618,14.212
		c-0.631,3.455-0.931,6.949-0.4,10.515c0.749,5.028,2.308,9.623,5.667,13.532c1.092,1.271,2.296,2.406,3.517,3.541
		c3.833,3.563,8.334,5.308,13.573,5.011c0.812-0.046,1.637-0.301,2.405-0.593c0.771-0.293,1.087-1.052,1.081-1.806
		c-0.005-0.678-0.724-0.743-1.23-0.946c-1.075-0.431-2.143-0.881-3.223-1.301c-3.964-1.544-7.504-3.655-9.892-7.325
		c-1.137-1.748-2.247-3.492-3.102-5.422c-0.775-1.751-1.023-3.56-1.257-5.393c-0.158-1.234-0.27-2.501-0.173-3.735
		c0.219-2.784,0.987-5.44,1.943-8.075c1.41-3.884,3.953-6.768,7.365-8.932c2.87-1.82,6.054-2.639,9.437-2.172
		c1.494,0.206,2.968,0.739,4.384,1.292c3.127,1.222,5.53,3.355,7.282,6.212c0.214,0.349,0.383,0.758,0.446,1.16
		C306.25,342.954,306.47,344.653,306.713,346.392z M188.991,177.629c-0.282,0.032-1.007,1.148-1.002,1.542
		c0.006,0.457,0.744,1.216,1.168,1.201c0.551-0.02,1.013-0.541,0.996-1.122C190.125,178.315,189.585,177.562,188.991,177.629z
		 M186.451,166.805c0.116,0.256,0.616,0.593,0.78,0.522c0.383-0.166,0.799-0.503,0.951-0.873c0.122-0.298-0.024-0.818-0.232-1.11
		c-0.243-0.34-0.685-0.538-1.067-0.817C186.312,165.304,186.104,166.039,186.451,166.805z M262.841,160.926
		c-0.583,0.05-1.124,0.551-1.099,1.019c0.025,0.484,0.61,1.041,1.104,1.053c0.493,0.011,1.057-0.667,1.036-1.245
		C263.861,161.224,263.423,160.876,262.841,160.926z M261.086,137.746c-0.046,0.54,0.201,0.878,0.758,0.931
		c0.526,0.05,0.94-0.288,0.951-0.75c0.012-0.507-0.414-1.016-0.929-1.061C261.315,136.857,261.129,137.247,261.086,137.746z
		 M264.735,149.565c0.035,0.523,0.434,0.9,0.88,0.831c0.42-0.065,0.87-0.686,0.72-1.155c-0.108-0.335-0.427-0.603-0.579-0.805
		C265.117,148.477,264.701,149.052,264.735,149.565z M187.724,153.303c-0.231,0.374-0.189,0.897,0.25,1.076
		c0.316,0.128,0.834,0.094,1.116-0.091c0.989-0.648,0.907-1.444-0.285-2.317C188.445,152.405,188.024,152.817,187.724,153.303z
		 M291.999,376.257c-0.188-0.118-0.365-0.315-0.565-0.342c-1.968-0.266-3.719-1.112-5.447-2.014
		c-2.201-1.149-4.182-2.611-5.809-4.481c-2.152-2.474-3.708-5.332-4.924-8.362c-1.647-4.103-2.189-8.352-1.154-12.684
		c0.471-1.972,1.137-3.92,1.923-5.79c1.842-4.382,4.806-7.813,9.132-9.911c4.681-2.27,9.386-2.298,14.046,0.118
		c0.864,0.448,1.687,0.978,2.564,1.397c2.784,1.331,4.401,3.672,5.396,6.443c1.047,2.915,1.3,5.924,0.889,9.045
		c-0.255,1.936-0.795,3.746-1.666,5.41c-1.83,3.497-4.471,6.243-8.179,7.826c-0.466,0.199-0.916,0.489-1.402,0.575
		c-2.027,0.358-4.043,0.404-6.056-0.208c-2.942-0.896-5.447-2.547-6.582-5.362c-1.089-2.702-1.336-5.684-0.081-8.546
		c0.261-0.594,0.426-1.234,0.721-1.809c0.52-1.014,0.851-2.225,2.021-2.709c0.981-0.406,2.01-0.768,3.053-0.935
		c1.036-0.167,2.15-0.244,3.167-0.043c1.652,0.326,3.12,1.096,4.272,2.431c0.919,1.064,1.254,2.261,0.7,3.29
		c-0.676,1.257-2.128,1.89-3.54,1.515c-0.625-0.166-1.233-0.397-1.854-0.584c-1.267-0.38-2.138-0.012-2.498,1.044
		c-0.369,1.081,0.155,2.119,1.402,2.41c1.302,0.303,2.647,0.549,3.978,0.575c2.06,0.04,3.676-0.753,4.883-2.615
		c1.833-2.83,1.694-9.56-1.983-12.217c-1.028-0.742-2.037-1.507-3.309-1.667c-1.239-0.156-2.499-0.186-3.75-0.185
		c-1.891,0.002-3.509,0.758-4.926,1.975c-1.987,1.707-3.187,3.946-4.248,6.281c-0.89,1.958-1.453,3.987-1.644,6.144
		c-0.229,2.586,0.231,5.093,0.767,7.579c0.26,1.204,0.715,2.451,1.402,3.459c1.065,1.563,2.297,3.049,3.658,4.361
		c1.298,1.251,2.841,2.32,4.663,2.671c3.958,0.763,7.874,0.642,11.547-1.228c2.812-1.432,5.218-3.377,6.768-6.2
		c1.645-2.997,2.732-6.186,3.059-9.605c0.137-1.43,0.313-2.867,0.294-4.299c-0.044-3.352-0.549-6.649-1.455-9.882
		c-0.237-0.847-0.316-1.749-0.63-2.563c-1.46-3.788-3.61-7.066-6.88-9.602c-3.603-2.794-7.581-4.011-12.096-3.367
		c-1.19,0.17-2.37,0.441-3.536,0.741c-1.436,0.37-2.789,0.91-4.103,1.66c-2.027,1.158-3.873,2.533-5.669,3.999
		c-2.219,1.811-4.048,3.941-5.256,6.556c-0.779,1.685-1.6,3.36-2.225,5.103c-1.218,3.395-1.621,6.945-1.623,10.534
		c-0.002,2.277,0.384,4.516,0.732,6.769c0.415,2.691,1.42,5.057,2.859,7.316c1.774,2.783,4.157,4.978,6.658,7.057
		c1.733,1.441,3.725,2.49,5.92,2.965c1.715,0.371,3.497,0.443,5.255,0.589c0.447,0.037,0.913-0.145,1.37-0.227
		C292.005,376.525,292.002,376.391,291.999,376.257z M202.657,168.363c1.157,0.117,2.931-0.352,3.814-0.972
		c-0.666-0.799-1.328-1.595-2.152-2.584C203.742,166.041,203.212,167.175,202.657,168.363z"/>
</g>
</svg>
